<?xml version="1.0" encoding="utf-8"?>
<!-- Generator: Adobe Illustrator 24.0.3, SVG Export Plug-In . SVG Version: 6.00 Build 0)  -->
<svg version="1.1" id="Capa_1" xmlns="http://www.w3.org/2000/svg" xmlns:xlink="http://www.w3.org/1999/xlink" x="0px" y="0px"
	 width="50px" height="50px" viewBox="0 0 50 50" style="enable-background:new 0 0 50 50;" xml:space="preserve">
<style type="text/css">
	.st0{fill:#FFB406;}
	.st1{fill:#FFFFFF;}
	.st2{fill:#DC2015;}
	.st3{fill:none;stroke:#FFFFFF;stroke-width:0.5644;stroke-miterlimit:3.864;}
	.st4{fill:#009ADC;}
	.st5{fill:#57AADC;}
	.st6{fill-rule:evenodd;clip-rule:evenodd;fill:#FEFEFE;}
	.st7{fill:#FABA01;}
	.st8{fill:#003772;}
	.st9{fill:#002F87;}
	.st10{fill-rule:evenodd;clip-rule:evenodd;fill:#002F87;}
	.st11{fill:#FF5100;}
	.st12{fill-rule:evenodd;clip-rule:evenodd;fill:#FFFFFF;}
	.st13{fill:#C10000;}
	.st14{fill-rule:evenodd;clip-rule:evenodd;fill:#001F82;}
	.st15{fill:#001F82;}
</style>
<g>
	<g>
		<path class="st0" d="M-29.634-95.528v9.674h-26.394v-40.485h25.905v9.641h-14.801v5.961h13.297v9.148h-13.297v6.06H-29.634z"/>
		<path class="st0" d="M8.252-126.338v40.485h-9.224l-16.083-21.97v21.97h-10.808v-40.485h9.762l15.546,21.24v-21.24H8.252z"/>
	</g>
	<g>
		<path class="st0" d="M-34.66-233.911v9.581h19.343v14.514H-34.66v21.094h-16.73v-60.195h38.309v15.005H-34.66z"/>
		<path class="st0" d="M27.775-203.105v14.384H-11.47v-60.195h38.517v14.335H5.041v8.863h19.771v13.603H5.041v9.011H27.775z"/>
		<path class="st0" d="M68.632-203.907v15.186H30.406v-60.195h16.803v45.008H68.632z"/>
		<path class="st0" d="M70.156-248.915H86.96v60.195H70.156V-248.915z"/>
		<path class="st0" d="M135.56-204.162v15.442H87.902v-3.45l22.302-41.303H89.363v-15.442h45.164v3.748l-22.187,41.006H135.56z"/>
	</g>
	<g>
		<path class="st0" d="M186.056-188.676l-3.254-24.015l-11.059,24.083h-3.394l-11.054-24.074l-3.208,24.005h-11.641l6.307-41.7
			h11.472l9.82,22.69l9.884-22.69h11.472l6.248,41.7H186.056z"/>
		<path class="st0" d="M225.738-198.64v9.965h-27.187v-41.7h26.682v9.93h-15.245v6.14h13.696v9.423h-13.696v6.242H225.738z"/>
	</g>
	<g>
		<path class="st0" d="M9.926-123.309l-6.327-7.789c-3.265,1.023-6.831,1.569-10.628,1.569c-18.056,0-30.94-12.338-30.94-29.504
			s12.884-29.503,30.94-29.503c18.01,0,30.848,12.291,30.848,29.503c0,8.83-3.379,16.365-9.101,21.609l11.657,14.113H9.926z
			 M-7.029-143.928c8.549,0,14.738-6.314,14.738-15.104c0-8.789-6.188-15.104-14.738-15.104c-8.548,0-14.829,6.36-14.829,15.104
			C-21.858-150.288-15.577-143.928-7.029-143.928z"/>
		<path class="st0" d="M24.79-152.676v-34.439h15.814v34.15c0,5.49,3.538,9.037,8.705,9.037c5.166,0,8.704-3.547,8.704-9.037v-34.15
			h15.814v34.439c0,13.818-10.2,23.148-24.518,23.148C34.99-129.528,24.79-138.857,24.79-152.676z"/>
		<path class="st0" d="M114.317-144.37v13.422H77.699v-56.166h35.939v13.375H93.104v8.269h18.448v12.692H93.104v8.408H114.317z"/>
		<path class="st0" d="M168.5-159.077c0,16.39-12.036,28.129-28.995,28.129h-22.732v-56.166h22.732
			C156.51-187.115,168.5-175.49,168.5-159.077z M152.636-159.077c0-8.333-5.544-13.867-13.861-13.867h-6.461v27.825h6.461
			C147.093-145.118,152.636-150.791,152.636-159.077z"/>
		<path class="st0" d="M198.133-129.527c-18.056,0-30.94-12.338-30.94-29.504s12.885-29.504,30.94-29.504
			c18.009,0,30.847,12.291,30.847,29.504C228.98-141.819,216.142-129.528,198.133-129.527L198.133-129.527z M198.133-143.925
			c8.549,0,14.737-6.315,14.737-15.104c0-8.79-6.188-15.105-14.737-15.105c-8.549,0-14.829,6.36-14.829,15.104
			s6.28,15.104,14.829,15.104V-143.925z"/>
	</g>
	<g>
		<path class="st0" d="M46.262-62.993c-19.369,0-33.834-14.339-33.834-33.374c0-19.14,14.465-33.48,33.834-33.48
			c16.677,0,29.594,11.008,32.18,27.143H60.68c-2.185-6.526-7.683-10.763-14.38-10.763c-9.011,0-15.62,7.245-15.62,17.099
			c0,9.815,6.609,16.956,15.62,16.956c7.061,0,12.612-4.601,14.395-11.673h17.931C76.205-74.352,63.211-62.994,46.262-62.993
			L46.262-62.993z"/>
		<path class="st0" d="M115.891-74.939H93.335L89.81-64.603H71.023l24.997-63.635h17.137l25.545,63.635h-19.305L115.891-74.939z
			 M104.577-108.376l-6.973,19.719h14.008L104.577-108.376z"/>
		<path class="st0" d="M131.824-85.151h18.085c0,4.545,3.507,6.758,7.505,6.758c3.672,0,7.179-1.954,7.179-5.43
			c0-3.992-4.954-5.149-11.011-6.617c-9.198-2.286-20.94-5.105-20.94-19.592c0-12.532,9.207-19.71,24.212-19.71
			c15.257,0,24.005,7.832,24.005,20.778h-17.581c0-4.025-3-5.912-6.633-5.912c-3.124,0-6.124,1.353-6.124,4.323
			c0,3.615,4.796,4.81,10.788,6.316c9.366,2.417,21.613,5.545,21.613,20.077c0,13.898-10.68,21.112-25.457,21.112
			C141.89-63.047,131.824-71.281,131.824-85.151z"/>
		<path class="st0" d="M221.16-74.939h-22.556l-3.525,10.335h-18.787l24.997-63.635h17.137l25.545,63.635h-19.305L221.16-74.939z
			 M209.847-108.376l-6.973,19.719h14.008L209.847-108.376z"/>
	</g>
</g>
<g>
	<g>
		<g>
			<g>
				<rect x="-56.029" y="-50.221" class="st1" width="100" height="37.25"/>
				<rect x="-54.575" y="-48.768" class="st2" width="97.191" height="24.908"/>
				<polygon class="st1" points="-30.139,-46.023 -34.364,-26.995 -24.886,-26.995 -23.478,-37.455 -19.316,-26.995 
					-13.616,-26.995 -9.326,-37.519 -7.916,-26.995 1.432,-26.995 -3.116,-46.023 -12.721,-46.023 -16.5,-36.112 -20.083,-46.023 
									"/>
				<polygon class="st1" points="-0.827,-46.023 19.464,-46.023 19.464,-39.748 14.18,-39.748 14.18,-26.995 4.456,-26.995 
					4.456,-39.748 -0.827,-39.748 				"/>
				<polygon class="st1" points="-45.883,-34.131 -52.43,-34.131 -52.43,-38.861 -51.658,-38.861 -51.658,-34.997 -49.651,-34.997 
					-49.651,-38.616 -48.883,-38.616 -48.883,-34.997 -46.655,-34.997 -46.655,-39.014 -45.883,-39.014 				"/>
				<g>
					<path class="st1" d="M41.404-25.985c0,0.176-0.112,0.257-0.272,0.257h-0.47v-0.516h0.47
						C41.295-26.244,41.404-26.152,41.404-25.985 M41.648-25.992c0-0.331-0.236-0.48-0.516-0.48h-0.707v1.609h0.238V-25.5h0.363
						l0.319,0.637h0.277l-0.328-0.657C41.513-25.575,41.648-25.734,41.648-25.992"/>
					<circle class="st3" cx="40.908" cy="-25.677" r="1.204"/>
					<path class="st1" d="M19.328-28.551c2.356,0.729,5.63,1.298,5.63,1.298c1.976,0.325,2.434,0.403,5.601,0.35
						c3.167-0.054,6.059-1.324,6.059-1.324c3.084-1.268,3.763-3.403,3.763-3.403c1.301-2.46-0.27-4.596-0.27-4.596
						c-1.109-1.647-4.059-2.405-4.059-2.405c-0.782-0.432-5.198-0.89-5.198-0.89c-1.407-0.108-0.999-0.919-0.999-0.919
						c0.054-0.974,2.787-0.783,2.974-0.783c1.379,0,4.438,1.432,4.438,1.432l2.68-4.997c-2.542-1.379-7.062-1.595-7.062-1.595
						c-3.844-0.403-7.468,0.998-7.468,0.998c-5.438,1.756-5.168,5.918-5.168,5.918c-0.065,1.222,0.642,2.803,2.083,3.675
						c2.189,1.321,5.471,1.647,5.601,1.647c1.65,0,2.463,0.379,2.463,0.379c1.245,0.379,0.325,1.324,0.325,1.324
						c-0.674,0.378-1.92,0.432-1.92,0.432c-3.191,0.218-6.684-2.026-6.684-2.026L19.328-28.551z"/>
					<path class="st1" d="M-49.54-28.048v-1.86c0-0.395-0.042-0.704-0.121-0.928c-0.084-0.224-0.215-0.393-0.393-0.509
						c-0.182-0.115-0.378-0.173-0.588-0.173c-0.31,0-0.565,0.112-0.765,0.338c-0.199,0.224-0.298,0.578-0.298,1.063v2.07H-49.54z
						 M-45.883-27.182h-6.548v-2.9c0-0.583,0.06-1.026,0.18-1.331c0.115-0.303,0.323-0.546,0.619-0.728
						c0.298-0.182,0.627-0.271,0.989-0.271c0.463,0,0.856,0.15,1.173,0.45c0.32,0.3,0.523,0.765,0.609,1.392
						c0.11-0.229,0.219-0.402,0.326-0.522c0.231-0.252,0.521-0.491,0.871-0.718l1.781-1.137v1.088l-1.362,0.866
						c-0.393,0.254-0.693,0.462-0.901,0.626c-0.21,0.164-0.355,0.309-0.438,0.44c-0.085,0.128-0.142,0.259-0.174,0.393
						c-0.022,0.099-0.031,0.259-0.031,0.483v1.003h2.907V-27.182z"/>
					<path class="st1" d="M-46.655-41.421v-1.396c0-0.431-0.041-0.769-0.121-1.012c-0.08-0.247-0.193-0.444-0.339-0.588
						c-0.206-0.207-0.481-0.366-0.826-0.478c-0.348-0.117-0.769-0.175-1.263-0.175c-0.685,0-1.211,0.114-1.578,0.339
						c-0.369,0.224-0.616,0.495-0.74,0.817c-0.089,0.232-0.134,0.605-0.134,1.119v1.375H-46.655z M-45.883-40.555h-6.548v-2.252
						c0-0.509,0.031-0.898,0.094-1.166c0.087-0.375,0.243-0.694,0.469-0.959c0.292-0.345,0.666-0.602,1.12-0.772
						c0.453-0.173,0.97-0.258,1.554-0.259c0.498,0,0.938,0.058,1.322,0.175c0.385,0.115,0.704,0.265,0.955,0.445
						c0.251,0.182,0.449,0.381,0.594,0.597c0.143,0.215,0.253,0.475,0.325,0.782c0.076,0.303,0.112,0.653,0.112,1.048V-40.555z"/>
					<polygon points="-52.43,-21.997 -48.215,-21.997 -48.215,-20.717 -50.865,-20.717 -50.865,-19.141 -48.389,-19.141 
						-48.389,-17.873 -50.865,-17.873 -50.865,-15.099 -52.43,-15.099 					"/>
					<path d="M-46.158-17.106c0.051,0.646,0.685,0.952,1.412,0.952c0.532,0,0.962-0.072,1.382-0.205l0.205,1.054
						c-0.511,0.205-1.136,0.307-1.811,0.307c-1.699,0-2.671-0.982-2.671-2.548c0-1.269,0.787-2.671,2.526-2.671
						c1.617,0,2.231,1.258,2.231,2.497c0,0.266-0.03,0.501-0.051,0.613H-46.158z M-44.326-18.17c0-0.378-0.164-1.013-0.88-1.013
						c-0.655,0-0.921,0.594-0.962,1.013H-44.326z"/>
					<path d="M-41.952-18.456c0-0.737-0.021-1.218-0.042-1.648h1.34l0.052,0.921h0.041c0.256-0.726,0.87-1.033,1.35-1.033
						c0.143,0,0.216,0,0.328,0.021v1.463c-0.112-0.02-0.245-0.04-0.42-0.04c-0.573,0-0.961,0.307-1.064,0.787
						c-0.02,0.102-0.03,0.225-0.03,0.348v2.537h-1.555V-18.456z"/>
					<path d="M-38.065-18.456c0-0.737-0.021-1.218-0.041-1.648h1.34l0.052,0.921h0.04c0.257-0.726,0.87-1.033,1.351-1.033
						c0.143,0,0.215,0,0.328,0.021v1.463c-0.112-0.02-0.246-0.04-0.419-0.04c-0.573,0-0.962,0.307-1.064,0.787
						c-0.021,0.102-0.03,0.225-0.03,0.348v2.537h-1.556V-18.456z"/>
					<path d="M-33.061-17.106c0.051,0.646,0.685,0.952,1.412,0.952c0.532,0,0.961-0.072,1.381-0.205l0.205,1.054
						c-0.512,0.205-1.137,0.307-1.811,0.307c-1.698,0-2.67-0.982-2.67-2.548c0-1.269,0.787-2.671,2.526-2.671
						c1.617,0,2.23,1.258,2.23,2.497c0,0.266-0.031,0.501-0.051,0.613H-33.061z M-31.229-18.17c0-0.378-0.164-1.013-0.88-1.013
						c-0.655,0-0.921,0.594-0.962,1.013H-31.229z"/>
					<path d="M-27.115-21.536v1.432H-26v1.147h-1.115v1.811c0,0.604,0.143,0.88,0.613,0.88c0.194,0,0.348-0.021,0.461-0.041
						l0.01,1.177c-0.204,0.082-0.572,0.134-1.012,0.134c-0.501,0-0.921-0.174-1.166-0.43c-0.287-0.296-0.431-0.778-0.431-1.483
						v-2.046h-0.665v-1.147h0.665v-1.084L-27.115-21.536z"/>
					<path d="M-23.954-17.106c0.051,0.646,0.685,0.952,1.412,0.952c0.532,0,0.962-0.072,1.382-0.205l0.205,1.054
						c-0.512,0.205-1.136,0.307-1.811,0.307c-1.699,0-2.671-0.982-2.671-2.548c0-1.269,0.788-2.671,2.528-2.671
						c1.617,0,2.231,1.258,2.231,2.497c0,0.266-0.031,0.501-0.052,0.613H-23.954z M-22.123-18.17c0-0.378-0.164-1.013-0.88-1.013
						c-0.655,0-0.921,0.594-0.962,1.013H-22.123z"/>
					<path d="M-19.749-18.456c0-0.737-0.021-1.218-0.041-1.648h1.34l0.051,0.921h0.041c0.256-0.726,0.87-1.033,1.35-1.033
						c0.143,0,0.215,0,0.328,0.021v1.463c-0.113-0.02-0.245-0.04-0.419-0.04c-0.573,0-0.961,0.307-1.064,0.787
						c-0.021,0.102-0.03,0.225-0.03,0.348v2.537h-1.556V-18.456z"/>
					<path d="M-11-17.658c0,1.831-1.299,2.671-2.639,2.671c-1.463,0-2.589-0.962-2.589-2.579s1.064-2.65,2.671-2.65
						C-12.024-20.216-11-19.162-11-17.658 M-14.623-17.607c0,0.86,0.359,1.504,1.024,1.504c0.603,0,0.993-0.604,0.993-1.504
						c0-0.747-0.287-1.504-0.993-1.504C-14.346-19.111-14.623-18.344-14.623-17.607"/>
					<path d="M-10.049-16.46c0.287,0.173,0.881,0.377,1.341,0.377c0.47,0,0.666-0.163,0.666-0.419c0-0.255-0.153-0.378-0.737-0.573
						c-1.034-0.348-1.432-0.911-1.423-1.504c0-0.931,0.799-1.637,2.037-1.637c0.583,0,1.105,0.133,1.412,0.286l-0.276,1.074
						c-0.225-0.122-0.655-0.285-1.085-0.285c-0.378,0-0.593,0.153-0.593,0.408c0,0.236,0.195,0.359,0.808,0.574
						c0.952,0.327,1.351,0.808,1.36,1.544c0,0.931-0.737,1.617-2.169,1.617c-0.655,0-1.238-0.143-1.617-0.348L-10.049-16.46z"/>
					<path d="M1.319-22.364v5.77c0,0.563,0.021,1.157,0.042,1.494h-1.382l-0.072-0.736h-0.021c-0.317,0.563-0.92,0.849-1.566,0.849
						c-1.186,0-2.138-1.013-2.138-2.568c-0.011-1.689,1.044-2.661,2.24-2.661c0.614,0,1.095,0.215,1.32,0.563h0.021v-2.711H1.319z
						 M-0.236-17.986c0-0.082-0.01-0.194-0.021-0.276c-0.091-0.42-0.43-0.768-0.91-0.768c-0.706,0-1.075,0.635-1.075,1.423
						c0,0.849,0.419,1.381,1.064,1.381c0.45,0,0.808-0.307,0.9-0.747c0.031-0.113,0.041-0.226,0.041-0.359V-17.986z"/>
					<path d="M3.765-17.106c0.052,0.646,0.686,0.952,1.412,0.952c0.532,0,0.962-0.072,1.382-0.205l0.204,1.054
						c-0.511,0.205-1.136,0.307-1.811,0.307c-1.699,0-2.671-0.982-2.671-2.548c0-1.269,0.787-2.671,2.527-2.671
						c1.617,0,2.23,1.258,2.23,2.497c0,0.266-0.03,0.501-0.051,0.613H3.765z M5.596-18.17c0-0.378-0.163-1.013-0.879-1.013
						c-0.655,0-0.921,0.594-0.962,1.013H5.596z"/>
					<path d="M11.194-20.104l0.676,2.324c0.122,0.419,0.214,0.818,0.286,1.217h0.031c0.082-0.409,0.164-0.787,0.276-1.217
						l0.645-2.324h1.637L12.882-15.1h-1.555l-1.822-5.004H11.194z"/>
					<path d="M16.504-17.106c0.051,0.646,0.686,0.952,1.412,0.952c0.533,0,0.962-0.072,1.381-0.205l0.205,1.054
						c-0.511,0.205-1.136,0.307-1.811,0.307c-1.698,0-2.67-0.982-2.67-2.548c0-1.269,0.787-2.671,2.527-2.671
						c1.617,0,2.231,1.258,2.231,2.497c0,0.266-0.031,0.501-0.052,0.613H16.504z M18.335-18.17c0-0.378-0.164-1.013-0.88-1.013
						c-0.654,0-0.921,0.594-0.961,1.013H18.335z"/>
					<path d="M20.709-18.456c0-0.737-0.02-1.218-0.041-1.648h1.34l0.052,0.921h0.041c0.256-0.726,0.87-1.033,1.351-1.033
						c0.143,0,0.215,0,0.328,0.021v1.463c-0.112-0.02-0.246-0.04-0.42-0.04c-0.573,0-0.962,0.307-1.064,0.787
						c-0.02,0.102-0.03,0.225-0.03,0.348v2.537h-1.556V-18.456z"/>
					<path d="M29.366-22.364v5.77c0,0.563,0.02,1.157,0.041,1.494h-1.382l-0.072-0.736h-0.021c-0.317,0.563-0.92,0.849-1.565,0.849
						c-1.187,0-2.138-1.013-2.138-2.568c-0.01-1.689,1.044-2.661,2.241-2.661c0.614,0,1.094,0.215,1.319,0.563h0.021v-2.711H29.366z
						 M27.811-17.986c0-0.082-0.01-0.194-0.021-0.276c-0.092-0.42-0.429-0.768-0.911-0.768c-0.705,0-1.074,0.635-1.074,1.423
						c0,0.849,0.419,1.381,1.064,1.381c0.45,0,0.808-0.307,0.9-0.747c0.031-0.113,0.041-0.226,0.041-0.359V-17.986z"/>
					<path d="M33.458-15.1l-0.091-0.501h-0.031c-0.327,0.4-0.839,0.614-1.433,0.614c-1.012,0-1.616-0.736-1.616-1.534
						c0-1.3,1.166-1.923,2.936-1.913v-0.072c0-0.266-0.143-0.645-0.911-0.645c-0.511,0-1.054,0.174-1.381,0.379l-0.287-1.003
						c0.348-0.195,1.033-0.441,1.944-0.441c1.668,0,2.2,0.982,2.2,2.16v1.739c0,0.481,0.02,0.941,0.072,1.218H33.458z
						 M33.275-17.463c-0.819-0.01-1.452,0.184-1.452,0.788c0,0.399,0.266,0.593,0.614,0.593c0.389,0,0.706-0.255,0.808-0.572
						c0.021-0.082,0.03-0.175,0.03-0.266V-17.463z"/>
					<path d="M40.867-22.364v5.77c0,0.563,0.019,1.157,0.041,1.494h-1.381l-0.073-0.736h-0.02c-0.317,0.563-0.92,0.849-1.565,0.849
						c-1.187,0-2.138-1.013-2.138-2.568c-0.01-1.689,1.044-2.661,2.24-2.661c0.614,0,1.095,0.215,1.319,0.563h0.021v-2.711H40.867z
						 M39.312-17.986c0-0.082-0.01-0.194-0.021-0.276c-0.092-0.42-0.429-0.768-0.91-0.768c-0.706,0-1.075,0.635-1.075,1.423
						c0,0.849,0.419,1.381,1.064,1.381c0.45,0,0.808-0.307,0.901-0.747c0.03-0.113,0.04-0.226,0.04-0.359V-17.986z"/>
				</g>
			</g>
		</g>
	</g>
</g>
<g>
	<g>
		<path class="st4" d="M-41.767,27.655l4.582-10.013h2.108l-3.107,14.618h-2.019l1.744-8.202l-3.547,8.202h-1.431l-0.111-8.202
			l-1.744,8.202h-2.041l3.107-14.618h2.109L-41.767,27.655z"/>
		<path class="st4" d="M-33.102,17.642h2.108L-34.1,32.259h-2.108L-33.102,17.642z"/>
		<path class="st4" d="M-27.566,17.642l0.499,4.112l2.235-4.112h2.123l-3.98,7.309l0.873,7.308h-2.123l-0.492-4.112l-2.243,4.112
			h-2.124l3.986-7.308l-0.879-7.309H-27.566z"/>
		<path class="st4" d="M-17.569,27.074l-0.417,5.186h-2.13l0.246-3.099h-2.153l-1.074,3.099h-2.124l1.781-5.163l3.501-9.455h2.891
			L-17.569,27.074z M-19.699,27.074l0.484-6.079l-2.094,6.079H-19.699z"/>
	</g>
	<path class="st5" d="M-44.396,16.698h3.937c0,0,18.692-18.404,26.853-4.424C-13.607,12.274-21.691-5.484-44.396,16.698z"/>
	<path class="st4" d="M-17.661,33.302h-3.937c0,0-18.692,18.405-26.852,4.423C-48.45,37.725-40.367,55.485-17.661,33.302z"/>
</g>
<g>
	<path class="st6" d="M160.359,31.297v-0.893h-0.171l-0.253,0.755h-0.003l-0.254-0.755h-0.173v0.893h0.117v-0.528
		c0-0.025-0.002-0.138-0.002-0.22h0.002l0.252,0.748h0.119l0.252-0.752h0.002c0,0.085-0.002,0.198-0.002,0.224v0.528H160.359z"/>
	<rect x="160.49" y="31.163" class="st6" width="0.127" height="0.134"/>
	<path class="st6" d="M161.114,30.913h0.292c0.144,0,0.16,0.086,0.16,0.158c0,0.033,0.003,0.17,0.02,0.225h0.149v-0.022
		c-0.038-0.02-0.044-0.04-0.044-0.089l-0.009-0.162c-0.004-0.123-0.056-0.147-0.107-0.168c0.059-0.032,0.124-0.082,0.124-0.215
		c0-0.187-0.146-0.238-0.293-0.238h-0.414v0.893h0.122V30.913z M161.114,30.508h0.301c0.06,0,0.159,0.01,0.159,0.147
		c0,0.132-0.092,0.155-0.181,0.155h-0.28V30.508z"/>
	<rect x="161.822" y="31.163" class="st6" width="0.131" height="0.134"/>
	<path class="st7" d="M113.951,32.148l0.639-8.057c0.273-3.443,2.541-5.604,5.926-5.604l35.911-0.002
		c2.806,0,4.017-0.279,4.404-0.355c0.387-0.077,1.13-0.278,1.13-0.278l-0.534,7.556c-0.327,5.484-4.899,5.871-5.525,5.871
		c-1.838,0-35.723,0.008-35.723,0.008c-2.073,0-3.84,0.229-5.169,0.561C114.273,32.033,113.951,32.148,113.951,32.148"/>
	<path class="st8" d="M160.249,19.933c-0.954,0.166-2.217,0.139-3.626,0.139h-36.035c-2.575,0-4.219,1.603-4.415,4.146l-0.498,5.837
		c0.987-0.218,2.589-0.376,4.653-0.376h35.485c0.149-0.004,3.606,0.055,4.006-4.22L160.249,19.933z"/>
	<path class="st6" d="M126.201,25.08c0.086-0.482,0.288-0.936,0.737-0.936c0.424,0,0.564,0.533,0.491,0.948L126.201,25.08z
		 M129.159,26.003c0.234-1.392,0.172-2.879-2.221-2.879c-1.84,0-2.72,0.939-2.946,2.519c-0.218,1.524,0.901,2.272,2.354,2.272
		c1.054,0,2.209-0.245,2.209-0.245l0.143-1.121c0,0-1.188,0.27-1.472,0.264c-0.982-0.021-1.261-0.274-1.167-0.81H129.159z"/>
	<path class="st6" d="M129.425,27.776l2.176,0.003l0.266-1.554c0.185-0.792,0.777-1.317,1.37-1.317c0.134,0,0.4,0.037,0.533,0.055
		l0.225-1.792c-0.084-0.009-0.169-0.026-0.255-0.026c-1.113-0.017-1.668,1.146-1.668,1.146l0.071-1.017l-2.012,0.004L129.425,27.776
		z"/>
	<path class="st6" d="M145.268,22.219c-0.035-0.405,0.438-0.775,1.057-0.83c0.618-0.053,1.15,0.229,1.183,0.634
		c0.037,0.403-0.437,0.776-1.054,0.828C145.834,22.906,145.304,22.622,145.268,22.219 M146.596,27.749l0.777-4.594h-2.228
		l-0.777,4.594H146.596z"/>
	<path class="st6" d="M154.878,24.477c0.61-0.074,1.039,0.292,0.959,0.847c-0.103,0.682-0.515,1.058-1.123,1.131
		c-0.611,0.075-0.968-0.258-1.002-0.816C153.676,25.083,154.268,24.552,154.878,24.477 M154.53,27.821
		c-1.395,0.184-2.396-0.644-2.476-2.018c-0.08-1.373,1.08-2.609,2.476-2.793c0.582-0.076,1.112,0.071,1.527,0.346l0.048-0.19h1.554
		l-0.593,4.595h-1.555l0.053-0.423C155.218,27.706,154.902,27.773,154.53,27.821"/>
	<path class="st6" d="M136.227,25.08c0.087-0.482,0.287-0.936,0.739-0.936c0.421,0,0.562,0.533,0.489,0.948L136.227,25.08z
		 M139.187,26.003c0.233-1.392,0.171-2.879-2.22-2.879c-1.842,0-2.721,0.939-2.949,2.519c-0.216,1.524,0.9,2.272,2.354,2.272
		c1.055,0,2.208-0.245,2.208-0.245l0.144-1.121c0,0-1.186,0.27-1.472,0.264c-0.981-0.021-1.261-0.274-1.167-0.81H139.187z"/>
	<path class="st6" d="M124.075,21.778c0.021,0.021-0.039-0.224-1.841-0.224c-1.882,0-3.739,1.27-4.009,3.294
		c-0.204,1.538,0.825,3.047,2.884,3.047c1.642,0,2.086-0.265,2.086-0.265l0.204-1.55c0,0-0.655,0.265-1.739,0.203
		c-1.035-0.058-1.369-0.733-1.288-1.406c0.147-1.207,1.077-1.504,1.779-1.651c0.88-0.184,1.679,0.163,1.679,0.163L124.075,21.778z"
		/>
	<path class="st6" d="M139.536,27.63c0,0,0.819,0.276,1.856,0.276c1.66,0,2.533-0.642,2.719-1.577
		c0.396-2.002-2.416-1.148-2.304-1.778c0.04-0.224,0.328-0.326,0.565-0.318c0.14,0.004,0.355-0.049,0.764,0.013
		c0.409,0.143,0.951,0.118,0.941,0.266l0.184-1.204c0,0-0.894-0.202-1.881-0.202c-0.943,0-2.354,0.36-2.542,1.517
		c-0.302,1.846,2.489,1.121,2.277,1.826c-0.062,0.203-0.359,0.289-0.635,0.305c-1.024,0.062-1.82-0.427-1.82-0.427L139.536,27.63z"
		/>
	<path class="st6" d="M151.482,26.345l-0.469,0.021c-0.503,0-0.545-0.239-0.472-0.654l0.182-1.235h1.046l0.183-1.272h-1.045
		l0.329-1.753l-2.311,0.693l-0.165,1.06h-0.838l-0.183,1.272h0.812l-0.334,1.888c-0.102,1.047,0.729,1.538,1.546,1.488
		c0.818-0.05,1.452-0.244,1.452-0.244L151.482,26.345z"/>
</g>
<g>
	<path class="st1" d="M25.001,16.01c6.782,0,12.945,0.862,17.433,2.274c4.335,1.36,7.567,3.382,7.567,5.99
		c0,2.607-3.231,4.63-7.567,5.992c-4.488,1.41-10.651,2.273-17.433,2.273c-6.783,0-12.946-0.863-17.435-2.273
		C3.232,28.904,0,26.881,0,24.274c0-2.608,3.232-4.63,7.566-5.99C12.055,16.872,18.217,16.01,25.001,16.01"/>
	<path class="st9" d="M49.389,24.338c0-2.73-4.091-4.934-10.581-6.383c-3.994-0.893-8.915-1.345-14.26-1.345
		c-3.622,0-7.093,0.243-10.17,0.724c2.86-0.315,6.145-0.345,9.491-0.192c3.976,0.181,7.551,0.654,10.57,1.382
		c5.854,1.411,9.437,3.739,9.172,6.203c-0.401,3.739-9.697,6.269-21.382,5.734C10.544,29.93,1.139,27.391,1.931,22.818
		c0.097-0.554,0.273-1.11,0.73-1.61c-1.367,1.003-2.063,1.86-2.063,3.196c0,1.589,2.018,3.377,5.565,4.726
		c4.381,1.67,11.025,2.781,18.341,2.781c8.704,0,16.517-1.351,20.989-3.516C47.822,27.265,49.389,25.859,49.389,24.338"/>
	<path class="st10" d="M7.625,25.636c0.372,0,0.544-0.038,0.637-0.091c0.12-0.066,0.207-0.179,0.233-0.316
		c0.031-0.167-0.031-0.298-0.145-0.36c-0.053-0.033-0.199-0.066-0.422-0.066h-0.86c-0.57,0-0.961-0.099-1.203-0.346
		c-0.265-0.281-0.359-0.704-0.275-1.138c0.126-0.648,0.584-1.224,1.173-1.413c0.254-0.087,0.526-0.107,1.069-0.107h2.466
		l-0.217,1.122H7.862c-0.217,0.002-0.335,0.004-0.416,0.009c-0.076,0.004-0.114,0.013-0.184,0.028
		c-0.126,0.031-0.242,0.147-0.281,0.348c-0.034,0.165,0.02,0.267,0.11,0.312c0.097,0.049,0.176,0.063,0.512,0.063h0.75
		c0.693,0,1.099,0.104,1.356,0.434c0.202,0.249,0.258,0.708,0.176,1.13c-0.104,0.543-0.451,1.05-0.908,1.302
		c-0.301,0.169-0.642,0.209-1.331,0.209H5.145l0.219-1.121H7.625z"/>
	<path class="st10" d="M15.141,24.336c-0.311,1.595-1.292,2.45-2.843,2.45c-0.921,0-1.632-0.302-1.925-0.887
		c-0.216-0.421-0.246-0.967-0.121-1.613c0.178-0.91,0.568-1.637,1.152-2.037c0.457-0.318,1.099-0.484,1.795-0.484
		c0.83,0,1.513,0.273,1.8,0.785C15.238,22.961,15.279,23.62,15.141,24.336 M11.636,24.281c-0.204,1.053,0.066,1.431,0.782,1.431
		c0.727,0,1.15-0.402,1.356-1.463c0.202-1.035-0.068-1.405-0.787-1.405c-0.406,0-0.745,0.154-0.954,0.408
		C11.868,23.451,11.732,23.79,11.636,24.281"/>
	<path class="st10" d="M16.784,25.254c0.079,0.247,0.295,0.427,0.734,0.427l-0.218,1.07l-0.194-0.008
		c-0.825-0.064-1.317-0.309-1.594-0.846c-0.208-0.418-0.246-0.97-0.122-1.611c0.178-0.91,0.568-1.636,1.152-2.036
		c0.451-0.321,1.097-0.485,1.775-0.485c0.848,0,1.534,0.266,1.827,0.785c0.221,0.381,0.274,1.089,0.157,1.703
		c-0.104,0.534-0.313,0.984-0.649,1.383h0.652l-0.217,1.122h-1.882l-0.548-0.001l0.203-1.054l0.096-0.015
		c0.611-0.19,0.796-0.61,0.964-1.473c0.083-0.424,0.057-0.776-0.052-1.008c-0.113-0.239-0.338-0.369-0.736-0.369
		c-0.71,0-1.148,0.408-1.341,1.394C16.705,24.668,16.707,25.02,16.784,25.254"/>
	<path class="st10" d="M21.869,25.496c0.121,0.128,0.369,0.226,0.657,0.226c0.429,0,0.75-0.158,0.889-0.371
		c0.063-0.107,0.126-0.285,0.191-0.618l0.572-2.932h1.281l-0.564,2.907c-0.149,0.765-0.405,1.268-0.863,1.6
		c-0.465,0.333-1.018,0.485-1.712,0.485c-0.767,0-1.308-0.172-1.615-0.552c-0.292-0.373-0.325-0.757-0.183-1.487l0.574-2.953h1.282
		l-0.574,2.956C21.719,25.201,21.755,25.367,21.869,25.496"/>
	<polygon class="st10" points="27.198,21.801 26.235,26.758 24.952,26.758 25.916,21.801 	"/>
	<polygon class="st10" points="26.676,26.757 27.641,21.8 29.133,21.8 30.174,24.857 30.769,21.8 32.004,21.8 31.04,26.757 
		29.597,26.757 28.499,23.737 27.911,26.757 	"/>
	<path class="st10" d="M35.417,21.758l1.087,4.955h-1.466l-0.237-1.084h-1.585l-0.659,1.084h-1.49l3.014-4.955H35.417z
		 M34.678,24.509l-0.236-1.103l-0.666,1.103H34.678z"/>
	<path class="st11" d="M2.672,24.225c0.186-3.44,8.897-5.461,18.931-5.461c8.804,0,18.295,2.77,18.295,6.041
		c0,1.37-2.64,3.55-5.362,4.596c5.141-1.102,8.263-2.924,8.263-4.909c0-2.23-3.265-4.11-8.29-5.385
		c-3.285-0.835-7.35-1.341-11.813-1.466c-4.36-0.121-8.318,0.263-11.575,0.898c-5.203,1.005-8.536,2.893-8.614,4.792
		C2.494,23.629,2.55,23.928,2.672,24.225"/>
	<path class="st10" d="M36.707,26.236c0-0.226,0.171-0.396,0.389-0.396c0.216,0,0.385,0.169,0.385,0.396
		c0,0.229-0.169,0.399-0.385,0.399C36.878,26.635,36.707,26.465,36.707,26.236 M37.096,26.713c0.26,0,0.481-0.201,0.481-0.477
		c0-0.273-0.221-0.475-0.481-0.475c-0.261,0-0.484,0.202-0.484,0.475C36.611,26.512,36.834,26.713,37.096,26.713"/>
	<path class="st10" d="M36.995,26.203v-0.17h0.113c0.058,0,0.118,0.014,0.118,0.081c0,0.084-0.062,0.089-0.133,0.089H36.995z
		 M36.995,26.274h0.095l0.144,0.238h0.093l-0.156-0.242c0.081-0.011,0.143-0.053,0.143-0.152c0-0.109-0.064-0.157-0.193-0.157
		h-0.208v0.55h0.083V26.274z"/>
</g>
<g>
	<rect x="65.759" y="9.431" class="st12" width="31.138" height="31.137"/>
	<polygon class="st13" points="75.971,38.111 73.847,40.235 76.384,40.235 78.508,38.111 	"/>
	<polygon class="st13" points="81.065,38.111 78.941,40.235 81.478,40.235 83.602,38.111 	"/>
	<polygon class="st13" points="86.159,38.111 84.035,40.235 86.572,40.235 88.697,38.111 	"/>
	<path class="st13" d="M83.546,33.073l4.665-4.665c-1.01,0.314-2.106,0.559-3.264,0.727l-3.938,3.938H83.546z"/>
	<path class="st13" d="M78.451,33.073l3.696-3.696c-0.258,0.008-0.517,0.012-0.779,0.012c-0.581,0-1.151-0.021-1.712-0.059
		l-3.742,3.742H78.451z"/>
	<polygon class="st13" points="70.876,38.111 68.752,40.235 71.29,40.235 73.414,38.111 	"/>
	<polygon class="st13" points="96.563,40.235 96.563,37.895 94.224,40.235 	"/>
	<path class="st13" d="M94.725,21.893l1.838-1.838v-2.537l-2.557,2.557C94.394,20.651,94.64,21.261,94.725,21.893"/>
	<polygon class="st13" points="91.253,38.111 89.129,40.235 91.667,40.235 93.791,38.111 	"/>
	<polygon class="st13" points="88.64,33.073 96.563,25.15 96.563,22.613 86.103,33.073 	"/>
	<path class="st13" d="M91.291,17.696c0.558,0.321,1.059,0.67,1.496,1.041l3.776-3.776v-2.537L91.291,17.696z"/>
	<polygon class="st13" points="94.02,37.881 96.563,35.338 96.563,32.801 94.02,35.344 	"/>
	<polygon class="st13" points="93.734,33.073 96.563,30.244 96.563,27.707 91.198,33.073 	"/>
	<path class="st12" d="M67.974,22.394c0-3.862,5.997-6.995,13.395-6.995c7.397,0,13.395,3.133,13.395,6.995
		c0,3.866-5.997,6.995-13.395,6.995C73.971,29.389,67.974,26.26,67.974,22.394"/>
	<path class="st13" d="M77.227,24.518c0,0.48-0.378,0.785-1.133,0.915c-0.143,0.028-0.334,0.048-0.572,0.062
		c-0.238,0.014-0.452,0.02-0.799,0.02c-0.748,0-1.183-0.02-1.462-0.062c-0.861-0.123-1.291-0.411-1.291-0.864V23.5h1.778v0.916
		c0,0.199,0.264,0.299,0.952,0.299c0.295,0,0.419-0.017,0.533-0.051c0.143-0.035,0.215-0.12,0.215-0.257V22.69
		c0-0.37-2.252-0.644-2.719-0.887c-0.467-0.243-0.759-0.757-0.759-1.285v-1.686c0-0.492,0.958-1.04,1.447-1.04
		c0.348,0,0.762-0.02,1.216-0.02c1.691,0,2.458,0.26,2.458,0.781v1.08h-1.778v-0.608c0-0.137-0.011-0.222-0.034-0.257
		c-0.106-0.137-0.313-0.206-0.781-0.206c-0.476,0-0.684,0.068-0.748,0.193v1.541c0,0.368,2.326,0.793,2.991,1.119
		c0.299,0.147,0.487,0.494,0.487,0.843V24.518z"/>
	<path class="st13" d="M79.634,19.749h-1.693v-1.504h1.693V19.749z M79.634,25.428h-1.682v-4.99h1.682V25.428z"/>
	<path class="st13" d="M85.517,24.572c0,0.447-0.36,0.733-1.082,0.856c-0.3,0.059-0.831,0.087-1.438,0.087
		c-0.379,0-0.633-0.01-0.918-0.029v1.799h-1.682v-5.953c0-0.564,0.786-0.846,2.515-0.846c1.685,0,2.606,0.259,2.606,0.778V24.572z
		 M83.835,21.66c0-0.136-0.011-0.224-0.032-0.262v0.009c-0.1-0.103-0.438-0.155-0.859-0.155c-0.508,0-0.733,0.045-0.833,0.136
		c-0.022,0.019-0.032,0.114-0.032,0.282v2.798c0,0.188,0.247,0.282,0.897,0.282c0.279,0,0.549-0.016,0.657-0.049
		c0.135-0.032,0.203-0.113,0.203-0.243V21.66z"/>
	<path class="st13" d="M91.17,25.193c0,0-0.274,0.104-0.697,0.189c-0.301,0.061-0.928,0.134-1.828,0.134
		c-1.672,0-2.429-0.24-2.429-0.72v-1.644c0-0.474,0.676-0.71,2.183-0.71h1.079v-0.937c0-0.182-0.248-0.272-0.897-0.272
		c-0.272,0-0.39,0.016-0.512,0.049c-0.128,0.039-0.193,0.117-0.193,0.234v0.402h-1.682V21.43c0-0.447,0.357-0.733,1.072-0.856
		c0.3-0.059,0.676-0.087,1.283-0.087c0.707,0,1.118,0.019,1.391,0.058c0.814,0.117,1.231,0.389,1.231,0.818V25.193z M89.478,23.197
		h-0.876c-0.401,0-0.572,0.045-0.673,0.136v-0.01c-0.021,0.033-0.032,0.101-0.032,0.204v0.902c0,0.111,0.011,0.178,0.032,0.204
		v-0.01c0.114,0.091,0.287,0.137,0.673,0.137c0.499,0,0.729-0.045,0.843-0.137c0.022-0.026,0.032-0.12,0.032-0.282V23.197z"/>
	<path class="st14" d="M68.637,33.073h4.619l4.018-4.018c-5.394-0.903-9.3-3.542-9.3-6.661c0-3.862,5.998-6.995,13.395-6.995
		c3.056,0,5.871,0.535,8.125,1.435l7.07-7.07h-30.47v30.47l2.543-2.543V33.073z"/>
	<rect x="68.636" y="33.073" class="st1" width="25.383" height="5.038"/>
	<path class="st15" d="M71.699,34.566c-0.164-0.096-0.407-0.145-0.722-0.145h-0.86v2.323h0.553v-1.004h0.307
		c0.316,0,0.559-0.047,0.723-0.141c0.144-0.087,0.217-0.202,0.217-0.342v-0.352C71.917,34.764,71.844,34.65,71.699,34.566
		 M70.669,34.731h0.305c0.082,0,0.154,0.018,0.214,0.055c0.055,0.033,0.081,0.071,0.081,0.116v0.355c0,0.048-0.026,0.087-0.08,0.118
		c-0.06,0.035-0.132,0.053-0.214,0.053h-0.305V34.731z"/>
	<path class="st15" d="M73.303,34.421v1.858c0,0.044-0.027,0.081-0.082,0.112c-0.061,0.035-0.134,0.053-0.216,0.053
		c-0.081,0-0.151-0.017-0.207-0.052c-0.051-0.032-0.076-0.068-0.076-0.113v-1.858h-0.647v1.858c0,0.14,0.073,0.255,0.217,0.339
		c0.16,0.096,0.402,0.145,0.718,0.145c0.316,0,0.558-0.049,0.722-0.145c0.144-0.084,0.218-0.199,0.218-0.339v-1.858H73.303z"/>
	<path class="st15" d="M76.019,35.256v-0.352c0-0.14-0.074-0.255-0.218-0.339c-0.164-0.096-0.407-0.145-0.722-0.145h-0.861v2.323
		h0.554v-1.004h0.309c0.083,0.003,0.154,0.022,0.212,0.057c0.053,0.031,0.078,0.068,0.078,0.113v0.835h0.648v-0.835
		c0-0.135-0.066-0.244-0.197-0.325C75.952,35.5,76.019,35.391,76.019,35.256 M74.772,34.731h0.305c0.082,0,0.154,0.018,0.214,0.055
		c0.055,0.033,0.081,0.071,0.081,0.116v0.355c0,0.045-0.026,0.084-0.078,0.117c-0.059,0.036-0.13,0.055-0.211,0.055h-0.31V34.731z"
		/>
	<path class="st15" d="M77.944,34.566c-0.164-0.096-0.407-0.145-0.722-0.145c-0.316,0-0.558,0.049-0.718,0.145
		c-0.144,0.084-0.217,0.199-0.217,0.339v1.858h0.647V35.77h0.58v0.993h0.648v-1.858C78.162,34.764,78.088,34.65,77.944,34.566
		 M76.934,34.902c0-0.048,0.025-0.087,0.076-0.118c0.057-0.035,0.126-0.053,0.209-0.053c0.082,0,0.154,0.018,0.214,0.055
		c0.055,0.033,0.081,0.07,0.081,0.116v0.497h-0.58V34.902z"/>
	<path class="st15" d="M80.779,34.566c-0.164-0.096-0.407-0.145-0.722-0.145h-0.86v2.323h0.553v-1.004h0.307
		c0.316,0,0.559-0.047,0.723-0.141c0.144-0.087,0.217-0.202,0.217-0.342v-0.352C80.997,34.764,80.924,34.65,80.779,34.566
		 M79.75,34.731h0.305c0.082,0,0.154,0.018,0.214,0.055c0.055,0.033,0.081,0.071,0.081,0.116v0.355c0,0.048-0.026,0.087-0.08,0.118
		c-0.06,0.035-0.132,0.053-0.214,0.053H79.75V34.731z"/>
	<rect x="81.155" y="34.421" class="st15" width="0.553" height="2.323"/>
	<polygon class="st15" points="83.407,34.421 83.407,35.812 82.534,34.439 82.523,34.421 81.987,34.421 81.987,36.743 
		82.541,36.743 82.541,35.36 83.408,36.725 83.42,36.743 83.96,36.743 83.96,34.421 	"/>
	<polygon class="st15" points="84.164,34.421 84.164,34.793 84.961,34.793 84.961,36.743 85.515,36.743 85.515,34.793 
		86.311,34.793 86.311,34.421 	"/>
	<path class="st15" d="M87.682,34.421v1.858c0,0.044-0.027,0.081-0.082,0.112c-0.061,0.035-0.134,0.053-0.216,0.053
		c-0.081,0-0.151-0.017-0.207-0.052c-0.051-0.032-0.076-0.068-0.076-0.113v-1.858h-0.647v1.858c0,0.14,0.073,0.255,0.217,0.339
		c0.16,0.096,0.402,0.145,0.718,0.145c0.316,0,0.558-0.049,0.722-0.145c0.144-0.084,0.218-0.199,0.218-0.339v-1.858H87.682z"/>
	<path class="st15" d="M90.399,35.256v-0.352c0-0.14-0.074-0.255-0.218-0.339c-0.164-0.096-0.407-0.145-0.722-0.145h-0.861v2.323
		h0.554v-1.004h0.309c0.083,0.003,0.154,0.022,0.212,0.057c0.053,0.031,0.078,0.068,0.078,0.113v0.835h0.648v-0.835
		c0-0.135-0.066-0.244-0.197-0.325C90.332,35.5,90.399,35.391,90.399,35.256 M89.151,34.731h0.305c0.082,0,0.154,0.018,0.214,0.055
		c0.055,0.033,0.081,0.071,0.081,0.116v0.355c0,0.045-0.026,0.084-0.078,0.117c-0.059,0.036-0.13,0.055-0.211,0.055h-0.31V34.731z"
		/>
	<path class="st15" d="M92.323,34.566c-0.164-0.096-0.407-0.145-0.722-0.145s-0.558,0.049-0.718,0.145
		c-0.144,0.084-0.217,0.199-0.217,0.339v1.858h0.647V35.77h0.58v0.993h0.648v-1.858C92.541,34.764,92.468,34.65,92.323,34.566
		 M91.314,34.902c0-0.048,0.025-0.087,0.076-0.118c0.057-0.035,0.126-0.053,0.209-0.053c0.082,0,0.154,0.018,0.214,0.055
		c0.055,0.033,0.081,0.07,0.081,0.116v0.497h-0.58V34.902z"/>
</g>
</svg>
