<?xml version="1.0" encoding="utf-8"?>
<!-- Generator: Adobe Illustrator 24.0.3, SVG Export Plug-In . SVG Version: 6.00 Build 0)  -->
<svg version="1.1" id="Capa_1" xmlns="http://www.w3.org/2000/svg" xmlns:xlink="http://www.w3.org/1999/xlink" x="0px" y="0px"
	 width="50px" height="50px" viewBox="0 0 50 50" style="enable-background:new 0 0 50 50;" xml:space="preserve">
<style type="text/css">
	.st0{fill:#FFFFFF;}
	.st1{fill:#FFB406;}
	.st2{fill:#DC2015;}
	.st3{fill:none;stroke:#FFFFFF;stroke-width:0.5644;stroke-miterlimit:3.864;}
	.st4{fill-rule:evenodd;clip-rule:evenodd;fill:#FEFEFE;}
	.st5{fill:#FABA01;}
	.st6{fill:#003772;}
	.st7{fill:#002F87;}
	.st8{fill-rule:evenodd;clip-rule:evenodd;fill:#002F87;}
	.st9{fill:#FF5100;}
	.st10{fill-rule:evenodd;clip-rule:evenodd;fill:#FFFFFF;}
	.st11{fill:#C10000;}
	.st12{fill-rule:evenodd;clip-rule:evenodd;fill:#001F82;}
	.st13{fill:#001F82;}
	.st14{fill-rule:evenodd;clip-rule:evenodd;fill:#E1251B;}
	.st15{fill:#E1251B;}
</style>
<rect x="-168.985" y="72.574" class="st0" width="700" height="367.223"/>
<g>
	<g>
		<path class="st1" d="M-142.59-95.528v9.674h-26.394v-40.485h25.905v9.641h-14.801v5.961h13.297v9.148h-13.297v6.06H-142.59z"/>
		<path class="st1" d="M-104.704-126.338v40.485h-9.224l-16.083-21.97v21.97h-10.808v-40.485h9.762l15.546,21.24v-21.24H-104.704z"
			/>
	</g>
	<g>
		<path class="st1" d="M-147.616-233.911v9.581h19.343v14.514h-19.343v21.094h-16.73v-60.195h38.309v15.005H-147.616z"/>
		<path class="st1" d="M-85.181-203.105v14.384h-39.245v-60.195h38.517v14.335h-22.006v8.863h19.771v13.603h-19.771v9.011H-85.181z"
			/>
		<path class="st1" d="M-44.324-203.907v15.186H-82.55v-60.195h16.803v45.008H-44.324z"/>
		<path class="st1" d="M-42.8-248.915h16.803v60.195H-42.8V-248.915z"/>
		<path class="st1" d="M22.604-204.162v15.442h-47.658v-3.45l22.302-41.303h-20.841v-15.442h45.164v3.748l-22.187,41.006H22.604z"/>
	</g>
	<g>
		<path class="st1" d="M73.1-188.676l-3.254-24.015l-11.059,24.083h-3.394l-11.054-24.074l-3.208,24.005H29.489l6.307-41.7h11.472
			l9.82,22.69l9.884-22.69h11.472l6.248,41.7H73.1z"/>
		<path class="st1" d="M112.782-198.64v9.965H85.595v-41.7h26.683v9.93H97.033v6.14h13.696v9.423H97.033v6.242H112.782z"/>
	</g>
	<g>
		<path class="st1" d="M-103.03-123.309l-6.327-7.789c-3.265,1.023-6.831,1.569-10.628,1.569c-18.056,0-30.94-12.338-30.94-29.504
			s12.884-29.503,30.94-29.503c18.01,0,30.848,12.291,30.848,29.503c0,8.83-3.379,16.365-9.101,21.609l11.657,14.113H-103.03z
			 M-119.985-143.928c8.549,0,14.738-6.314,14.738-15.104c0-8.789-6.188-15.104-14.738-15.104c-8.548,0-14.829,6.36-14.829,15.104
			C-134.814-150.288-128.533-143.928-119.985-143.928z"/>
		<path class="st1" d="M-88.166-152.676v-34.439h15.814v34.15c0,5.49,3.538,9.037,8.705,9.037c5.166,0,8.704-3.547,8.704-9.037
			v-34.15h15.814v34.439c0,13.818-10.2,23.148-24.518,23.148C-77.966-129.528-88.166-138.857-88.166-152.676z"/>
		<path class="st1" d="M1.361-144.37v13.422h-36.618v-56.166H0.682v13.375h-20.534v8.269h18.448v12.692h-18.448v8.408H1.361z"/>
		<path class="st1" d="M55.544-159.077c0,16.39-12.036,28.129-28.995,28.129H3.816v-56.166h22.732
			C43.554-187.115,55.544-175.49,55.544-159.077z M39.681-159.077c0-8.333-5.544-13.867-13.861-13.867h-6.461v27.825h6.461
			C34.137-145.118,39.681-150.791,39.681-159.077z"/>
		<path class="st1" d="M85.177-129.527c-18.056,0-30.94-12.338-30.94-29.504s12.885-29.504,30.94-29.504
			c18.009,0,30.847,12.291,30.847,29.504C116.024-141.819,103.186-129.528,85.177-129.527L85.177-129.527z M85.177-143.925
			c8.549,0,14.737-6.315,14.737-15.104c0-8.79-6.188-15.105-14.737-15.105c-8.549,0-14.829,6.36-14.829,15.104
			s6.28,15.104,14.829,15.104V-143.925z"/>
	</g>
	<g>
		<path class="st1" d="M-66.694-62.993c-19.369,0-33.834-14.339-33.834-33.374c0-19.14,14.465-33.48,33.834-33.48
			c16.677,0,29.594,11.008,32.18,27.143h-17.762c-2.185-6.526-7.683-10.763-14.38-10.763c-9.011,0-15.62,7.245-15.62,17.099
			c0,9.815,6.609,16.956,15.62,16.956c7.061,0,12.612-4.601,14.395-11.673h17.931C-36.751-74.352-49.745-62.994-66.694-62.993
			L-66.694-62.993z"/>
		<path class="st1" d="M2.935-74.939h-22.556l-3.525,10.335h-18.787l24.997-63.635H0.201l25.545,63.635H6.441L2.935-74.939z
			 M-8.379-108.376l-6.973,19.719h14.008L-8.379-108.376z"/>
		<path class="st1" d="M18.868-85.151h18.085c0,4.545,3.507,6.758,7.505,6.758c3.672,0,7.179-1.954,7.179-5.43
			c0-3.992-4.954-5.149-11.011-6.617c-9.198-2.286-20.94-5.105-20.94-19.592c0-12.532,9.207-19.71,24.212-19.71
			c15.257,0,24.005,7.832,24.005,20.778H50.322c0-4.025-3-5.912-6.633-5.912c-3.124,0-6.124,1.353-6.124,4.323
			c0,3.615,4.796,4.81,10.788,6.316c9.366,2.417,21.613,5.545,21.613,20.077c0,13.898-10.68,21.112-25.457,21.112
			C28.934-63.047,18.868-71.281,18.868-85.151z"/>
		<path class="st1" d="M108.204-74.939H85.648l-3.525,10.335H63.337l24.997-63.635h17.137l25.545,63.635h-19.305L108.204-74.939z
			 M96.891-108.376l-6.973,19.719h14.008L96.891-108.376z"/>
	</g>
</g>
<g>
	<g>
		<g>
			<g>
				<rect x="-168.985" y="-50.221" class="st0" width="100" height="37.25"/>
				<rect x="-167.531" y="-48.768" class="st2" width="97.191" height="24.908"/>
				<polygon class="st0" points="-143.095,-46.023 -147.32,-26.995 -137.842,-26.995 -136.434,-37.455 -132.272,-26.995 
					-126.572,-26.995 -122.282,-37.519 -120.872,-26.995 -111.524,-26.995 -116.072,-46.023 -125.677,-46.023 -129.456,-36.112 
					-133.039,-46.023 				"/>
				<polygon class="st0" points="-113.783,-46.023 -93.492,-46.023 -93.492,-39.748 -98.776,-39.748 -98.776,-26.995 
					-108.5,-26.995 -108.5,-39.748 -113.783,-39.748 				"/>
				<polygon class="st0" points="-158.839,-34.131 -165.386,-34.131 -165.386,-38.861 -164.614,-38.861 -164.614,-34.997 
					-162.607,-34.997 -162.607,-38.616 -161.839,-38.616 -161.839,-34.997 -159.611,-34.997 -159.611,-39.014 -158.839,-39.014 				
					"/>
				<g>
					<path class="st0" d="M-71.552-25.985c0,0.176-0.112,0.257-0.272,0.257h-0.47v-0.516h0.47
						C-71.661-26.244-71.552-26.152-71.552-25.985 M-71.308-25.992c0-0.331-0.236-0.48-0.516-0.48h-0.707v1.609h0.238V-25.5h0.363
						l0.319,0.637h0.277l-0.328-0.657C-71.443-25.575-71.308-25.734-71.308-25.992"/>
					<circle class="st3" cx="-72.048" cy="-25.677" r="1.204"/>
					<path class="st0" d="M-93.628-28.551c2.356,0.729,5.63,1.298,5.63,1.298c1.976,0.325,2.434,0.403,5.602,0.35
						c3.167-0.054,6.059-1.324,6.059-1.324c3.084-1.268,3.763-3.403,3.763-3.403c1.301-2.46-0.27-4.596-0.27-4.596
						c-1.109-1.647-4.059-2.405-4.059-2.405c-0.782-0.432-5.198-0.89-5.198-0.89C-83.509-39.63-83.1-40.44-83.1-40.44
						c0.054-0.974,2.787-0.783,2.974-0.783c1.379,0,4.438,1.432,4.438,1.432l2.68-4.997c-2.542-1.379-7.062-1.595-7.062-1.595
						c-3.844-0.403-7.468,0.998-7.468,0.998c-5.438,1.756-5.168,5.918-5.168,5.918c-0.065,1.222,0.642,2.803,2.083,3.675
						c2.189,1.321,5.471,1.647,5.601,1.647c1.65,0,2.463,0.379,2.463,0.379c1.245,0.379,0.325,1.324,0.325,1.324
						c-0.674,0.378-1.92,0.432-1.92,0.432c-3.191,0.218-6.684-2.026-6.684-2.026L-93.628-28.551z"/>
					<path class="st0" d="M-162.496-28.048v-1.86c0-0.395-0.042-0.704-0.121-0.928c-0.084-0.224-0.215-0.393-0.393-0.509
						c-0.182-0.115-0.378-0.173-0.588-0.173c-0.31,0-0.565,0.112-0.765,0.338c-0.199,0.224-0.298,0.578-0.298,1.063v2.07H-162.496z
						 M-158.839-27.182h-6.548v-2.9c0-0.583,0.06-1.026,0.18-1.331c0.115-0.303,0.323-0.546,0.619-0.728
						c0.298-0.182,0.627-0.271,0.989-0.271c0.463,0,0.856,0.15,1.173,0.45c0.32,0.3,0.523,0.765,0.609,1.392
						c0.11-0.229,0.219-0.402,0.326-0.522c0.231-0.252,0.521-0.491,0.871-0.718l1.781-1.137v1.088l-1.362,0.866
						c-0.393,0.254-0.693,0.462-0.901,0.626c-0.21,0.164-0.355,0.309-0.438,0.44c-0.085,0.128-0.142,0.259-0.174,0.393
						c-0.022,0.099-0.031,0.259-0.031,0.483v1.003h2.907V-27.182z"/>
					<path class="st0" d="M-159.611-41.421v-1.396c0-0.431-0.041-0.769-0.121-1.012c-0.08-0.247-0.193-0.444-0.339-0.588
						c-0.206-0.207-0.481-0.366-0.826-0.478c-0.348-0.117-0.769-0.175-1.263-0.175c-0.685,0-1.211,0.114-1.578,0.339
						c-0.369,0.224-0.616,0.495-0.74,0.817c-0.089,0.232-0.134,0.605-0.134,1.119v1.375H-159.611z M-158.839-40.555h-6.548v-2.252
						c0-0.509,0.031-0.898,0.094-1.166c0.087-0.375,0.243-0.694,0.469-0.959c0.292-0.345,0.666-0.602,1.12-0.772
						c0.453-0.173,0.97-0.258,1.554-0.259c0.498,0,0.938,0.058,1.322,0.175c0.385,0.115,0.704,0.265,0.955,0.445
						c0.251,0.182,0.449,0.381,0.594,0.597c0.143,0.215,0.253,0.475,0.325,0.782c0.076,0.303,0.112,0.653,0.112,1.048V-40.555z"/>
					<polygon points="-165.386,-21.997 -161.171,-21.997 -161.171,-20.717 -163.821,-20.717 -163.821,-19.141 -161.345,-19.141 
						-161.345,-17.873 -163.821,-17.873 -163.821,-15.099 -165.386,-15.099 					"/>
					<path d="M-159.114-17.106c0.051,0.646,0.685,0.952,1.412,0.952c0.532,0,0.962-0.072,1.382-0.205l0.205,1.054
						c-0.511,0.205-1.136,0.307-1.811,0.307c-1.699,0-2.671-0.982-2.671-2.548c0-1.269,0.787-2.671,2.526-2.671
						c1.617,0,2.231,1.258,2.231,2.497c0,0.266-0.03,0.501-0.051,0.613H-159.114z M-157.282-18.17c0-0.378-0.164-1.013-0.88-1.013
						c-0.655,0-0.921,0.594-0.962,1.013H-157.282z"/>
					<path d="M-154.908-18.456c0-0.737-0.021-1.218-0.042-1.648h1.34l0.052,0.921h0.041c0.256-0.726,0.87-1.033,1.35-1.033
						c0.143,0,0.216,0,0.328,0.021v1.463c-0.112-0.02-0.245-0.04-0.42-0.04c-0.573,0-0.961,0.307-1.064,0.787
						c-0.02,0.102-0.03,0.225-0.03,0.348v2.537h-1.555V-18.456z"/>
					<path d="M-151.02-18.456c0-0.737-0.021-1.218-0.041-1.648h1.34l0.052,0.921h0.04c0.257-0.726,0.87-1.033,1.351-1.033
						c0.143,0,0.215,0,0.328,0.021v1.463c-0.112-0.02-0.246-0.04-0.419-0.04c-0.573,0-0.962,0.307-1.064,0.787
						c-0.021,0.102-0.03,0.225-0.03,0.348v2.537h-1.556V-18.456z"/>
					<path d="M-146.017-17.106c0.051,0.646,0.685,0.952,1.412,0.952c0.532,0,0.961-0.072,1.381-0.205l0.205,1.054
						c-0.512,0.205-1.137,0.307-1.811,0.307c-1.698,0-2.67-0.982-2.67-2.548c0-1.269,0.787-2.671,2.526-2.671
						c1.617,0,2.23,1.258,2.23,2.497c0,0.266-0.031,0.501-0.051,0.613H-146.017z M-144.185-18.17c0-0.378-0.164-1.013-0.88-1.013
						c-0.655,0-0.921,0.594-0.962,1.013H-144.185z"/>
					<path d="M-140.071-21.536v1.432h1.115v1.147h-1.115v1.811c0,0.604,0.143,0.88,0.613,0.88c0.194,0,0.348-0.021,0.461-0.041
						l0.01,1.177c-0.204,0.082-0.572,0.134-1.012,0.134c-0.501,0-0.921-0.174-1.166-0.43c-0.287-0.296-0.431-0.778-0.431-1.483
						v-2.046h-0.665v-1.147h0.665v-1.084L-140.071-21.536z"/>
					<path d="M-136.91-17.106c0.051,0.646,0.685,0.952,1.412,0.952c0.532,0,0.962-0.072,1.382-0.205l0.205,1.054
						c-0.512,0.205-1.136,0.307-1.811,0.307c-1.699,0-2.671-0.982-2.671-2.548c0-1.269,0.788-2.671,2.528-2.671
						c1.617,0,2.23,1.258,2.23,2.497c0,0.266-0.031,0.501-0.052,0.613H-136.91z M-135.079-18.17c0-0.378-0.164-1.013-0.88-1.013
						c-0.655,0-0.921,0.594-0.962,1.013H-135.079z"/>
					<path d="M-132.705-18.456c0-0.737-0.021-1.218-0.041-1.648h1.34l0.051,0.921h0.041c0.256-0.726,0.87-1.033,1.35-1.033
						c0.143,0,0.215,0,0.328,0.021v1.463c-0.113-0.02-0.245-0.04-0.419-0.04c-0.573,0-0.961,0.307-1.064,0.787
						c-0.021,0.102-0.03,0.225-0.03,0.348v2.537h-1.556V-18.456z"/>
					<path d="M-123.956-17.658c0,1.831-1.299,2.671-2.639,2.671c-1.463,0-2.589-0.962-2.589-2.579s1.064-2.65,2.671-2.65
						C-124.98-20.216-123.956-19.162-123.956-17.658 M-127.579-17.607c0,0.86,0.359,1.504,1.024,1.504
						c0.603,0,0.993-0.604,0.993-1.504c0-0.747-0.287-1.504-0.993-1.504C-127.302-19.111-127.579-18.344-127.579-17.607"/>
					<path d="M-123.005-16.46c0.287,0.173,0.881,0.377,1.341,0.377c0.47,0,0.666-0.163,0.666-0.419c0-0.255-0.153-0.378-0.737-0.573
						c-1.034-0.348-1.432-0.911-1.423-1.504c0-0.931,0.799-1.637,2.037-1.637c0.583,0,1.105,0.133,1.412,0.286l-0.276,1.074
						c-0.225-0.122-0.655-0.285-1.085-0.285c-0.378,0-0.593,0.153-0.593,0.408c0,0.236,0.195,0.359,0.808,0.574
						c0.952,0.327,1.351,0.808,1.36,1.544c0,0.931-0.737,1.617-2.169,1.617c-0.655,0-1.238-0.143-1.617-0.348L-123.005-16.46z"/>
					<path d="M-111.637-22.364v5.77c0,0.563,0.021,1.157,0.042,1.494h-1.382l-0.072-0.736h-0.021
						c-0.317,0.563-0.92,0.849-1.566,0.849c-1.186,0-2.138-1.013-2.138-2.568c-0.011-1.689,1.044-2.661,2.24-2.661
						c0.614,0,1.095,0.215,1.32,0.563h0.021v-2.711H-111.637z M-113.191-17.986c0-0.082-0.01-0.194-0.021-0.276
						c-0.091-0.42-0.43-0.768-0.91-0.768c-0.706,0-1.075,0.635-1.075,1.423c0,0.849,0.419,1.381,1.064,1.381
						c0.45,0,0.808-0.307,0.9-0.747c0.031-0.113,0.041-0.226,0.041-0.359V-17.986z"/>
					<path d="M-109.191-17.106c0.052,0.646,0.686,0.952,1.412,0.952c0.532,0,0.962-0.072,1.382-0.205l0.204,1.054
						c-0.511,0.205-1.136,0.307-1.811,0.307c-1.699,0-2.671-0.982-2.671-2.548c0-1.269,0.787-2.671,2.527-2.671
						c1.617,0,2.23,1.258,2.23,2.497c0,0.266-0.03,0.501-0.051,0.613H-109.191z M-107.36-18.17c0-0.378-0.163-1.013-0.879-1.013
						c-0.655,0-0.921,0.594-0.962,1.013H-107.36z"/>
					<path d="M-101.762-20.104l0.676,2.324c0.122,0.419,0.214,0.818,0.286,1.217h0.031c0.082-0.409,0.164-0.787,0.276-1.217
						l0.645-2.324h1.637l-1.863,5.004h-1.555l-1.822-5.004H-101.762z"/>
					<path d="M-96.452-17.106c0.051,0.646,0.686,0.952,1.412,0.952c0.533,0,0.962-0.072,1.381-0.205l0.205,1.054
						c-0.511,0.205-1.136,0.307-1.811,0.307c-1.698,0-2.67-0.982-2.67-2.548c0-1.269,0.787-2.671,2.527-2.671
						c1.617,0,2.231,1.258,2.231,2.497c0,0.266-0.031,0.501-0.052,0.613H-96.452z M-94.621-18.17c0-0.378-0.164-1.013-0.88-1.013
						c-0.654,0-0.921,0.594-0.961,1.013H-94.621z"/>
					<path d="M-92.247-18.456c0-0.737-0.02-1.218-0.041-1.648h1.34l0.052,0.921h0.041c0.256-0.726,0.87-1.033,1.351-1.033
						c0.143,0,0.215,0,0.328,0.021v1.463c-0.112-0.02-0.246-0.04-0.42-0.04c-0.573,0-0.962,0.307-1.064,0.787
						c-0.02,0.102-0.03,0.225-0.03,0.348v2.537h-1.556V-18.456z"/>
					<path d="M-83.59-22.364v5.77c0,0.563,0.02,1.157,0.041,1.494h-1.382l-0.072-0.736h-0.021c-0.317,0.563-0.92,0.849-1.565,0.849
						c-1.187,0-2.138-1.013-2.138-2.568c-0.01-1.689,1.044-2.661,2.241-2.661c0.614,0,1.094,0.215,1.319,0.563h0.021v-2.711H-83.59z
						 M-85.145-17.986c0-0.082-0.01-0.194-0.021-0.276c-0.092-0.42-0.429-0.768-0.911-0.768c-0.705,0-1.074,0.635-1.074,1.423
						c0,0.849,0.419,1.381,1.064,1.381c0.45,0,0.808-0.307,0.9-0.747c0.031-0.113,0.041-0.226,0.041-0.359V-17.986z"/>
					<path d="M-79.498-15.1l-0.091-0.501h-0.031c-0.327,0.4-0.839,0.614-1.433,0.614c-1.012,0-1.616-0.736-1.616-1.534
						c0-1.3,1.166-1.923,2.936-1.913v-0.072c0-0.266-0.143-0.645-0.911-0.645c-0.511,0-1.054,0.174-1.381,0.379l-0.287-1.003
						c0.348-0.195,1.033-0.441,1.944-0.441c1.668,0,2.2,0.982,2.2,2.16v1.739c0,0.481,0.02,0.941,0.072,1.218H-79.498z
						 M-79.681-17.463c-0.819-0.01-1.452,0.184-1.452,0.788c0,0.399,0.266,0.593,0.614,0.593c0.389,0,0.706-0.255,0.808-0.572
						c0.021-0.082,0.031-0.175,0.031-0.266V-17.463z"/>
					<path d="M-72.089-22.364v5.77c0,0.563,0.019,1.157,0.041,1.494h-1.381l-0.073-0.736h-0.02c-0.317,0.563-0.92,0.849-1.565,0.849
						c-1.187,0-2.138-1.013-2.138-2.568c-0.01-1.689,1.044-2.661,2.24-2.661c0.614,0,1.095,0.215,1.319,0.563h0.021v-2.711H-72.089z
						 M-73.644-17.986c0-0.082-0.01-0.194-0.021-0.276c-0.092-0.42-0.429-0.768-0.91-0.768c-0.706,0-1.075,0.635-1.075,1.423
						c0,0.849,0.419,1.381,1.064,1.381c0.45,0,0.808-0.307,0.901-0.747c0.03-0.113,0.04-0.226,0.04-0.359V-17.986z"/>
				</g>
			</g>
		</g>
	</g>
</g>
<g>
	<path class="st4" d="M47.403,31.297v-0.893h-0.171l-0.253,0.755h-0.003l-0.254-0.755h-0.173v0.893h0.117v-0.528
		c0-0.025-0.002-0.138-0.002-0.22h0.002l0.252,0.748h0.119l0.252-0.752h0.002c0,0.085-0.002,0.198-0.002,0.224v0.528H47.403z"/>
	<rect x="47.534" y="31.163" class="st4" width="0.127" height="0.134"/>
	<path class="st4" d="M48.158,30.913h0.292c0.144,0,0.16,0.086,0.16,0.158c0,0.033,0.003,0.17,0.02,0.225h0.149v-0.022
		c-0.038-0.02-0.044-0.04-0.044-0.089l-0.009-0.162c-0.004-0.123-0.056-0.147-0.107-0.168c0.059-0.032,0.124-0.082,0.124-0.215
		c0-0.187-0.146-0.238-0.293-0.238h-0.414v0.893h0.122V30.913z M48.158,30.508h0.301c0.06,0,0.159,0.01,0.159,0.147
		c0,0.132-0.092,0.155-0.181,0.155h-0.28V30.508z"/>
	<rect x="48.866" y="31.163" class="st4" width="0.131" height="0.134"/>
	<path class="st5" d="M0.995,32.148l0.639-8.057c0.273-3.443,2.541-5.604,5.926-5.604l35.911-0.002c2.806,0,4.017-0.279,4.404-0.355
		c0.387-0.077,1.13-0.278,1.13-0.278l-0.534,7.556c-0.327,5.484-4.899,5.871-5.525,5.871c-1.838,0-35.723,0.008-35.723,0.008
		c-2.073,0-3.84,0.229-5.169,0.561C1.318,32.033,0.995,32.148,0.995,32.148"/>
	<path class="st6" d="M47.293,19.933c-0.954,0.166-2.217,0.139-3.626,0.139H7.632c-2.575,0-4.219,1.603-4.415,4.146l-0.498,5.837
		c0.987-0.218,2.589-0.376,4.653-0.376h35.485c0.149-0.004,3.606,0.055,4.006-4.22L47.293,19.933z"/>
	<path class="st4" d="M13.245,25.08c0.086-0.482,0.288-0.936,0.737-0.936c0.424,0,0.564,0.533,0.491,0.948L13.245,25.08z
		 M16.203,26.003c0.234-1.392,0.172-2.879-2.222-2.879c-1.84,0-2.72,0.939-2.946,2.519c-0.218,1.524,0.901,2.272,2.354,2.272
		c1.054,0,2.209-0.245,2.209-0.245l0.143-1.121c0,0-1.188,0.27-1.472,0.264c-0.982-0.021-1.261-0.274-1.167-0.81H16.203z"/>
	<path class="st4" d="M16.469,27.776l2.176,0.003l0.266-1.554c0.185-0.792,0.777-1.317,1.37-1.317c0.134,0,0.4,0.037,0.533,0.055
		l0.225-1.792c-0.084-0.009-0.169-0.026-0.255-0.026c-1.113-0.017-1.668,1.146-1.668,1.146l0.071-1.017l-2.012,0.004L16.469,27.776z
		"/>
	<path class="st4" d="M32.312,22.219c-0.035-0.405,0.438-0.775,1.057-0.83c0.618-0.053,1.15,0.229,1.183,0.634
		c0.037,0.403-0.437,0.776-1.054,0.828C32.878,22.906,32.348,22.622,32.312,22.219 M33.64,27.749l0.777-4.594h-2.228l-0.777,4.594
		H33.64z"/>
	<path class="st4" d="M41.922,24.477c0.61-0.074,1.039,0.292,0.959,0.847c-0.103,0.682-0.515,1.058-1.123,1.131
		c-0.611,0.075-0.968-0.258-1.002-0.816C40.72,25.083,41.312,24.552,41.922,24.477 M41.574,27.821
		c-1.395,0.184-2.396-0.644-2.476-2.018c-0.08-1.373,1.08-2.609,2.476-2.793c0.582-0.076,1.112,0.071,1.527,0.346l0.048-0.19h1.554
		l-0.593,4.595h-1.555l0.053-0.423C42.262,27.706,41.946,27.773,41.574,27.821"/>
	<path class="st4" d="M23.271,25.08c0.087-0.482,0.287-0.936,0.739-0.936c0.421,0,0.562,0.533,0.489,0.948L23.271,25.08z
		 M26.231,26.003c0.233-1.392,0.171-2.879-2.22-2.879c-1.842,0-2.721,0.939-2.948,2.519c-0.216,1.524,0.9,2.272,2.354,2.272
		c1.055,0,2.208-0.245,2.208-0.245l0.144-1.121c0,0-1.186,0.27-1.472,0.264c-0.981-0.021-1.261-0.274-1.167-0.81H26.231z"/>
	<path class="st4" d="M11.119,21.778c0.021,0.021-0.039-0.224-1.841-0.224c-1.882,0-3.739,1.27-4.009,3.294
		c-0.204,1.538,0.825,3.047,2.884,3.047c1.642,0,2.086-0.265,2.086-0.265l0.204-1.55c0,0-0.655,0.265-1.739,0.203
		c-1.035-0.058-1.369-0.733-1.288-1.406c0.147-1.207,1.077-1.504,1.779-1.651c0.88-0.184,1.679,0.163,1.679,0.163L11.119,21.778z"/>
	<path class="st4" d="M26.58,27.63c0,0,0.819,0.276,1.856,0.276c1.66,0,2.533-0.642,2.719-1.577
		c0.396-2.002-2.416-1.148-2.304-1.778c0.04-0.224,0.328-0.326,0.565-0.318c0.14,0.004,0.355-0.049,0.764,0.013
		c0.409,0.143,0.951,0.118,0.941,0.266l0.184-1.204c0,0-0.894-0.202-1.881-0.202c-0.943,0-2.354,0.36-2.542,1.517
		c-0.302,1.846,2.489,1.121,2.277,1.826c-0.062,0.203-0.359,0.289-0.635,0.305c-1.024,0.062-1.82-0.427-1.82-0.427L26.58,27.63z"/>
	<path class="st4" d="M38.526,26.345l-0.469,0.021c-0.503,0-0.545-0.239-0.472-0.654l0.182-1.235h1.046l0.183-1.272h-1.045
		l0.329-1.753l-2.311,0.693l-0.165,1.06h-0.838l-0.183,1.272h0.812l-0.334,1.888c-0.102,1.047,0.729,1.538,1.546,1.488
		c0.818-0.05,1.452-0.244,1.452-0.244L38.526,26.345z"/>
</g>
<g>
	<path class="st0" d="M-87.955,16.01c6.782,0,12.945,0.862,17.433,2.274c4.335,1.36,7.567,3.382,7.567,5.99
		c0,2.607-3.231,4.63-7.567,5.992c-4.488,1.41-10.651,2.273-17.433,2.273c-6.783,0-12.946-0.863-17.435-2.273
		c-4.334-1.362-7.566-3.385-7.566-5.992c0-2.608,3.232-4.63,7.566-5.99C-100.901,16.872-94.739,16.01-87.955,16.01"/>
	<path class="st7" d="M-63.567,24.338c0-2.73-4.091-4.934-10.581-6.383c-3.994-0.893-8.915-1.345-14.26-1.345
		c-3.622,0-7.093,0.243-10.17,0.724c2.86-0.315,6.145-0.345,9.491-0.192c3.976,0.181,7.551,0.654,10.57,1.382
		c5.854,1.411,9.437,3.739,9.172,6.203c-0.401,3.739-9.697,6.269-21.382,5.734c-11.684-0.532-21.089-3.071-20.297-7.644
		c0.097-0.554,0.273-1.11,0.73-1.61c-1.367,1.003-2.063,1.86-2.063,3.196c0,1.589,2.018,3.377,5.565,4.726
		c4.381,1.67,11.025,2.781,18.341,2.781c8.704,0,16.517-1.351,20.989-3.516C-65.134,27.265-63.567,25.859-63.567,24.338"/>
	<path class="st8" d="M-105.331,25.636c0.372,0,0.544-0.038,0.637-0.091c0.12-0.066,0.207-0.179,0.233-0.316
		c0.031-0.167-0.031-0.298-0.145-0.36c-0.053-0.033-0.199-0.066-0.422-0.066h-0.86c-0.57,0-0.961-0.099-1.203-0.346
		c-0.265-0.281-0.359-0.704-0.275-1.138c0.126-0.648,0.584-1.224,1.173-1.413c0.254-0.087,0.526-0.107,1.069-0.107h2.466
		l-0.217,1.122h-2.217c-0.217,0.002-0.335,0.004-0.416,0.009c-0.076,0.004-0.114,0.013-0.184,0.028
		c-0.126,0.031-0.242,0.147-0.281,0.348c-0.034,0.165,0.02,0.267,0.11,0.312c0.097,0.049,0.176,0.063,0.512,0.063h0.75
		c0.693,0,1.099,0.104,1.356,0.434c0.202,0.249,0.258,0.708,0.176,1.13c-0.104,0.543-0.451,1.05-0.908,1.302
		c-0.301,0.169-0.642,0.209-1.331,0.209h-2.502l0.219-1.121H-105.331z"/>
	<path class="st8" d="M-97.815,24.336c-0.311,1.595-1.292,2.45-2.843,2.45c-0.921,0-1.632-0.302-1.925-0.887
		c-0.216-0.421-0.246-0.967-0.121-1.613c0.178-0.91,0.568-1.637,1.152-2.037c0.457-0.318,1.099-0.484,1.795-0.484
		c0.83,0,1.513,0.273,1.8,0.785C-97.718,22.961-97.677,23.62-97.815,24.336 M-101.32,24.281c-0.204,1.053,0.066,1.431,0.782,1.431
		c0.727,0,1.15-0.402,1.356-1.463c0.202-1.035-0.068-1.405-0.787-1.405c-0.406,0-0.745,0.154-0.954,0.408
		C-101.088,23.451-101.224,23.79-101.32,24.281"/>
	<path class="st8" d="M-96.172,25.254c0.079,0.247,0.295,0.427,0.734,0.427l-0.218,1.07l-0.194-0.008
		c-0.825-0.064-1.317-0.309-1.594-0.846c-0.208-0.418-0.246-0.97-0.122-1.611c0.178-0.91,0.568-1.636,1.152-2.036
		c0.451-0.321,1.097-0.485,1.775-0.485c0.848,0,1.534,0.266,1.827,0.785c0.221,0.381,0.274,1.089,0.157,1.703
		c-0.104,0.534-0.313,0.984-0.649,1.383h0.652l-0.217,1.122h-1.882l-0.548-0.001l0.203-1.054l0.096-0.015
		c0.611-0.19,0.796-0.61,0.964-1.473c0.083-0.424,0.057-0.776-0.052-1.008c-0.113-0.239-0.338-0.369-0.736-0.369
		c-0.71,0-1.148,0.408-1.341,1.394C-96.251,24.668-96.249,25.02-96.172,25.254"/>
	<path class="st8" d="M-91.087,25.496c0.121,0.128,0.369,0.226,0.657,0.226c0.429,0,0.75-0.158,0.889-0.371
		c0.063-0.107,0.126-0.285,0.191-0.618l0.572-2.932h1.281l-0.564,2.907c-0.149,0.765-0.405,1.268-0.863,1.6
		c-0.465,0.333-1.018,0.485-1.712,0.485c-0.767,0-1.308-0.172-1.615-0.552c-0.292-0.373-0.325-0.757-0.183-1.487l0.574-2.953h1.282
		l-0.574,2.956C-91.237,25.201-91.201,25.367-91.087,25.496"/>
	<polygon class="st8" points="-85.758,21.801 -86.721,26.758 -88.004,26.758 -87.04,21.801 	"/>
	<polygon class="st8" points="-86.28,26.757 -85.315,21.8 -83.823,21.8 -82.782,24.857 -82.187,21.8 -80.952,21.8 -81.916,26.757 
		-83.359,26.757 -84.457,23.737 -85.045,26.757 	"/>
	<path class="st8" d="M-77.539,21.758l1.087,4.955h-1.466l-0.237-1.084h-1.585l-0.659,1.084h-1.49l3.014-4.955H-77.539z
		 M-78.278,24.509l-0.236-1.103l-0.666,1.103H-78.278z"/>
	<path class="st9" d="M-110.284,24.225c0.186-3.44,8.897-5.461,18.931-5.461c8.804,0,18.295,2.77,18.295,6.041
		c0,1.37-2.64,3.55-5.362,4.596c5.141-1.102,8.263-2.924,8.263-4.909c0-2.23-3.265-4.11-8.29-5.385
		c-3.285-0.835-7.35-1.341-11.813-1.466c-4.36-0.121-8.318,0.263-11.575,0.898c-5.203,1.005-8.536,2.893-8.614,4.792
		C-110.462,23.629-110.406,23.928-110.284,24.225"/>
	<path class="st8" d="M-76.249,26.236c0-0.226,0.171-0.396,0.389-0.396c0.216,0,0.385,0.169,0.385,0.396
		c0,0.229-0.169,0.399-0.385,0.399C-76.078,26.635-76.249,26.465-76.249,26.236 M-75.86,26.713c0.26,0,0.481-0.201,0.481-0.477
		c0-0.273-0.221-0.475-0.481-0.475c-0.261,0-0.484,0.202-0.484,0.475C-76.345,26.512-76.122,26.713-75.86,26.713"/>
	<path class="st8" d="M-75.96,26.203v-0.17h0.113c0.058,0,0.118,0.014,0.118,0.081c0,0.084-0.062,0.089-0.133,0.089H-75.96z
		 M-75.96,26.274h0.095l0.144,0.238h0.093l-0.156-0.242c0.081-0.011,0.143-0.053,0.143-0.152c0-0.109-0.064-0.157-0.193-0.157
		h-0.208v0.55h0.083V26.274z"/>
</g>
<g>
	<rect x="-47.197" y="9.431" class="st10" width="31.138" height="31.137"/>
	<polygon class="st11" points="-36.985,38.111 -39.109,40.235 -36.571,40.235 -34.448,38.111 	"/>
	<polygon class="st11" points="-31.891,38.111 -34.015,40.235 -31.478,40.235 -29.354,38.111 	"/>
	<polygon class="st11" points="-26.797,38.111 -28.921,40.235 -26.384,40.235 -24.259,38.111 	"/>
	<path class="st11" d="M-29.41,33.073l4.665-4.665c-1.01,0.314-2.106,0.559-3.264,0.727l-3.938,3.938H-29.41z"/>
	<path class="st11" d="M-34.505,33.073l3.696-3.696c-0.258,0.008-0.517,0.012-0.779,0.012c-0.581,0-1.151-0.021-1.712-0.059
		l-3.742,3.742H-34.505z"/>
	<polygon class="st11" points="-42.08,38.111 -44.204,40.235 -41.666,40.235 -39.542,38.111 	"/>
	<polygon class="st11" points="-16.393,40.235 -16.393,37.895 -18.732,40.235 	"/>
	<path class="st11" d="M-18.231,21.893l1.838-1.838v-2.537l-2.557,2.557C-18.562,20.651-18.316,21.261-18.231,21.893"/>
	<polygon class="st11" points="-21.703,38.111 -23.827,40.235 -21.289,40.235 -19.165,38.111 	"/>
	<polygon class="st11" points="-24.316,33.073 -16.393,25.15 -16.393,22.613 -26.853,33.073 	"/>
	<path class="st11" d="M-21.665,17.696c0.558,0.321,1.059,0.67,1.496,1.041l3.776-3.776v-2.537L-21.665,17.696z"/>
	<polygon class="st11" points="-18.936,37.881 -16.393,35.338 -16.393,32.801 -18.936,35.344 	"/>
	<polygon class="st11" points="-19.222,33.073 -16.393,30.244 -16.393,27.707 -21.758,33.073 	"/>
	<path class="st10" d="M-44.982,22.394c0-3.862,5.997-6.995,13.395-6.995c7.397,0,13.395,3.133,13.395,6.995
		c0,3.866-5.997,6.995-13.395,6.995C-38.985,29.389-44.982,26.26-44.982,22.394"/>
	<path class="st11" d="M-35.729,24.518c0,0.48-0.378,0.785-1.133,0.915c-0.143,0.028-0.334,0.048-0.572,0.062
		c-0.238,0.014-0.452,0.02-0.799,0.02c-0.748,0-1.183-0.02-1.462-0.062c-0.861-0.123-1.291-0.411-1.291-0.864V23.5h1.778v0.916
		c0,0.199,0.264,0.299,0.952,0.299c0.295,0,0.419-0.017,0.533-0.051c0.143-0.035,0.215-0.12,0.215-0.257V22.69
		c0-0.37-2.252-0.644-2.719-0.887c-0.467-0.243-0.759-0.757-0.759-1.285v-1.686c0-0.492,0.958-1.04,1.447-1.04
		c0.348,0,0.762-0.02,1.216-0.02c1.691,0,2.458,0.26,2.458,0.781v1.08h-1.778v-0.608c0-0.137-0.011-0.222-0.034-0.257
		c-0.106-0.137-0.313-0.206-0.781-0.206c-0.476,0-0.684,0.068-0.748,0.193v1.541c0,0.368,2.326,0.793,2.991,1.119
		c0.299,0.147,0.487,0.494,0.487,0.843V24.518z"/>
	<path class="st11" d="M-33.322,19.749h-1.693v-1.504h1.693V19.749z M-33.322,25.428h-1.682v-4.99h1.682V25.428z"/>
	<path class="st11" d="M-27.439,24.572c0,0.447-0.36,0.733-1.082,0.856c-0.3,0.059-0.831,0.087-1.438,0.087
		c-0.379,0-0.633-0.01-0.918-0.029v1.799h-1.682v-5.953c0-0.564,0.786-0.846,2.515-0.846c1.685,0,2.606,0.259,2.606,0.778V24.572z
		 M-29.121,21.66c0-0.136-0.011-0.224-0.032-0.262v0.009c-0.1-0.103-0.438-0.155-0.859-0.155c-0.508,0-0.733,0.045-0.833,0.136
		c-0.022,0.019-0.032,0.114-0.032,0.282v2.798c0,0.188,0.247,0.282,0.897,0.282c0.279,0,0.549-0.016,0.657-0.049
		c0.135-0.032,0.203-0.113,0.203-0.243V21.66z"/>
	<path class="st11" d="M-21.786,25.193c0,0-0.274,0.104-0.697,0.189c-0.301,0.061-0.928,0.134-1.828,0.134
		c-1.672,0-2.429-0.24-2.429-0.72v-1.644c0-0.474,0.676-0.71,2.183-0.71h1.079v-0.937c0-0.182-0.248-0.272-0.897-0.272
		c-0.272,0-0.39,0.016-0.512,0.049c-0.128,0.039-0.193,0.117-0.193,0.234v0.402h-1.682V21.43c0-0.447,0.357-0.733,1.072-0.856
		c0.3-0.059,0.676-0.087,1.283-0.087c0.707,0,1.118,0.019,1.391,0.058c0.814,0.117,1.231,0.389,1.231,0.818V25.193z M-23.478,23.197
		h-0.876c-0.401,0-0.572,0.045-0.673,0.136v-0.01c-0.021,0.033-0.032,0.101-0.032,0.204v0.902c0,0.111,0.011,0.178,0.032,0.204
		v-0.01c0.114,0.091,0.287,0.137,0.673,0.137c0.499,0,0.729-0.045,0.843-0.137c0.022-0.026,0.032-0.12,0.032-0.282V23.197z"/>
	<path class="st12" d="M-44.319,33.073h4.619l4.018-4.018c-5.394-0.903-9.3-3.542-9.3-6.661c0-3.862,5.998-6.995,13.395-6.995
		c3.056,0,5.871,0.535,8.125,1.435l7.07-7.07h-30.47v30.47l2.543-2.543V33.073z"/>
	<rect x="-44.32" y="33.073" class="st0" width="25.383" height="5.038"/>
	<path class="st13" d="M-41.257,34.566c-0.164-0.096-0.407-0.145-0.722-0.145h-0.86v2.323h0.553v-1.004h0.307
		c0.316,0,0.559-0.047,0.723-0.141c0.144-0.087,0.217-0.202,0.217-0.342v-0.352C-41.039,34.764-41.112,34.65-41.257,34.566
		 M-42.287,34.731h0.305c0.082,0,0.154,0.018,0.214,0.055c0.055,0.033,0.081,0.071,0.081,0.116v0.355
		c0,0.048-0.026,0.087-0.08,0.118c-0.06,0.035-0.132,0.053-0.214,0.053h-0.305V34.731z"/>
	<path class="st13" d="M-39.653,34.421v1.858c0,0.044-0.027,0.081-0.082,0.112c-0.061,0.035-0.134,0.053-0.216,0.053
		c-0.081,0-0.151-0.017-0.207-0.052c-0.051-0.032-0.076-0.068-0.076-0.113v-1.858h-0.647v1.858c0,0.14,0.073,0.255,0.217,0.339
		c0.16,0.096,0.402,0.145,0.718,0.145c0.316,0,0.558-0.049,0.722-0.145c0.144-0.084,0.218-0.199,0.218-0.339v-1.858H-39.653z"/>
	<path class="st13" d="M-36.937,35.256v-0.352c0-0.14-0.074-0.255-0.218-0.339c-0.164-0.096-0.407-0.145-0.722-0.145h-0.861v2.323
		h0.554v-1.004h0.309c0.083,0.003,0.154,0.022,0.212,0.057c0.053,0.031,0.078,0.068,0.078,0.113v0.835h0.648v-0.835
		c0-0.135-0.066-0.244-0.197-0.325C-37.004,35.5-36.937,35.391-36.937,35.256 M-38.184,34.731h0.305
		c0.082,0,0.154,0.018,0.214,0.055c0.055,0.033,0.081,0.071,0.081,0.116v0.355c0,0.045-0.026,0.084-0.078,0.117
		c-0.059,0.036-0.13,0.055-0.211,0.055h-0.31V34.731z"/>
	<path class="st13" d="M-35.012,34.566c-0.164-0.096-0.407-0.145-0.722-0.145c-0.316,0-0.558,0.049-0.718,0.145
		c-0.144,0.084-0.217,0.199-0.217,0.339v1.858h0.647V35.77h0.58v0.993h0.648v-1.858C-34.794,34.764-34.868,34.65-35.012,34.566
		 M-36.022,34.902c0-0.048,0.025-0.087,0.076-0.118c0.057-0.035,0.126-0.053,0.209-0.053c0.082,0,0.154,0.018,0.214,0.055
		c0.055,0.033,0.081,0.07,0.081,0.116v0.497h-0.58V34.902z"/>
	<path class="st13" d="M-32.177,34.566c-0.164-0.096-0.407-0.145-0.722-0.145h-0.86v2.323h0.553v-1.004h0.307
		c0.316,0,0.559-0.047,0.723-0.141c0.144-0.087,0.217-0.202,0.217-0.342v-0.352C-31.959,34.764-32.032,34.65-32.177,34.566
		 M-33.206,34.731h0.305c0.082,0,0.154,0.018,0.214,0.055c0.055,0.033,0.081,0.071,0.081,0.116v0.355
		c0,0.048-0.026,0.087-0.08,0.118c-0.06,0.035-0.132,0.053-0.214,0.053h-0.305V34.731z"/>
	<rect x="-31.8" y="34.421" class="st13" width="0.553" height="2.323"/>
	<polygon class="st13" points="-29.549,34.421 -29.549,35.812 -30.422,34.439 -30.433,34.421 -30.969,34.421 -30.969,36.743 
		-30.415,36.743 -30.415,35.36 -29.548,36.725 -29.536,36.743 -28.996,36.743 -28.996,34.421 	"/>
	<polygon class="st13" points="-28.792,34.421 -28.792,34.793 -27.995,34.793 -27.995,36.743 -27.441,36.743 -27.441,34.793 
		-26.645,34.793 -26.645,34.421 	"/>
	<path class="st13" d="M-25.274,34.421v1.858c0,0.044-0.027,0.081-0.082,0.112c-0.061,0.035-0.134,0.053-0.216,0.053
		c-0.081,0-0.151-0.017-0.207-0.052c-0.051-0.032-0.076-0.068-0.076-0.113v-1.858h-0.647v1.858c0,0.14,0.073,0.255,0.217,0.339
		c0.16,0.096,0.402,0.145,0.718,0.145c0.316,0,0.558-0.049,0.722-0.145c0.144-0.084,0.218-0.199,0.218-0.339v-1.858H-25.274z"/>
	<path class="st13" d="M-22.557,35.256v-0.352c0-0.14-0.074-0.255-0.218-0.339c-0.164-0.096-0.407-0.145-0.722-0.145h-0.861v2.323
		h0.554v-1.004h0.309c0.083,0.003,0.154,0.022,0.212,0.057c0.053,0.031,0.078,0.068,0.078,0.113v0.835h0.648v-0.835
		c0-0.135-0.066-0.244-0.197-0.325C-22.624,35.5-22.557,35.391-22.557,35.256 M-23.805,34.731h0.305
		c0.082,0,0.154,0.018,0.214,0.055c0.055,0.033,0.081,0.071,0.081,0.116v0.355c0,0.045-0.026,0.084-0.078,0.117
		c-0.059,0.036-0.13,0.055-0.211,0.055h-0.31V34.731z"/>
	<path class="st13" d="M-20.632,34.566c-0.164-0.096-0.407-0.145-0.722-0.145c-0.316,0-0.558,0.049-0.718,0.145
		c-0.144,0.084-0.217,0.199-0.217,0.339v1.858h0.647V35.77h0.58v0.993h0.648v-1.858C-20.415,34.764-20.488,34.65-20.632,34.566
		 M-21.642,34.902c0-0.048,0.025-0.087,0.076-0.118c0.057-0.035,0.126-0.053,0.209-0.053c0.082,0,0.154,0.018,0.214,0.055
		c0.055,0.033,0.081,0.07,0.081,0.116v0.497h-0.58V34.902z"/>
</g>
<g>
	<g>
		<defs>
			<rect id="SVGID_1_" x="56.715" y="81.513" width="252.604" height="354.964"/>
		</defs>
		<clipPath id="SVGID_2_">
			<use xlink:href="#SVGID_1_"  style="overflow:visible;"/>
		</clipPath>
		<g transform="matrix(1 0 0 1 0 0)" style="clip-path:url(#SVGID_2_);">
			
				<image style="overflow:visible;" width="2337" height="3284" xlink:href="64E05C03CACB41C6.jpg"  transform="matrix(0.1081 0 0 0.1081 56.7148 81.5128)">
			</image>
		</g>
	</g>
</g>
<g>
	
		<image style="overflow:visible;" width="2337" height="3284" xlink:href="64E05C03CACB41C6.png"  transform="matrix(0.1081 0 0 0.1081 -168.9845 84.8328)">
	</image>
</g>
<g>
	
		<image style="overflow:visible;" width="2337" height="3284" xlink:href="64E05C03CACB41C2.png"  transform="matrix(0.1081 0 0 0.1081 278.4116 81.5128)">
	</image>
</g>
<polygon class="st1" points="-168.985,451.376 -153.985,451.376 -161.485,460.376 "/>
<g>
	<rect x="-168.955" y="20.369" class="st0" width="9.246" height="9.258"/>
	<polygon class="st14" points="-163.692,29.631 -164.585,29.631 -166.4,29.631 -168.961,29.627 -168.968,21.349 -168.898,21.408 
		-168.898,23.501 -168.898,23.969 -168.884,24.451 -168.843,24.917 -168.814,25.143 -168.772,25.369 -168.688,25.701 
		-168.633,26.002 -168.549,26.289 -168.465,26.559 -168.297,27.071 -168.186,27.295 -168.088,27.523 -167.893,27.928 
		-167.712,28.245 -167.628,28.381 -167.529,28.487 -167.447,28.578 -167.362,28.668 -167.292,28.712 -167.209,28.742 
		-167.153,28.742 -167.083,28.758 -166.943,28.758 -166.791,28.758 -166.65,28.712 -166.497,28.668 -166.357,28.607 
		-166.219,28.515 -166.064,28.396 -165.925,28.26 -165.771,28.124 -165.464,27.838 -165.213,27.614 -165.101,27.523 
		-165.003,27.461 -164.836,27.341 -164.822,27.432 -164.78,27.567 -164.628,27.869 -164.321,28.515 -163.999,29.104 
		-163.831,29.436 -163.747,29.57 -163.734,29.616 	"/>
	<polygon class="st14" points="-160.934,21.302 -160.906,21.302 -160.85,21.229 -160.85,21.212 -160.85,21.229 -160.906,21.393 
		-161.031,21.619 -161.102,21.724 -161.074,21.754 -160.948,21.529 -160.892,21.408 -160.809,21.302 -160.794,21.229 
		-160.767,21.183 -160.753,21.183 -160.753,21.212 -160.794,21.274 -160.809,21.318 -160.948,21.544 -160.99,21.663 
		-161.031,21.754 -161.102,21.905 -161.019,21.845 -160.948,21.769 -160.934,21.754 -160.906,21.769 -160.906,21.8 -160.906,21.816 
		-160.934,21.845 -160.85,21.754 -160.794,21.679 -160.753,21.634 -160.85,21.769 -160.684,21.544 -160.794,21.709 -160.864,21.845 
		-160.934,21.981 -160.809,21.8 -160.712,21.679 -160.684,21.663 -160.668,21.679 -160.684,21.724 -160.726,21.816 -160.599,21.634 
		-160.585,21.619 -160.585,21.634 -160.64,21.754 -160.753,21.891 -160.726,21.905 -160.712,21.951 -160.726,21.996 -160.726,22.04 
		-160.64,21.935 -160.558,21.845 -160.64,21.951 -160.794,22.13 -160.85,22.221 -160.906,22.283 -160.864,22.312 -160.836,22.283 
		-160.794,22.267 -160.726,22.238 -160.668,22.176 -160.599,22.102 -160.712,22.283 -160.794,22.448 -160.585,22.176 
		-160.543,22.13 -160.558,22.147 -160.809,22.537 -160.85,22.644 -160.892,22.719 -160.906,22.78 -160.977,22.96 -160.977,22.944 
		-160.934,22.9 -160.836,22.765 -160.906,22.9 -160.948,22.989 -160.977,23.05 -161.06,23.23 -161.116,23.398 -161.242,23.727 
		-161.367,24.043 -161.521,24.36 -161.604,24.495 -161.66,24.616 -161.604,24.495 -161.521,24.36 -161.367,24.134 -161.311,24.043 
		-161.242,23.983 -161.228,23.953 -161.228,23.938 -161.2,23.938 -161.185,23.953 -161.116,23.847 -161.143,23.908 -161.2,24.028 
		-161.031,23.802 -161.102,23.908 -161.242,24.164 -161.367,24.36 -161.353,24.36 -161.353,24.39 -161.353,24.406 -161.074,23.998 
		-160.906,23.727 -160.948,23.818 -160.99,23.908 -161.116,24.088 -161.074,24.028 -161.031,23.983 -160.948,23.908 
		-160.934,23.908 -160.934,23.938 -160.948,23.983 -160.977,24.074 -160.85,23.893 -160.809,23.818 -160.794,23.802 
		-160.809,23.818 -160.836,23.864 -160.864,23.938 -161.074,24.271 -161.185,24.45 -161.27,24.616 -161.228,24.572 -161.143,24.45 
		-160.948,24.179 -160.794,23.908 -160.753,23.893 -160.794,23.953 -160.753,23.953 -160.753,23.983 -160.753,24.043 
		-160.767,24.119 -160.712,24.028 -160.599,23.864 -160.375,23.593 -160.349,23.593 -160.417,23.728 -160.375,23.667 
		-160.306,23.593 -160.264,23.577 -160.25,23.577 -160.223,23.577 -160.223,23.593 -160.223,23.637 -160.306,23.802 
		-160.181,23.637 -160.042,23.411 -159.831,23.14 -160.25,23.818 -160.349,23.998 -160.375,24.043 -160.417,24.088 -160.389,24.088 
		-160.293,24.028 -160.25,23.998 -160.209,23.953 -160.055,23.773 -159.762,23.216 -159.831,23.398 -159.874,23.457 
		-159.929,23.577 -160.042,23.758 -160.139,23.908 -160.181,23.953 -160.139,23.908 -160.013,23.728 -159.929,23.577 
		-159.846,23.457 -159.804,23.411 -159.79,23.411 -159.79,23.442 -159.762,23.367 -159.748,23.367 -159.748,23.398 -159.72,23.487 
		-159.707,23.532 -159.707,20.37 -160.375,20.37 	"/>
	<polygon class="st14" points="-159.707,23.49 -159.702,29.627 -163.642,29.627 -163.377,29.498 -163.14,29.363 -162.93,29.227 
		-162.749,29.047 -162.553,28.881 -162.469,28.791 -162.386,28.7 -162.232,28.504 -162.065,28.293 -161.912,28.098 -161.772,27.917 
		-161.478,27.54 -161.353,27.329 -161.242,27.15 -161.143,26.999 -161.06,26.819 -160.836,26.395 -160.599,25.944 -160.389,25.507 
		-160.293,25.282 -160.209,25.071 -160.055,24.634 -160.055,24.589 -160.055,24.483 -160.042,24.438 -160.013,24.363 
		-159.971,24.303 -159.93,24.258 -159.916,24.212 -159.888,24.183 -159.72,23.716 -159.748,23.686 -159.762,23.64 -159.762,23.58 
		-159.762,23.565 -159.748,23.534 	"/>
	<path class="st15" d="M-168.653,21.92l-0.014-0.045l-0.056-0.151l0.07,0.257l0.027,0.121l0.028,0.09l0.015,0.046l-0.056-0.046
		l-0.029-0.044l-0.042-0.121l-0.042-0.075l-0.056-0.272v0.045l-0.042-0.09v0.045l0.042,0.196l-0.028-0.06l-0.042-0.091
		c0.008-0.061-0.031-0.14-0.067-0.23l-0.015-0.143l0.004-0.982l0.036,0.001h0.266h0.056h0.056h0.181h0.125h0.056h0.126h0.041h0.098
		h3.294h0.042h0.055h0.042h0.056h0.265h0.041h0.182h0.125h3.142h0.124h0.112h0.057l-0.057,0.226l-0.112,0.361l-0.124,0.376
		l-0.014,0.046l-0.084,0.166l-0.376,0.647l-0.182,0.331l-0.196,0.317l-0.209,0.315l-0.209,0.317l-0.223,0.315l-0.223,0.318
		l-0.196,0.211l-0.167,0.18l-0.14,0.181l-0.153,0.166l-0.14,0.105l-0.125,0.091l-0.126,0.09l-0.112,0.045l-0.041-0.181l-0.027-0.18
		l-0.043-0.331l-0.042-0.361l-0.069-0.332v-0.045l-0.015-0.045v-0.075v-0.045l-0.028,0.045l-0.014,0.136l-0.028-0.045l-0.013,0.089
		v-0.239v-0.091l-0.028,0.105l-0.042,0.031l0.042-0.271v-0.166v-0.046l-0.014-0.195l-0.028,0.045V22.93v-0.047v-0.06l-0.014,0.151
		l-0.042,0.03l0.013-0.091l-0.041,0.045v0.091l-0.015-0.045l-0.028-0.045v-0.12v-0.045v-0.106l-0.041,0.015v-0.226l-0.015,0.12
		v0.061l-0.041,0.03l-0.039-0.105l-0.031-0.061v0.045l-0.016,0.09l-0.028,0.091v-0.057l-0.014,0.041v0.047l-0.028,0.044V22.78
		l-0.013,0.044V22.75l-0.029-0.061l-0.014,0.151v-0.06v-0.047l-0.043,0.136l-0.013,0.045l0.013-0.045l0.015-0.226l-0.015,0.06v0.121
		l-0.027,0.045v-0.181l-0.014,0.135l-0.029,0.136v-0.076l-0.042-0.015v-0.045l0.028-0.044l-0.042,0.015v0.075l-0.028,0.136V22.84
		l-0.013,0.091l-0.028,0.045l-0.014,0.075v-0.045l0.014-0.045l0.013-0.045l0.015-0.045v-0.045l-0.042,0.106l0.014-0.136l-0.014,0.12
		l-0.028,0.091V22.93v-0.047l-0.042,0.167l-0.055,0.165l-0.07,0.182l-0.084,0.21l-0.195,0.421l-0.238,0.513l-0.181,0.316
		l-0.153,0.271l-0.168,0.241l-0.139,0.209l-0.153,0.151l-0.057,0.077l-0.069,0.044l-0.126,0.091l-0.057,0.014l-0.056,0.029
		l-0.209-0.481l-0.209-0.482l-0.168-0.527l-0.167-0.512l-0.153-0.557l-0.139-0.586l-0.112-0.588l-0.097-0.603l-0.014-0.105
		l-0.028-0.119l-0.042-0.107l-0.014-0.045v0.152l-0.028-0.092l-0.041-0.091l-0.042-0.105l-0.014-0.074l-0.027-0.047v0.089
		l0.042,0.182l-0.014,0.076l-0.027-0.046l-0.042-0.045v0.045l-0.056-0.135l0.015,0.09l0.028,0.091l-0.043-0.091l-0.027-0.075
		l-0.014,0.075l-0.028-0.12v0.076l0.028,0.089v0.107l0.014,0.089l-0.042-0.015l-0.056-0.12l0.043,0.18l-0.056-0.121l-0.027-0.059
		l0.027,0.09l0.056,0.136v0.045v0.091v0.045l-0.043-0.061l0.015,0.061l0.028,0.091l0.013,0.15v0.181l0.028,0.165l0.014,0.181
		l-0.042-0.135l-0.013-0.091l-0.043-0.029v0.044l-0.041-0.134l0.014,0.076l0.013,0.043l0.056,0.196l-0.056-0.105l-0.027-0.121
		l-0.043-0.135v0.045l0.015,0.045l0.028,0.089l-0.028-0.044l-0.015-0.045l-0.026,0.049l0.026,0.133l0.043,0.18l-0.043-0.091
		l-0.042-0.151l-0.014-0.046l-0.028-0.119l-0.028,0.045l-0.015,0.045l-0.042-0.135l-0.069-0.15l-0.041-0.015l-0.015,0.105
		L-168.653,21.92z M-168.919,21.74l0.028,0.076L-168.919,21.74z M-168.541,22.147l-0.014-0.076L-168.541,22.147z M-168.541,22.191
		l0.028,0.046L-168.541,22.191z M-164.591,23.05v-0.045l0.015-0.045v0.091H-164.591z M-168.653,21.981l0.027,0.121L-168.653,21.981z
		 M-168.716,22.012l-0.076-0.423l0.028,0.181l0.014,0.182L-168.716,22.012z M-168.36,21.965l-0.014,0.06l0.028,0.046l0.015,0.045
		l0.026-0.06l-0.026-0.06l-0.015-0.076l0.015,0.091l-0.015-0.046H-168.36z M-168.36,21.891l-0.028-0.106L-168.36,21.891z
		 M-168.36,22.102l-0.028-0.09l0.014,0.06L-168.36,22.102z M-168.234,21.168l0.028,0.074L-168.234,21.168z M-168.346,22.147
		l0.015,0.06L-168.346,22.147z M-168.221,21.724l-0.014-0.075l-0.013-0.045l0.013,0.059L-168.221,21.724z M-167.872,21.242v-0.089
		l-0.041-0.107v0.06L-167.872,21.242z M-167.969,21.288l-0.027-0.135l-0.015-0.107l-0.028-0.045v0.045l0.042,0.136L-167.969,21.288z
		 M-164.197,22.584l0.011-0.166l-0.015,0.15L-164.197,22.584z M-164.271,22.693l0.028-0.079l-0.028,0.075V22.693z M-164.158,22.643
		l0.014-0.226l-0.014,0.046v0.044V22.643z M-163.782,23.697l0.015-0.121l-0.015,0.091V23.697z M-163.852,23.713v-0.046v-0.06
		l-0.013,0.195L-163.852,23.713z"/>
	<polygon class="st15" points="-150.705,26.018 -148.96,22.867 -147.559,22.867 -150.491,28.173 -150.906,28.173 -152.877,24.535 
		-154.835,28.173 -155.249,28.173 -158.217,22.867 -156.816,22.867 -155.059,26.018 -153.375,22.867 -152.39,22.867 	"/>
	<path class="st15" d="M-141.676,27.558c-0.008,0.009-0.014,0.016-0.018,0.024c-0.004,0.007-0.014,0.015-0.03,0.022
		c-0.007,0.008-0.019,0.016-0.035,0.024c-0.016,0.008-0.028,0.014-0.036,0.017c-0.007,0.005-0.015,0.006-0.024,0.006
		c-0.007,0.008-0.016,0.013-0.023,0.017c-0.009,0.005-0.016,0.006-0.024,0.006c-0.008,0.008-0.016,0.014-0.024,0.018
		c-0.009,0.004-0.016,0.006-0.024,0.006c-0.008,0.007-0.016,0.013-0.024,0.018c-0.007,0.003-0.016,0.006-0.024,0.006
		c-0.007,0-0.02,0.004-0.035,0.012c-0.009,0.007-0.017,0.013-0.025,0.017c-0.007,0.004-0.015,0.006-0.023,0.006
		c-0.047,0.023-0.092,0.043-0.136,0.058c-0.044,0.016-0.085,0.035-0.125,0.058c-0.039,0.016-0.081,0.029-0.124,0.04
		c-0.043,0.012-0.088,0.026-0.136,0.041c-0.048,0.016-0.093,0.028-0.137,0.04c-0.043,0.012-0.085,0.022-0.124,0.029
		c-0.04,0.008-0.081,0.016-0.124,0.025c-0.044,0.007-0.09,0.014-0.136,0.023c-0.088,0.007-0.178,0.019-0.273,0.035
		c-0.095,0.015-0.194,0.027-0.296,0.035c-0.103,0.007-0.212,0.013-0.327,0.016c-0.115,0.006-0.231,0.007-0.349,0.007
		c-0.254,0-0.495-0.016-0.726-0.046c-0.229-0.031-0.446-0.077-0.652-0.139c-0.198-0.07-0.382-0.157-0.552-0.261
		c-0.17-0.104-0.326-0.226-0.468-0.364c-0.143-0.139-0.264-0.285-0.368-0.436c-0.103-0.15-0.19-0.306-0.261-0.468
		c-0.072-0.163-0.123-0.328-0.154-0.499c-0.032-0.169-0.048-0.343-0.048-0.521c0-0.201,0.016-0.389,0.048-0.562
		c0.031-0.174,0.082-0.342,0.154-0.504c0.079-0.162,0.17-0.313,0.273-0.452c0.102-0.139,0.229-0.271,0.38-0.394
		c0.142-0.123,0.297-0.231,0.463-0.325c0.166-0.091,0.343-0.165,0.533-0.22c0.198-0.062,0.402-0.107,0.612-0.138
		c0.21-0.031,0.425-0.047,0.647-0.047c0.221,0,0.429,0.015,0.622,0.046c0.193,0.032,0.378,0.077,0.552,0.139
		c0.182,0.054,0.35,0.126,0.504,0.215c0.154,0.089,0.298,0.192,0.433,0.307c0.126,0.124,0.237,0.261,0.332,0.411
		c0.094,0.151,0.178,0.315,0.249,0.493c0.063,0.177,0.113,0.37,0.148,0.579c0.036,0.209,0.054,0.432,0.054,0.672l-4.686-0.023
		c0.023,0.14,0.057,0.267,0.1,0.383c0.043,0.116,0.093,0.223,0.149,0.324c0.063,0.102,0.134,0.192,0.213,0.272
		c0.079,0.082,0.166,0.154,0.261,0.215c0.087,0.069,0.187,0.127,0.297,0.174c0.11,0.046,0.229,0.089,0.356,0.127
		c0.134,0.031,0.271,0.054,0.409,0.069c0.139,0.016,0.291,0.024,0.457,0.024h0.112h0.114c0.031,0,0.065-0.001,0.101-0.006
		c0.036-0.005,0.073-0.01,0.112-0.018c0.024,0,0.048-0.002,0.071-0.005c0.025-0.004,0.048-0.006,0.072-0.006
		c0.007,0,0.019-0.001,0.035-0.005c0.016-0.004,0.028-0.006,0.036-0.006c0.039-0.008,0.076-0.016,0.113-0.024
		c0.035-0.008,0.072-0.015,0.113-0.023c0.039-0.007,0.075-0.016,0.112-0.023c0.036-0.007,0.069-0.015,0.1-0.023
		c0.032-0.016,0.067-0.03,0.107-0.04c0.04-0.013,0.079-0.022,0.118-0.03c0.032-0.015,0.065-0.029,0.1-0.041
		c0.036-0.011,0.074-0.021,0.113-0.028c0.04-0.016,0.077-0.029,0.113-0.04c0.035-0.012,0.069-0.025,0.101-0.041h0.017
		c0.005,0,0.011-0.004,0.018-0.011c0.007-0.007,0.016-0.011,0.023-0.011c0.007,0,0.016-0.002,0.023-0.006
		c0.009-0.004,0.017-0.01,0.023-0.018c0.009,0,0.016-0.002,0.024-0.005c0.008-0.004,0.017-0.006,0.024-0.006
		c0.008-0.008,0.017-0.014,0.024-0.018c0.008-0.004,0.02-0.009,0.035-0.017c0.016-0.007,0.03-0.013,0.041-0.018
		c0.012-0.003,0.022-0.009,0.03-0.017c0.023-0.015,0.048-0.029,0.071-0.04c0.024-0.011,0.051-0.021,0.082-0.029
		c0.017-0.016,0.036-0.028,0.06-0.041c0.024-0.012,0.052-0.021,0.083-0.028v-0.023V27.558z M-142.862,24.94
		c-0.008-0.093-0.022-0.182-0.042-0.267c-0.02-0.085-0.049-0.165-0.089-0.244c-0.031-0.077-0.074-0.149-0.129-0.22
		c-0.056-0.069-0.116-0.131-0.178-0.185c-0.08-0.062-0.161-0.112-0.244-0.151c-0.083-0.039-0.168-0.073-0.255-0.104
		c-0.096-0.031-0.194-0.054-0.297-0.069c-0.102-0.016-0.209-0.024-0.32-0.024c-0.127,0-0.246,0.008-0.355,0.024
		c-0.112,0.015-0.222,0.038-0.333,0.069c-0.103,0.031-0.197,0.065-0.285,0.104c-0.086,0.04-0.169,0.086-0.248,0.139
		c-0.072,0.054-0.139,0.117-0.203,0.186c-0.063,0.069-0.118,0.146-0.166,0.231c-0.04,0.079-0.08,0.162-0.119,0.25
		c-0.04,0.089-0.067,0.184-0.083,0.284V24.94H-142.862z"/>
	<path class="st15" d="M-136.569,24.21c-0.102-0.038-0.2-0.077-0.29-0.115c-0.091-0.039-0.181-0.074-0.267-0.104
		c-0.055-0.025-0.111-0.045-0.167-0.065c-0.055-0.019-0.111-0.04-0.166-0.064c-0.031-0.007-0.059-0.015-0.083-0.023
		c-0.024-0.008-0.053-0.015-0.083-0.023c-0.088-0.015-0.17-0.032-0.249-0.052c-0.079-0.019-0.154-0.032-0.225-0.04
		c-0.08-0.016-0.151-0.026-0.215-0.029c-0.063-0.004-0.126-0.006-0.189-0.006c-0.063,0-0.124,0.002-0.184,0.006
		c-0.059,0.004-0.117,0.014-0.172,0.029c-0.055,0.008-0.107,0.021-0.154,0.04c-0.048,0.02-0.091,0.04-0.131,0.064
		c-0.024,0.007-0.044,0.02-0.059,0.035c-0.016,0.016-0.032,0.027-0.048,0.035c-0.016,0.017-0.029,0.029-0.041,0.041
		c-0.012,0.011-0.023,0.026-0.031,0.04c-0.015,0.032-0.029,0.06-0.042,0.087c-0.011,0.027-0.017,0.06-0.017,0.098
		c0,0.032,0.007,0.06,0.024,0.088c0.015,0.027,0.039,0.059,0.071,0.098c0.015,0.016,0.032,0.032,0.048,0.052
		c0.015,0.02,0.036,0.036,0.059,0.052c0.024,0.023,0.052,0.044,0.083,0.064c0.032,0.02,0.064,0.037,0.095,0.052
		c0.064,0.04,0.135,0.082,0.214,0.128c0.08,0.047,0.17,0.097,0.273,0.151c0.102,0.054,0.217,0.113,0.343,0.174
		c0.128,0.062,0.265,0.124,0.417,0.185c0.07,0.039,0.14,0.078,0.207,0.116c0.067,0.039,0.129,0.077,0.183,0.116
		c0.064,0.031,0.123,0.064,0.179,0.097c0.054,0.035,0.11,0.069,0.165,0.099c0.056,0.031,0.105,0.062,0.148,0.093
		c0.044,0.031,0.085,0.062,0.126,0.092c0.039,0.031,0.075,0.062,0.106,0.093c0.033,0.031,0.064,0.062,0.096,0.093
		c0.023,0.031,0.047,0.06,0.071,0.087c0.024,0.027,0.04,0.051,0.047,0.075c0.008,0.015,0.016,0.032,0.023,0.047
		c0.009,0.015,0.017,0.027,0.026,0.034c0.006,0.017,0.015,0.03,0.023,0.041c0.008,0.012,0.015,0.026,0.024,0.04
		c0.006,0.032,0.013,0.061,0.017,0.087c0.005,0.027,0.01,0.053,0.018,0.076c0.016,0.031,0.027,0.06,0.03,0.087
		c0.004,0.027,0.006,0.055,0.006,0.086c0,0.115-0.013,0.226-0.041,0.331c-0.028,0.104-0.07,0.202-0.125,0.295
		c-0.055,0.093-0.118,0.178-0.19,0.255c-0.072,0.077-0.162,0.15-0.273,0.22c-0.102,0.068-0.213,0.129-0.332,0.179
		c-0.119,0.05-0.246,0.091-0.38,0.122c-0.126,0.031-0.261,0.054-0.403,0.07c-0.142,0.014-0.292,0.023-0.451,0.023h-0.071h-0.06
		c-0.024-0.009-0.047-0.011-0.071-0.011h-0.071h-0.042h-0.04h-0.024h-0.023c-0.024-0.008-0.046-0.012-0.066-0.012h-0.054
		c-0.024,0-0.044-0.002-0.065-0.006c-0.02-0.004-0.042-0.006-0.065-0.006c-0.024-0.008-0.046-0.012-0.066-0.012h-0.065
		c-0.048-0.007-0.089-0.014-0.125-0.017c-0.035-0.004-0.073-0.01-0.112-0.018c-0.055-0.008-0.109-0.012-0.16-0.018
		c-0.052-0.003-0.105-0.009-0.16-0.016c-0.048-0.017-0.097-0.03-0.149-0.041c-0.051-0.012-0.105-0.025-0.161-0.041
		c-0.015-0.006-0.033-0.012-0.053-0.017c-0.02-0.004-0.038-0.009-0.054-0.017c-0.032-0.016-0.064-0.03-0.1-0.041
		c-0.036-0.011-0.073-0.026-0.113-0.041c-0.032-0.007-0.062-0.017-0.089-0.029c-0.028-0.011-0.054-0.02-0.077-0.029
		c-0.033-0.015-0.061-0.029-0.09-0.04c-0.027-0.011-0.057-0.021-0.088-0.029v-1.136c0.048,0.032,0.096,0.062,0.148,0.093
		c0.052,0.032,0.105,0.062,0.16,0.093c0.056,0.023,0.11,0.046,0.161,0.07c0.052,0.023,0.101,0.046,0.148,0.07
		c0.11,0.046,0.214,0.087,0.308,0.122c0.096,0.033,0.191,0.067,0.286,0.098c0.086,0.03,0.175,0.055,0.267,0.075
		c0.09,0.019,0.176,0.036,0.254,0.051c0.087,0.009,0.167,0.016,0.238,0.024c0.071,0.008,0.142,0.011,0.213,0.011
		c0.064,0,0.127-0.005,0.19-0.017c0.064-0.012,0.122-0.021,0.178-0.029c0.023-0.008,0.049-0.016,0.077-0.023
		c0.028-0.009,0.054-0.016,0.077-0.023c0.023-0.016,0.05-0.028,0.077-0.041c0.028-0.011,0.053-0.021,0.077-0.028
		c0.047-0.023,0.088-0.05,0.125-0.082c0.035-0.03,0.069-0.062,0.1-0.092c0.025-0.039,0.042-0.08,0.054-0.122
		c0.012-0.043,0.018-0.087,0.018-0.134v-0.035c0-0.008-0.004-0.019-0.011-0.034c0-0.008-0.002-0.019-0.007-0.03
		c-0.003-0.01-0.005-0.021-0.005-0.029c-0.008-0.007-0.015-0.015-0.018-0.023c-0.004-0.007-0.011-0.016-0.018-0.023
		c-0.007-0.008-0.013-0.016-0.013-0.023c-0.007-0.007-0.015-0.016-0.023-0.028c-0.007-0.012-0.019-0.022-0.035-0.03
		c-0.024-0.015-0.047-0.032-0.07-0.052c-0.025-0.019-0.053-0.041-0.084-0.065c-0.016-0.007-0.032-0.017-0.048-0.029
		c-0.016-0.012-0.031-0.021-0.047-0.029c-0.017-0.015-0.032-0.029-0.049-0.04c-0.015-0.011-0.032-0.022-0.047-0.029
		c-0.032-0.016-0.067-0.033-0.107-0.052c-0.04-0.019-0.084-0.041-0.13-0.065c-0.023-0.007-0.045-0.015-0.066-0.023
		c-0.019-0.007-0.041-0.019-0.065-0.034c-0.023-0.007-0.046-0.018-0.065-0.029c-0.02-0.012-0.042-0.021-0.065-0.03
		c-0.055-0.015-0.108-0.034-0.16-0.057c-0.051-0.023-0.097-0.047-0.137-0.07c-0.016-0.008-0.031-0.016-0.048-0.024
		c-0.015-0.007-0.032-0.015-0.047-0.023c-0.032-0.015-0.064-0.03-0.095-0.045c-0.031-0.015-0.063-0.032-0.095-0.047
		c-0.096-0.039-0.188-0.081-0.28-0.128c-0.09-0.047-0.18-0.097-0.267-0.15c-0.087-0.054-0.174-0.11-0.261-0.168
		c-0.087-0.058-0.174-0.118-0.26-0.18c-0.08-0.062-0.151-0.124-0.214-0.186c-0.064-0.062-0.116-0.13-0.155-0.208
		c-0.047-0.077-0.08-0.157-0.095-0.238c-0.016-0.081-0.023-0.164-0.023-0.249c0-0.108,0.009-0.212,0.029-0.312
		c0.019-0.101,0.057-0.193,0.113-0.278c0.047-0.085,0.108-0.163,0.184-0.237c0.075-0.073,0.164-0.141,0.267-0.203
		c0.095-0.061,0.201-0.117,0.32-0.168c0.119-0.05,0.242-0.091,0.368-0.122c0.134-0.03,0.277-0.054,0.427-0.07
		c0.15-0.015,0.312-0.022,0.486-0.022c0.071,0,0.149,0.001,0.231,0.006c0.083,0.003,0.163,0.009,0.243,0.016
		c0.071,0.009,0.149,0.021,0.231,0.035c0.083,0.016,0.164,0.031,0.244,0.047c0.078,0.015,0.159,0.035,0.242,0.057
		c0.083,0.024,0.164,0.05,0.243,0.081c0.087,0.032,0.174,0.06,0.262,0.087c0.087,0.028,0.173,0.06,0.261,0.098V23.19V24.21z"/>
	<path class="st15" d="M-131.275,24.21c-0.103-0.038-0.2-0.077-0.291-0.115c-0.092-0.039-0.18-0.074-0.268-0.104
		c-0.054-0.025-0.11-0.045-0.165-0.065c-0.056-0.019-0.111-0.04-0.167-0.064c-0.031-0.007-0.059-0.015-0.083-0.023
		c-0.023-0.008-0.052-0.015-0.083-0.023c-0.087-0.015-0.171-0.032-0.25-0.052c-0.079-0.019-0.154-0.032-0.225-0.04
		c-0.079-0.016-0.151-0.026-0.214-0.029c-0.063-0.004-0.126-0.006-0.189-0.006c-0.063,0-0.124,0.002-0.184,0.006
		c-0.059,0.004-0.116,0.014-0.172,0.029c-0.056,0.008-0.107,0.021-0.154,0.04c-0.047,0.02-0.091,0.04-0.131,0.064
		c-0.024,0.007-0.043,0.02-0.059,0.035c-0.016,0.016-0.032,0.027-0.047,0.035c-0.016,0.017-0.03,0.029-0.042,0.041
		c-0.012,0.011-0.022,0.026-0.029,0.04c-0.016,0.032-0.03,0.06-0.043,0.087c-0.011,0.027-0.016,0.06-0.016,0.098
		c0,0.032,0.007,0.06,0.023,0.088c0.015,0.027,0.039,0.059,0.071,0.098c0.016,0.016,0.032,0.032,0.048,0.052
		c0.015,0.02,0.035,0.036,0.059,0.052c0.024,0.023,0.051,0.044,0.083,0.064c0.031,0.02,0.063,0.037,0.095,0.052
		c0.063,0.04,0.134,0.082,0.214,0.128c0.08,0.047,0.17,0.097,0.273,0.151c0.103,0.054,0.217,0.113,0.344,0.174
		c0.127,0.062,0.265,0.124,0.415,0.185c0.071,0.039,0.141,0.078,0.208,0.116c0.068,0.039,0.129,0.077,0.184,0.116
		c0.063,0.031,0.123,0.064,0.178,0.097c0.055,0.035,0.11,0.069,0.166,0.099c0.055,0.031,0.105,0.062,0.148,0.093
		c0.044,0.031,0.085,0.062,0.125,0.092c0.04,0.031,0.075,0.062,0.106,0.093c0.032,0.031,0.064,0.062,0.096,0.093
		c0.022,0.031,0.047,0.06,0.071,0.087c0.023,0.027,0.039,0.051,0.048,0.075c0.008,0.015,0.016,0.032,0.023,0.047
		c0.008,0.015,0.015,0.027,0.024,0.034c0.007,0.017,0.016,0.03,0.024,0.041c0.008,0.012,0.016,0.026,0.023,0.04
		c0.007,0.032,0.014,0.061,0.017,0.087c0.004,0.027,0.011,0.053,0.018,0.076c0.016,0.031,0.026,0.06,0.03,0.087
		c0.004,0.027,0.006,0.055,0.006,0.086c0,0.115-0.014,0.226-0.042,0.331c-0.028,0.104-0.07,0.202-0.124,0.295
		c-0.056,0.093-0.118,0.178-0.19,0.255c-0.072,0.077-0.163,0.15-0.274,0.22c-0.102,0.068-0.212,0.129-0.332,0.179
		c-0.118,0.05-0.245,0.091-0.38,0.122c-0.127,0.031-0.261,0.054-0.403,0.07c-0.143,0.014-0.293,0.023-0.451,0.023h-0.071h-0.06
		c-0.024-0.009-0.047-0.011-0.071-0.011h-0.071h-0.042h-0.042h-0.023h-0.023c-0.024-0.008-0.046-0.012-0.065-0.012h-0.054
		c-0.023,0-0.045-0.002-0.066-0.006c-0.019-0.004-0.04-0.006-0.065-0.006c-0.024-0.008-0.045-0.012-0.066-0.012h-0.064
		c-0.048-0.007-0.09-0.014-0.126-0.017c-0.035-0.004-0.072-0.01-0.111-0.018c-0.056-0.008-0.11-0.012-0.161-0.018
		c-0.051-0.003-0.104-0.009-0.16-0.016c-0.047-0.017-0.097-0.03-0.148-0.041c-0.052-0.012-0.105-0.025-0.161-0.041
		c-0.015-0.006-0.033-0.012-0.053-0.017c-0.02-0.004-0.038-0.009-0.053-0.017c-0.032-0.016-0.065-0.03-0.101-0.041
		c-0.036-0.011-0.073-0.026-0.113-0.041c-0.032-0.007-0.062-0.017-0.089-0.029c-0.028-0.011-0.053-0.02-0.078-0.029
		c-0.031-0.015-0.061-0.029-0.089-0.04c-0.027-0.011-0.058-0.021-0.089-0.029v-1.136c0.047,0.032,0.096,0.062,0.148,0.093
		c0.051,0.032,0.104,0.062,0.16,0.093c0.056,0.023,0.108,0.046,0.161,0.07c0.051,0.023,0.1,0.046,0.148,0.07
		c0.111,0.046,0.214,0.087,0.309,0.122c0.094,0.033,0.189,0.067,0.284,0.098c0.087,0.03,0.177,0.055,0.268,0.075
		c0.091,0.019,0.175,0.036,0.254,0.051c0.088,0.009,0.167,0.016,0.238,0.024c0.072,0.008,0.143,0.011,0.214,0.011
		c0.063,0,0.126-0.005,0.19-0.017c0.063-0.012,0.122-0.021,0.177-0.029c0.024-0.008,0.05-0.016,0.077-0.023
		c0.028-0.009,0.054-0.016,0.077-0.023c0.025-0.016,0.049-0.028,0.077-0.041c0.028-0.011,0.053-0.021,0.078-0.028
		c0.048-0.023,0.089-0.05,0.124-0.082c0.036-0.03,0.069-0.062,0.101-0.092c0.024-0.039,0.042-0.08,0.053-0.122
		c0.013-0.043,0.018-0.087,0.018-0.134v-0.035c0-0.008-0.004-0.019-0.012-0.034c0-0.008-0.002-0.019-0.006-0.03
		c-0.004-0.01-0.006-0.021-0.006-0.029c-0.008-0.007-0.014-0.015-0.017-0.023c-0.005-0.007-0.01-0.016-0.019-0.023
		c-0.008-0.008-0.012-0.016-0.012-0.023c-0.008-0.007-0.015-0.016-0.024-0.028c-0.008-0.012-0.02-0.022-0.036-0.03
		c-0.023-0.015-0.047-0.032-0.07-0.052c-0.024-0.019-0.052-0.041-0.084-0.065c-0.016-0.007-0.032-0.017-0.047-0.029
		c-0.016-0.012-0.032-0.021-0.048-0.029c-0.015-0.015-0.032-0.029-0.047-0.04c-0.016-0.011-0.032-0.022-0.048-0.029
		c-0.033-0.016-0.068-0.033-0.107-0.052c-0.04-0.019-0.083-0.041-0.131-0.065c-0.024-0.007-0.046-0.015-0.065-0.023
		c-0.019-0.007-0.042-0.019-0.065-0.034c-0.024-0.007-0.046-0.018-0.065-0.029c-0.02-0.012-0.042-0.021-0.065-0.03
		c-0.056-0.015-0.109-0.034-0.16-0.057c-0.051-0.023-0.097-0.047-0.137-0.07c-0.016-0.008-0.032-0.016-0.048-0.024
		c-0.016-0.007-0.031-0.015-0.048-0.023c-0.032-0.015-0.063-0.03-0.095-0.045c-0.032-0.015-0.063-0.032-0.095-0.047
		c-0.095-0.039-0.187-0.081-0.28-0.128c-0.09-0.047-0.179-0.097-0.266-0.15c-0.088-0.054-0.175-0.11-0.262-0.168
		c-0.087-0.058-0.174-0.118-0.261-0.18c-0.08-0.062-0.15-0.124-0.214-0.186c-0.064-0.062-0.115-0.13-0.155-0.208
		c-0.047-0.077-0.079-0.157-0.094-0.238c-0.016-0.081-0.024-0.164-0.024-0.249c0-0.108,0.01-0.212,0.03-0.312
		c0.019-0.101,0.058-0.193,0.112-0.278c0.048-0.085,0.109-0.163,0.184-0.237c0.076-0.073,0.165-0.141,0.267-0.203
		c0.095-0.061,0.201-0.117,0.321-0.168c0.118-0.05,0.24-0.091,0.368-0.122c0.134-0.03,0.278-0.054,0.427-0.07
		c0.15-0.015,0.312-0.022,0.487-0.022c0.071,0,0.148,0.001,0.232,0.006c0.083,0.003,0.163,0.009,0.242,0.016
		c0.071,0.009,0.149,0.021,0.232,0.035c0.082,0.016,0.163,0.031,0.242,0.047c0.08,0.015,0.161,0.035,0.244,0.057
		c0.084,0.024,0.164,0.05,0.244,0.081c0.087,0.032,0.173,0.06,0.261,0.087c0.086,0.028,0.174,0.06,0.261,0.098V23.19V24.21z"/>
	<path class="st15" d="M-124.47,27.558c-0.007,0.009-0.013,0.016-0.017,0.024c-0.005,0.007-0.014,0.015-0.03,0.022
		c-0.009,0.008-0.02,0.016-0.036,0.024c-0.016,0.008-0.027,0.014-0.034,0.017c-0.008,0.005-0.017,0.006-0.025,0.006
		c-0.008,0.008-0.016,0.013-0.024,0.017c-0.008,0.005-0.015,0.006-0.023,0.006c-0.009,0.008-0.017,0.014-0.025,0.018
		c-0.007,0.004-0.016,0.006-0.023,0.006c-0.009,0.007-0.016,0.013-0.023,0.018c-0.009,0.003-0.017,0.006-0.025,0.006
		c-0.007,0-0.019,0.004-0.035,0.012c-0.008,0.007-0.016,0.013-0.024,0.017c-0.008,0.004-0.016,0.006-0.023,0.006
		c-0.048,0.023-0.093,0.043-0.137,0.058c-0.043,0.016-0.085,0.035-0.125,0.058c-0.04,0.016-0.081,0.029-0.124,0.04
		c-0.043,0.012-0.089,0.026-0.136,0.041c-0.048,0.016-0.093,0.028-0.137,0.04c-0.043,0.012-0.085,0.022-0.125,0.029
		c-0.039,0.008-0.081,0.016-0.124,0.025c-0.043,0.007-0.09,0.014-0.137,0.023c-0.087,0.007-0.178,0.019-0.272,0.035
		c-0.095,0.015-0.194,0.027-0.298,0.035c-0.102,0.007-0.21,0.013-0.325,0.016c-0.115,0.006-0.231,0.007-0.35,0.007
		c-0.255,0-0.495-0.016-0.724-0.046c-0.23-0.031-0.448-0.077-0.654-0.139c-0.197-0.07-0.381-0.157-0.551-0.261
		c-0.171-0.104-0.326-0.226-0.469-0.364c-0.142-0.139-0.265-0.285-0.367-0.436c-0.103-0.15-0.19-0.306-0.262-0.468
		c-0.071-0.163-0.123-0.328-0.154-0.499c-0.032-0.169-0.048-0.343-0.048-0.521c0-0.201,0.015-0.389,0.048-0.562
		c0.031-0.174,0.083-0.343,0.154-0.504c0.08-0.162,0.171-0.313,0.273-0.452c0.102-0.139,0.229-0.271,0.38-0.394
		c0.143-0.123,0.297-0.232,0.463-0.325c0.167-0.091,0.344-0.165,0.534-0.22c0.198-0.062,0.402-0.107,0.612-0.139
		c0.21-0.031,0.425-0.046,0.647-0.046s0.429,0.015,0.623,0.046c0.194,0.032,0.378,0.077,0.552,0.139
		c0.182,0.054,0.35,0.126,0.504,0.215c0.155,0.089,0.299,0.192,0.434,0.307c0.126,0.124,0.237,0.261,0.332,0.411
		c0.095,0.151,0.178,0.315,0.249,0.493c0.064,0.177,0.114,0.37,0.149,0.579c0.035,0.209,0.053,0.432,0.053,0.672l-4.688-0.023
		c0.023,0.14,0.058,0.267,0.101,0.383c0.043,0.116,0.093,0.223,0.148,0.324c0.063,0.101,0.135,0.192,0.215,0.272
		c0.079,0.082,0.166,0.153,0.261,0.215c0.087,0.069,0.186,0.127,0.296,0.174c0.111,0.046,0.229,0.089,0.356,0.127
		c0.135,0.031,0.271,0.054,0.409,0.069c0.139,0.016,0.291,0.024,0.457,0.024h0.113h0.113c0.032,0,0.064-0.001,0.101-0.006
		c0.035-0.005,0.073-0.01,0.113-0.018c0.024,0,0.047-0.002,0.071-0.005c0.023-0.004,0.048-0.006,0.071-0.006
		c0.008,0,0.02-0.001,0.036-0.005c0.016-0.004,0.028-0.006,0.036-0.006c0.039-0.008,0.077-0.016,0.113-0.024
		c0.034-0.008,0.073-0.015,0.112-0.023c0.04-0.007,0.078-0.016,0.114-0.023c0.035-0.007,0.069-0.015,0.1-0.023
		c0.032-0.016,0.067-0.03,0.107-0.04c0.04-0.013,0.079-0.022,0.119-0.03c0.031-0.015,0.066-0.029,0.101-0.041
		c0.035-0.011,0.073-0.021,0.112-0.028c0.04-0.016,0.078-0.029,0.113-0.04c0.036-0.012,0.07-0.025,0.101-0.041h0.018
		c0.005,0,0.01-0.004,0.018-0.011c0.008-0.007,0.016-0.011,0.023-0.011c0.009,0,0.016-0.002,0.025-0.006
		c0.007-0.004,0.015-0.01,0.023-0.018c0.008,0,0.016-0.002,0.023-0.005c0.008-0.004,0.016-0.006,0.024-0.006
		c0.007-0.008,0.016-0.014,0.025-0.018c0.007-0.004,0.018-0.009,0.035-0.017c0.015-0.007,0.029-0.013,0.041-0.018
		c0.012-0.003,0.022-0.009,0.03-0.017c0.024-0.015,0.048-0.029,0.071-0.04c0.024-0.011,0.051-0.021,0.083-0.029
		c0.016-0.016,0.036-0.028,0.059-0.041c0.024-0.012,0.052-0.021,0.083-0.028v-0.023V27.558z M-125.656,24.94
		c-0.008-0.093-0.022-0.182-0.043-0.267c-0.02-0.085-0.049-0.165-0.088-0.244c-0.032-0.077-0.075-0.149-0.131-0.22
		c-0.055-0.069-0.115-0.131-0.178-0.185c-0.079-0.062-0.16-0.112-0.243-0.151c-0.083-0.039-0.168-0.073-0.255-0.104
		c-0.096-0.031-0.194-0.054-0.297-0.069c-0.102-0.016-0.21-0.024-0.32-0.024c-0.127,0-0.245,0.008-0.355,0.024
		c-0.111,0.015-0.222,0.038-0.333,0.069c-0.102,0.031-0.198,0.065-0.284,0.104c-0.088,0.04-0.171,0.086-0.25,0.139
		c-0.071,0.054-0.138,0.117-0.202,0.185c-0.063,0.069-0.118,0.147-0.165,0.231c-0.04,0.079-0.079,0.161-0.12,0.25
		c-0.039,0.089-0.067,0.184-0.082,0.284V24.94H-125.656z"/>
	<path class="st15" d="M-119.244,23.107c-0.287-0.185-0.488-0.231-0.633-0.268s-0.347-0.054-0.347-0.054
		c-0.11-0.007-0.191-0.001-0.242,0.005c-0.04,0.001-0.076,0.006-0.113,0.009c-0.038,0.001-0.079,0.005-0.122,0.009
		c-1.014,0.095-1.515,0.619-1.617,0.74v-0.683h-1.334v5.202h1.334V25.41c0-0.336,0.065-0.51,0.065-0.51
		c0.056-0.291,0.336-0.596,0.432-0.694c0.095-0.098,0.286-0.22,0.286-0.22c0.367-0.216,0.839-0.228,0.839-0.228
		c0.197-0.019,0.439,0.065,0.566,0.116c0.128,0.05,0.453,0.288,0.453,0.288l0.677-0.895
		C-119.051,23.23-119.244,23.107-119.244,23.107"/>
</g>
</svg>
