<?xml version="1.0" encoding="utf-8"?>
<!-- Generator: Adobe Illustrator 24.0.3, SVG Export Plug-In . SVG Version: 6.00 Build 0)  -->
<svg version="1.1" id="Capa_1" xmlns="http://www.w3.org/2000/svg" xmlns:xlink="http://www.w3.org/1999/xlink" x="0px" y="0px"
	 width="300px" height="185.922px" viewBox="0 0 300 185.922" style="enable-background:new 0 0 300 185.922;" xml:space="preserve"
	>
<style type="text/css">
	.st0{fill:#FFB406;}
</style>
<g>
	<g>
		<path class="st0" d="M26.394,153.388v9.674H0v-40.485h25.905v9.641H11.104v5.961h13.297v9.149H11.104v6.06H26.394z"/>
		<path class="st0" d="M64.28,122.577v40.485h-9.224l-16.083-21.97v21.97H28.164v-40.485h9.762l15.546,21.24v-21.24H64.28z"/>
	</g>
	<g>
		<path class="st0" d="M21.369,15.005v9.581h19.343v14.514H21.369v21.094H4.639V0h38.309v15.005H21.369z"/>
		<path class="st0" d="M83.803,45.811v14.384H44.559V0h38.517v14.335H61.069v8.863H80.84V36.8H61.069v9.011H83.803z"/>
		<path class="st0" d="M124.66,45.008v15.186H86.435V0h16.803v45.008H124.66z"/>
		<path class="st0" d="M126.185,0h16.803v60.195h-16.803V0z"/>
		<path class="st0" d="M191.588,44.753v15.442H143.93v-3.45l22.302-41.303h-20.841V0h45.164v3.748l-22.187,41.006H191.588z"/>
	</g>
	<g>
		<path class="st0" d="M242.085,60.24l-3.254-24.015l-11.059,24.083h-3.394l-11.054-24.074l-3.208,24.005h-11.641l6.307-41.7h11.472
			l9.82,22.69l9.884-22.69h11.472l6.248,41.7H242.085z"/>
		<path class="st0" d="M281.766,50.275v9.965H254.58v-41.7h26.683v9.93h-15.245v6.14h13.696v9.423h-13.696v6.242H281.766z"/>
	</g>
	<g>
		<path class="st0" d="M65.955,125.607l-6.327-7.789c-3.265,1.023-6.831,1.569-10.628,1.569c-18.056,0-30.94-12.338-30.94-29.504
			S30.944,60.381,49,60.381c18.01,0,30.848,12.291,30.848,29.503c0,8.83-3.379,16.365-9.101,21.609l11.657,14.113H65.955z
			 M49,104.988c8.549,0,14.738-6.314,14.738-15.104c0-8.789-6.188-15.104-14.738-15.104c-8.548,0-14.829,6.36-14.829,15.104
			S40.451,104.988,49,104.988z"/>
		<path class="st0" d="M80.818,96.24V61.801h15.814v34.15c0,5.49,3.538,9.037,8.705,9.037c5.166,0,8.704-3.547,8.704-9.037v-34.15
			h15.814V96.24c0,13.818-10.2,23.148-24.518,23.148C91.018,119.388,80.818,110.058,80.818,96.24z"/>
		<path class="st0" d="M170.346,104.546v13.422h-36.618V61.801h35.939v13.375h-20.534v8.269h18.448v12.692h-18.448v8.408H170.346z"
			/>
		<path class="st0" d="M224.528,89.838c0,16.39-12.036,28.129-28.995,28.129h-22.732V61.801h22.732
			C212.539,61.801,224.528,73.425,224.528,89.838z M208.665,89.838c0-8.333-5.544-13.867-13.861-13.867h-6.461v27.825h6.461
			C203.122,103.797,208.665,98.124,208.665,89.838z"/>
		<path class="st0" d="M254.161,119.388c-18.056,0-30.94-12.338-30.94-29.504s12.885-29.504,30.94-29.504
			c18.009,0,30.847,12.291,30.847,29.504C285.009,107.096,272.171,119.388,254.161,119.388L254.161,119.388z M254.161,104.99
			c8.549,0,14.737-6.315,14.737-15.104c0-8.79-6.188-15.105-14.737-15.105c-8.549,0-14.829,6.36-14.829,15.104
			s6.28,15.104,14.829,15.104V104.99z"/>
	</g>
	<g>
		<path class="st0" d="M102.29,185.922c-19.369,0-33.834-14.339-33.834-33.374c0-19.14,14.465-33.48,33.834-33.48
			c16.677,0,29.594,11.008,32.18,27.143h-17.762c-2.185-6.526-7.683-10.763-14.38-10.763c-9.011,0-15.62,7.245-15.62,17.099
			c0,9.816,6.609,16.956,15.62,16.956c7.061,0,12.612-4.601,14.395-11.673h17.931C132.234,174.563,119.24,185.921,102.29,185.922
			L102.29,185.922z"/>
		<path class="st0" d="M171.919,173.977h-22.556l-3.525,10.335h-18.787l24.997-63.635h17.137l25.545,63.635h-19.305L171.919,173.977
			z M160.606,140.539l-6.973,19.719h14.008L160.606,140.539z"/>
		<path class="st0" d="M187.853,163.764h18.085c0,4.545,3.507,6.758,7.505,6.758c3.672,0,7.179-1.954,7.179-5.43
			c0-3.992-4.954-5.149-11.011-6.617c-9.198-2.286-20.94-5.105-20.94-19.592c0-12.532,9.207-19.71,24.212-19.71
			c15.257,0,24.005,7.832,24.005,20.778h-17.581c0-4.025-3-5.912-6.633-5.912c-3.124,0-6.124,1.353-6.124,4.323
			c0,3.615,4.796,4.81,10.788,6.316c9.366,2.417,21.613,5.546,21.613,20.077c0,13.898-10.68,21.112-25.457,21.112
			C197.919,185.868,187.853,177.635,187.853,163.764z"/>
		<path class="st0" d="M277.189,173.977h-22.556l-3.525,10.335h-18.787l24.997-63.635h17.137L300,184.312h-19.305L277.189,173.977z
			 M265.875,140.539l-6.973,19.719h14.008L265.875,140.539z"/>
	</g>
</g>
</svg>
