<?xml version="1.0" encoding="utf-8"?>
<!-- Generator: Adobe Illustrator 24.0.3, SVG Export Plug-In . SVG Version: 6.00 Build 0)  -->
<svg version="1.1" id="Capa_1" xmlns="http://www.w3.org/2000/svg" xmlns:xlink="http://www.w3.org/1999/xlink" x="0px" y="0px"
	 width="50px" height="50px" viewBox="0 0 50 50" style="enable-background:new 0 0 50 50;" xml:space="preserve">
<style type="text/css">
	.st0{fill:#FFFFFF;}
	.st1{fill:#FFB406;}
	.st2{fill:#DC2015;}
	.st3{fill:none;stroke:#FFFFFF;stroke-width:0.5644;stroke-miterlimit:3.864;}
	.st4{fill-rule:evenodd;clip-rule:evenodd;fill:#FEFEFE;}
	.st5{fill:#FABA01;}
	.st6{fill:#003772;}
	.st7{fill:#002F87;}
	.st8{fill-rule:evenodd;clip-rule:evenodd;fill:#002F87;}
	.st9{fill:#FF5100;}
	.st10{fill-rule:evenodd;clip-rule:evenodd;fill:#FFFFFF;}
	.st11{fill:#C10000;}
	.st12{fill-rule:evenodd;clip-rule:evenodd;fill:#001F82;}
	.st13{fill:#001F82;}
	.st14{fill-rule:evenodd;clip-rule:evenodd;fill:#E1251B;}
	.st15{fill:#E1251B;}
</style>
<rect y="72.574" class="st0" width="700" height="367.223"/>
<g>
	<g>
		<path class="st1" d="M26.394-95.528v9.674H0v-40.485h25.905v9.641H11.104v5.961h13.297v9.148H11.104v6.06H26.394z"/>
		<path class="st1" d="M64.28-126.338v40.485h-9.224l-16.083-21.97v21.97H28.164v-40.485h9.762l15.546,21.24v-21.24H64.28z"/>
	</g>
	<g>
		<path class="st1" d="M21.369-233.911v9.581h19.343v14.514H21.369v21.094H4.639v-60.195h38.309v15.005H21.369z"/>
		<path class="st1" d="M83.803-203.105v14.384H44.559v-60.195h38.517v14.335H61.069v8.863H80.84v13.603H61.069v9.011H83.803z"/>
		<path class="st1" d="M124.66-203.907v15.186H86.435v-60.195h16.803v45.008H124.66z"/>
		<path class="st1" d="M126.185-248.915h16.803v60.195h-16.803V-248.915z"/>
		<path class="st1" d="M191.588-204.162v15.442H143.93v-3.45l22.302-41.303h-20.841v-15.442h45.164v3.748l-22.187,41.006H191.588z"
			/>
	</g>
	<g>
		<path class="st1" d="M242.085-188.676l-3.254-24.015l-11.059,24.083h-3.394l-11.054-24.074l-3.208,24.005h-11.641l6.307-41.7
			h11.472l9.82,22.69l9.884-22.69h11.472l6.248,41.7H242.085z"/>
		<path class="st1" d="M281.766-198.64v9.965H254.58v-41.7h26.683v9.93h-15.245v6.14h13.696v9.423h-13.696v6.242H281.766z"/>
	</g>
	<g>
		<path class="st1" d="M65.955-123.309l-6.327-7.789c-3.265,1.023-6.831,1.569-10.628,1.569c-18.056,0-30.94-12.338-30.94-29.504
			S30.944-188.534,49-188.534c18.01,0,30.848,12.291,30.848,29.503c0,8.83-3.379,16.365-9.101,21.609l11.657,14.113H65.955z
			 M49-143.928c8.549,0,14.738-6.314,14.738-15.104c0-8.789-6.188-15.104-14.738-15.104c-8.548,0-14.829,6.36-14.829,15.104
			C34.171-150.288,40.451-143.928,49-143.928z"/>
		<path class="st1" d="M80.818-152.676v-34.439h15.814v34.15c0,5.49,3.538,9.037,8.705,9.037c5.166,0,8.704-3.547,8.704-9.037
			v-34.15h15.814v34.439c0,13.818-10.2,23.148-24.518,23.148C91.018-129.528,80.818-138.857,80.818-152.676z"/>
		<path class="st1" d="M170.346-144.37v13.422h-36.618v-56.166h35.939v13.375h-20.534v8.269h18.448v12.692h-18.448v8.408H170.346z"
			/>
		<path class="st1" d="M224.528-159.077c0,16.39-12.036,28.129-28.995,28.129h-22.732v-56.166h22.732
			C212.539-187.115,224.528-175.49,224.528-159.077z M208.665-159.077c0-8.333-5.544-13.867-13.861-13.867h-6.461v27.825h6.461
			C203.122-145.118,208.665-150.791,208.665-159.077z"/>
		<path class="st1" d="M254.161-129.527c-18.056,0-30.94-12.338-30.94-29.504s12.885-29.504,30.94-29.504
			c18.009,0,30.847,12.291,30.847,29.504C285.009-141.819,272.171-129.528,254.161-129.527L254.161-129.527z M254.161-143.925
			c8.549,0,14.737-6.315,14.737-15.104c0-8.79-6.188-15.105-14.737-15.105c-8.549,0-14.829,6.36-14.829,15.104
			s6.28,15.104,14.829,15.104V-143.925z"/>
	</g>
	<g>
		<path class="st1" d="M102.29-62.993c-19.369,0-33.834-14.339-33.834-33.374c0-19.14,14.465-33.48,33.834-33.48
			c16.677,0,29.594,11.008,32.18,27.143h-17.762c-2.185-6.526-7.683-10.763-14.38-10.763c-9.011,0-15.62,7.245-15.62,17.099
			c0,9.815,6.609,16.956,15.62,16.956c7.061,0,12.612-4.601,14.395-11.673h17.931C132.234-74.352,119.24-62.994,102.29-62.993
			L102.29-62.993z"/>
		<path class="st1" d="M171.919-74.939h-22.556l-3.525,10.335h-18.787l24.997-63.635h17.137l25.545,63.635h-19.305L171.919-74.939z
			 M160.606-108.376l-6.973,19.719h14.008L160.606-108.376z"/>
		<path class="st1" d="M187.853-85.151h18.085c0,4.545,3.507,6.758,7.505,6.758c3.672,0,7.179-1.954,7.179-5.43
			c0-3.992-4.954-5.149-11.011-6.617c-9.198-2.286-20.94-5.105-20.94-19.592c0-12.532,9.207-19.71,24.212-19.71
			c15.257,0,24.005,7.832,24.005,20.778h-17.581c0-4.025-3-5.912-6.633-5.912c-3.124,0-6.124,1.353-6.124,4.323
			c0,3.615,4.796,4.81,10.788,6.316c9.366,2.417,21.613,5.545,21.613,20.077c0,13.898-10.68,21.112-25.457,21.112
			C197.919-63.047,187.853-71.281,187.853-85.151z"/>
		<path class="st1" d="M277.189-74.939h-22.556l-3.525,10.335h-18.787l24.997-63.635h17.137L300-64.603h-19.305L277.189-74.939z
			 M265.875-108.376l-6.973,19.719h14.008L265.875-108.376z"/>
	</g>
</g>
<g>
	<g>
		<g>
			<g>
				<rect y="-50.221" class="st0" width="100" height="37.25"/>
				<rect x="1.453" y="-48.768" class="st2" width="97.191" height="24.908"/>
				<polygon class="st0" points="25.89,-46.023 21.665,-26.995 31.142,-26.995 32.551,-37.455 36.713,-26.995 42.413,-26.995 
					46.702,-37.519 48.112,-26.995 57.46,-26.995 52.913,-46.023 43.308,-46.023 39.528,-36.112 35.945,-46.023 				"/>
				<polygon class="st0" points="55.202,-46.023 75.492,-46.023 75.492,-39.748 70.208,-39.748 70.208,-26.995 60.484,-26.995 
					60.484,-39.748 55.202,-39.748 				"/>
				<polygon class="st0" points="10.146,-34.131 3.598,-34.131 3.598,-38.861 4.371,-38.861 4.371,-34.997 6.377,-34.997 
					6.377,-38.616 7.145,-38.616 7.145,-34.997 9.373,-34.997 9.373,-39.014 10.146,-39.014 				"/>
				<g>
					<path class="st0" d="M97.433-25.985c0,0.176-0.112,0.257-0.272,0.257h-0.47v-0.516h0.47
						C97.323-26.244,97.433-26.152,97.433-25.985 M97.677-25.992c0-0.331-0.236-0.48-0.516-0.48h-0.707v1.609h0.238V-25.5h0.363
						l0.319,0.637h0.277l-0.328-0.657C97.542-25.575,97.677-25.734,97.677-25.992"/>
					<circle class="st3" cx="96.937" cy="-25.677" r="1.204"/>
					<path class="st0" d="M75.357-28.551c2.356,0.729,5.63,1.298,5.63,1.298c1.976,0.325,2.434,0.403,5.602,0.35
						c3.167-0.054,6.059-1.324,6.059-1.324c3.084-1.268,3.763-3.403,3.763-3.403c1.301-2.46-0.27-4.596-0.27-4.596
						c-1.109-1.647-4.059-2.405-4.059-2.405c-0.782-0.432-5.198-0.89-5.198-0.89c-1.407-0.108-0.999-0.919-0.999-0.919
						c0.054-0.974,2.787-0.783,2.974-0.783c1.379,0,4.438,1.432,4.438,1.432l2.68-4.997c-2.542-1.379-7.062-1.595-7.062-1.595
						c-3.844-0.403-7.468,0.998-7.468,0.998c-5.438,1.756-5.168,5.918-5.168,5.918c-0.065,1.222,0.642,2.803,2.083,3.675
						c2.189,1.321,5.471,1.647,5.601,1.647c1.65,0,2.463,0.379,2.463,0.379c1.245,0.379,0.325,1.324,0.325,1.324
						c-0.674,0.378-1.92,0.432-1.92,0.432c-3.191,0.218-6.684-2.026-6.684-2.026L75.357-28.551z"/>
					<path class="st0" d="M6.488-28.048v-1.86c0-0.395-0.042-0.704-0.121-0.928c-0.084-0.224-0.215-0.393-0.393-0.509
						c-0.182-0.115-0.378-0.173-0.588-0.173c-0.31,0-0.565,0.112-0.765,0.338c-0.199,0.224-0.298,0.578-0.298,1.063v2.07H6.488z
						 M10.146-27.182H3.598v-2.9c0-0.583,0.06-1.026,0.18-1.331c0.115-0.303,0.323-0.546,0.619-0.728
						c0.298-0.182,0.627-0.271,0.989-0.271c0.463,0,0.856,0.15,1.173,0.45c0.32,0.3,0.523,0.765,0.609,1.392
						c0.11-0.229,0.219-0.402,0.326-0.522c0.231-0.252,0.521-0.491,0.871-0.718l1.781-1.137v1.088l-1.362,0.866
						c-0.393,0.254-0.693,0.462-0.901,0.626c-0.21,0.164-0.355,0.309-0.438,0.44c-0.085,0.128-0.142,0.259-0.174,0.393
						c-0.022,0.099-0.031,0.259-0.031,0.483v1.003h2.907V-27.182z"/>
					<path class="st0" d="M9.373-41.421v-1.396c0-0.431-0.041-0.769-0.121-1.012c-0.08-0.247-0.193-0.444-0.339-0.588
						c-0.206-0.207-0.481-0.366-0.826-0.478c-0.348-0.117-0.769-0.175-1.263-0.175c-0.685,0-1.211,0.114-1.578,0.339
						c-0.369,0.224-0.616,0.495-0.74,0.817c-0.089,0.232-0.134,0.605-0.134,1.119v1.375H9.373z M10.146-40.555H3.598v-2.252
						c0-0.509,0.031-0.898,0.094-1.166c0.087-0.375,0.243-0.694,0.469-0.959c0.292-0.345,0.666-0.602,1.12-0.772
						c0.453-0.173,0.97-0.258,1.554-0.259c0.498,0,0.938,0.058,1.322,0.175c0.385,0.115,0.704,0.265,0.955,0.445
						c0.251,0.182,0.449,0.381,0.594,0.597c0.143,0.215,0.253,0.475,0.325,0.782c0.076,0.303,0.112,0.653,0.112,1.048V-40.555z"/>
					<polygon points="3.598,-21.997 7.814,-21.997 7.814,-20.717 5.163,-20.717 5.163,-19.141 7.64,-19.141 7.64,-17.873 
						5.163,-17.873 5.163,-15.099 3.598,-15.099 					"/>
					<path d="M9.87-17.106c0.051,0.646,0.685,0.952,1.412,0.952c0.532,0,0.962-0.072,1.382-0.205l0.205,1.054
						c-0.511,0.205-1.136,0.307-1.811,0.307c-1.699,0-2.671-0.982-2.671-2.548c0-1.269,0.787-2.671,2.526-2.671
						c1.617,0,2.231,1.258,2.231,2.497c0,0.266-0.03,0.501-0.051,0.613H9.87z M11.702-18.17c0-0.378-0.164-1.013-0.88-1.013
						c-0.655,0-0.921,0.594-0.962,1.013H11.702z"/>
					<path d="M14.076-18.456c0-0.737-0.021-1.218-0.042-1.648h1.34l0.052,0.921h0.041c0.256-0.726,0.87-1.033,1.35-1.033
						c0.143,0,0.216,0,0.328,0.021v1.463c-0.112-0.02-0.245-0.04-0.42-0.04c-0.573,0-0.961,0.307-1.064,0.787
						c-0.02,0.102-0.03,0.225-0.03,0.348v2.537h-1.555V-18.456z"/>
					<path d="M17.964-18.456c0-0.737-0.021-1.218-0.041-1.648h1.34l0.052,0.921h0.04c0.257-0.726,0.87-1.033,1.351-1.033
						c0.143,0,0.215,0,0.328,0.021v1.463c-0.112-0.02-0.246-0.04-0.419-0.04c-0.573,0-0.962,0.307-1.064,0.787
						c-0.021,0.102-0.03,0.225-0.03,0.348v2.537h-1.556V-18.456z"/>
					<path d="M22.968-17.106c0.051,0.646,0.685,0.952,1.412,0.952c0.532,0,0.961-0.072,1.381-0.205l0.205,1.054
						c-0.512,0.205-1.137,0.307-1.811,0.307c-1.698,0-2.67-0.982-2.67-2.548c0-1.269,0.787-2.671,2.526-2.671
						c1.617,0,2.23,1.258,2.23,2.497c0,0.266-0.031,0.501-0.051,0.613H22.968z M24.799-18.17c0-0.378-0.164-1.013-0.88-1.013
						c-0.655,0-0.921,0.594-0.962,1.013H24.799z"/>
					<path d="M28.913-21.536v1.432h1.115v1.147h-1.115v1.811c0,0.604,0.143,0.88,0.613,0.88c0.194,0,0.348-0.021,0.461-0.041
						l0.01,1.177c-0.204,0.082-0.572,0.134-1.012,0.134c-0.501,0-0.921-0.174-1.166-0.43c-0.287-0.296-0.431-0.778-0.431-1.483
						v-2.046h-0.665v-1.147h0.665v-1.084L28.913-21.536z"/>
					<path d="M32.074-17.106c0.051,0.646,0.685,0.952,1.412,0.952c0.532,0,0.962-0.072,1.382-0.205l0.205,1.054
						c-0.512,0.205-1.136,0.307-1.811,0.307c-1.699,0-2.671-0.982-2.671-2.548c0-1.269,0.788-2.671,2.528-2.671
						c1.617,0,2.23,1.258,2.23,2.497c0,0.266-0.031,0.501-0.052,0.613H32.074z M33.906-18.17c0-0.378-0.164-1.013-0.88-1.013
						c-0.655,0-0.921,0.594-0.962,1.013H33.906z"/>
					<path d="M36.28-18.456c0-0.737-0.021-1.218-0.041-1.648h1.34l0.051,0.921h0.041c0.256-0.726,0.87-1.033,1.35-1.033
						c0.143,0,0.215,0,0.328,0.021v1.463c-0.113-0.02-0.245-0.04-0.419-0.04c-0.573,0-0.961,0.307-1.064,0.787
						c-0.021,0.102-0.03,0.225-0.03,0.348v2.537H36.28V-18.456z"/>
					<path d="M45.028-17.658c0,1.831-1.299,2.671-2.639,2.671c-1.463,0-2.589-0.962-2.589-2.579s1.064-2.65,2.671-2.65
						C44.005-20.216,45.028-19.162,45.028-17.658 M41.406-17.607c0,0.86,0.359,1.504,1.024,1.504c0.603,0,0.993-0.604,0.993-1.504
						c0-0.747-0.287-1.504-0.993-1.504C41.682-19.111,41.406-18.344,41.406-17.607"/>
					<path d="M45.98-16.46c0.287,0.173,0.881,0.377,1.341,0.377c0.47,0,0.666-0.163,0.666-0.419c0-0.255-0.153-0.378-0.737-0.573
						c-1.034-0.348-1.432-0.911-1.423-1.504c0-0.931,0.799-1.637,2.037-1.637c0.583,0,1.105,0.133,1.412,0.286l-0.276,1.074
						c-0.225-0.122-0.655-0.285-1.085-0.285c-0.378,0-0.593,0.153-0.593,0.408c0,0.236,0.195,0.359,0.808,0.574
						c0.952,0.327,1.351,0.808,1.36,1.544c0,0.931-0.737,1.617-2.169,1.617c-0.655,0-1.238-0.143-1.617-0.348L45.98-16.46z"/>
					<path d="M57.348-22.364v5.77c0,0.563,0.021,1.157,0.042,1.494h-1.382l-0.072-0.736h-0.021c-0.317,0.563-0.92,0.849-1.566,0.849
						c-1.186,0-2.138-1.013-2.138-2.568c-0.011-1.689,1.044-2.661,2.24-2.661c0.614,0,1.095,0.215,1.32,0.563h0.021v-2.711H57.348z
						 M55.793-17.986c0-0.082-0.01-0.194-0.021-0.276c-0.091-0.42-0.43-0.768-0.91-0.768c-0.706,0-1.075,0.635-1.075,1.423
						c0,0.849,0.419,1.381,1.064,1.381c0.45,0,0.808-0.307,0.9-0.747c0.031-0.113,0.041-0.226,0.041-0.359V-17.986z"/>
					<path d="M59.793-17.106c0.052,0.646,0.686,0.952,1.412,0.952c0.532,0,0.962-0.072,1.382-0.205l0.204,1.054
						c-0.511,0.205-1.136,0.307-1.811,0.307c-1.699,0-2.671-0.982-2.671-2.548c0-1.269,0.787-2.671,2.527-2.671
						c1.617,0,2.23,1.258,2.23,2.497c0,0.266-0.03,0.501-0.051,0.613H59.793z M61.624-18.17c0-0.378-0.163-1.013-0.879-1.013
						c-0.655,0-0.921,0.594-0.962,1.013H61.624z"/>
					<path d="M67.222-20.104l0.676,2.324c0.122,0.419,0.214,0.818,0.286,1.217h0.031c0.082-0.409,0.164-0.787,0.276-1.217
						l0.645-2.324h1.637L68.91-15.1h-1.555l-1.822-5.004H67.222z"/>
					<path d="M72.532-17.106c0.051,0.646,0.686,0.952,1.412,0.952c0.533,0,0.962-0.072,1.381-0.205l0.205,1.054
						c-0.511,0.205-1.136,0.307-1.811,0.307c-1.698,0-2.67-0.982-2.67-2.548c0-1.269,0.787-2.671,2.527-2.671
						c1.617,0,2.231,1.258,2.231,2.497c0,0.266-0.031,0.501-0.052,0.613H72.532z M74.364-18.17c0-0.378-0.164-1.013-0.88-1.013
						c-0.654,0-0.921,0.594-0.961,1.013H74.364z"/>
					<path d="M76.738-18.456c0-0.737-0.02-1.218-0.041-1.648h1.34l0.052,0.921h0.041c0.256-0.726,0.87-1.033,1.351-1.033
						c0.143,0,0.215,0,0.328,0.021v1.463c-0.112-0.02-0.246-0.04-0.42-0.04c-0.573,0-0.962,0.307-1.064,0.787
						c-0.02,0.102-0.03,0.225-0.03,0.348v2.537h-1.556V-18.456z"/>
					<path d="M85.395-22.364v5.77c0,0.563,0.02,1.157,0.041,1.494h-1.382l-0.072-0.736h-0.021c-0.317,0.563-0.92,0.849-1.565,0.849
						c-1.187,0-2.138-1.013-2.138-2.568c-0.01-1.689,1.044-2.661,2.241-2.661c0.614,0,1.094,0.215,1.319,0.563h0.021v-2.711H85.395z
						 M83.839-17.986c0-0.082-0.01-0.194-0.021-0.276c-0.092-0.42-0.429-0.768-0.911-0.768c-0.705,0-1.074,0.635-1.074,1.423
						c0,0.849,0.419,1.381,1.064,1.381c0.45,0,0.808-0.307,0.9-0.747c0.031-0.113,0.041-0.226,0.041-0.359V-17.986z"/>
					<path d="M89.487-15.1l-0.091-0.501h-0.031c-0.327,0.4-0.839,0.614-1.433,0.614c-1.012,0-1.616-0.736-1.616-1.534
						c0-1.3,1.166-1.923,2.936-1.913v-0.072c0-0.266-0.143-0.645-0.911-0.645c-0.511,0-1.054,0.174-1.381,0.379l-0.287-1.003
						c0.348-0.195,1.033-0.441,1.944-0.441c1.668,0,2.2,0.982,2.2,2.16v1.739c0,0.481,0.02,0.941,0.072,1.218H89.487z
						 M89.303-17.463c-0.819-0.01-1.452,0.184-1.452,0.788c0,0.399,0.266,0.593,0.614,0.593c0.389,0,0.706-0.255,0.808-0.572
						c0.021-0.082,0.03-0.175,0.03-0.266V-17.463z"/>
					<path d="M96.896-22.364v5.77c0,0.563,0.019,1.157,0.041,1.494h-1.381l-0.073-0.736h-0.02c-0.317,0.563-0.92,0.849-1.565,0.849
						c-1.187,0-2.138-1.013-2.138-2.568c-0.01-1.689,1.044-2.661,2.24-2.661c0.614,0,1.095,0.215,1.319,0.563h0.021v-2.711H96.896z
						 M95.34-17.986c0-0.082-0.01-0.194-0.021-0.276c-0.092-0.42-0.429-0.768-0.91-0.768c-0.706,0-1.075,0.635-1.075,1.423
						c0,0.849,0.419,1.381,1.064,1.381c0.45,0,0.808-0.307,0.901-0.747c0.03-0.113,0.04-0.226,0.04-0.359V-17.986z"/>
				</g>
			</g>
		</g>
	</g>
</g>
<g>
	<path class="st4" d="M216.388,31.297v-0.893h-0.171l-0.253,0.755h-0.003l-0.254-0.755h-0.173v0.893h0.117v-0.528
		c0-0.025-0.002-0.138-0.002-0.22h0.002l0.252,0.748h0.119l0.252-0.752h0.002c0,0.085-0.002,0.198-0.002,0.224v0.528H216.388z"/>
	<rect x="216.518" y="31.163" class="st4" width="0.127" height="0.134"/>
	<path class="st4" d="M217.143,30.913h0.292c0.144,0,0.16,0.086,0.16,0.158c0,0.033,0.003,0.17,0.02,0.225h0.149v-0.022
		c-0.038-0.02-0.044-0.04-0.044-0.089l-0.009-0.162c-0.004-0.123-0.056-0.147-0.107-0.168c0.059-0.032,0.124-0.082,0.124-0.215
		c0-0.187-0.146-0.238-0.293-0.238h-0.414v0.893h0.122V30.913z M217.143,30.508h0.301c0.06,0,0.159,0.01,0.159,0.147
		c0,0.132-0.092,0.155-0.181,0.155h-0.28V30.508z"/>
	<rect x="217.85" y="31.163" class="st4" width="0.131" height="0.134"/>
	<path class="st5" d="M169.979,32.148l0.639-8.057c0.273-3.443,2.541-5.604,5.926-5.604l35.911-0.002
		c2.806,0,4.017-0.279,4.404-0.355c0.387-0.077,1.13-0.278,1.13-0.278l-0.534,7.556c-0.327,5.484-4.899,5.871-5.525,5.871
		c-1.838,0-35.723,0.008-35.723,0.008c-2.073,0-3.84,0.229-5.169,0.561C170.302,32.033,169.979,32.148,169.979,32.148"/>
	<path class="st6" d="M216.277,19.933c-0.954,0.166-2.217,0.139-3.626,0.139h-36.035c-2.575,0-4.219,1.603-4.415,4.146l-0.498,5.837
		c0.987-0.218,2.589-0.376,4.653-0.376h35.485c0.149-0.004,3.606,0.055,4.006-4.22L216.277,19.933z"/>
	<path class="st4" d="M182.229,25.08c0.086-0.482,0.288-0.936,0.737-0.936c0.424,0,0.564,0.533,0.491,0.948L182.229,25.08z
		 M185.188,26.003c0.234-1.392,0.172-2.879-2.221-2.879c-1.84,0-2.72,0.939-2.946,2.519c-0.218,1.524,0.901,2.272,2.354,2.272
		c1.054,0,2.209-0.245,2.209-0.245l0.143-1.121c0,0-1.188,0.27-1.472,0.264c-0.982-0.021-1.261-0.274-1.167-0.81H185.188z"/>
	<path class="st4" d="M185.454,27.776l2.176,0.003l0.266-1.554c0.185-0.792,0.777-1.317,1.37-1.317c0.134,0,0.4,0.037,0.533,0.055
		l0.225-1.792c-0.084-0.009-0.169-0.026-0.255-0.026c-1.113-0.017-1.668,1.146-1.668,1.146l0.071-1.017l-2.012,0.004L185.454,27.776
		z"/>
	<path class="st4" d="M201.296,22.219c-0.035-0.405,0.438-0.775,1.057-0.83c0.618-0.053,1.15,0.229,1.183,0.634
		c0.037,0.403-0.437,0.776-1.054,0.828C201.863,22.906,201.333,22.622,201.296,22.219 M202.625,27.749l0.777-4.594h-2.228
		l-0.777,4.594H202.625z"/>
	<path class="st4" d="M210.907,24.477c0.61-0.074,1.039,0.292,0.959,0.847c-0.103,0.682-0.515,1.058-1.123,1.131
		c-0.611,0.075-0.968-0.258-1.002-0.816C209.704,25.083,210.297,24.552,210.907,24.477 M210.558,27.821
		c-1.395,0.184-2.396-0.644-2.476-2.018c-0.08-1.373,1.08-2.609,2.476-2.793c0.582-0.076,1.112,0.071,1.527,0.346l0.048-0.19h1.554
		l-0.593,4.595h-1.555l0.053-0.423C211.246,27.706,210.93,27.773,210.558,27.821"/>
	<path class="st4" d="M192.256,25.08c0.087-0.482,0.287-0.936,0.739-0.936c0.421,0,0.562,0.533,0.489,0.948L192.256,25.08z
		 M195.215,26.003c0.233-1.392,0.171-2.879-2.22-2.879c-1.842,0-2.721,0.939-2.949,2.519c-0.216,1.524,0.9,2.272,2.354,2.272
		c1.055,0,2.208-0.245,2.208-0.245l0.144-1.121c0,0-1.186,0.27-1.472,0.264c-0.981-0.021-1.261-0.274-1.167-0.81H195.215z"/>
	<path class="st4" d="M180.103,21.778c0.021,0.021-0.039-0.224-1.841-0.224c-1.882,0-3.739,1.27-4.009,3.294
		c-0.204,1.538,0.825,3.047,2.884,3.047c1.642,0,2.086-0.265,2.086-0.265l0.204-1.55c0,0-0.655,0.265-1.739,0.203
		c-1.035-0.058-1.369-0.733-1.288-1.406c0.147-1.207,1.077-1.504,1.779-1.651c0.88-0.184,1.679,0.163,1.679,0.163L180.103,21.778z"
		/>
	<path class="st4" d="M195.564,27.63c0,0,0.819,0.276,1.856,0.276c1.66,0,2.533-0.642,2.719-1.577
		c0.396-2.002-2.416-1.148-2.304-1.778c0.04-0.224,0.328-0.326,0.565-0.318c0.14,0.004,0.355-0.049,0.764,0.013
		c0.409,0.143,0.951,0.118,0.941,0.266l0.184-1.204c0,0-0.894-0.202-1.881-0.202c-0.943,0-2.354,0.36-2.542,1.517
		c-0.302,1.846,2.489,1.121,2.277,1.826c-0.062,0.203-0.359,0.289-0.635,0.305c-1.024,0.062-1.82-0.427-1.82-0.427L195.564,27.63z"
		/>
	<path class="st4" d="M207.51,26.345l-0.469,0.021c-0.503,0-0.545-0.239-0.472-0.654l0.182-1.235h1.046l0.183-1.272h-1.045
		l0.329-1.753l-2.311,0.693l-0.165,1.06h-0.838l-0.183,1.272h0.812l-0.334,1.888c-0.102,1.047,0.729,1.538,1.546,1.488
		c0.818-0.05,1.452-0.244,1.452-0.244L207.51,26.345z"/>
</g>
<g>
	<path class="st0" d="M81.029,16.01c6.782,0,12.945,0.862,17.433,2.274c4.335,1.36,7.567,3.382,7.567,5.99
		c0,2.607-3.231,4.63-7.567,5.992c-4.488,1.41-10.651,2.273-17.433,2.273c-6.783,0-12.946-0.863-17.435-2.273
		c-4.334-1.362-7.566-3.385-7.566-5.992c0-2.608,3.232-4.63,7.566-5.99C68.083,16.872,74.246,16.01,81.029,16.01"/>
	<path class="st7" d="M105.417,24.338c0-2.73-4.091-4.934-10.581-6.383c-3.994-0.893-8.915-1.345-14.26-1.345
		c-3.622,0-7.093,0.243-10.17,0.724c2.86-0.315,6.145-0.345,9.491-0.192c3.976,0.181,7.551,0.654,10.57,1.382
		c5.854,1.411,9.437,3.739,9.172,6.203c-0.401,3.739-9.697,6.269-21.382,5.734c-11.684-0.532-21.089-3.071-20.297-7.644
		c0.097-0.554,0.273-1.11,0.73-1.61c-1.367,1.003-2.063,1.86-2.063,3.196c0,1.589,2.018,3.377,5.565,4.726
		c4.381,1.67,11.025,2.781,18.341,2.781c8.704,0,16.517-1.351,20.989-3.516C103.851,27.265,105.417,25.859,105.417,24.338"/>
	<path class="st8" d="M63.653,25.636c0.372,0,0.544-0.038,0.637-0.091c0.12-0.066,0.207-0.179,0.233-0.316
		c0.031-0.167-0.031-0.298-0.145-0.36c-0.053-0.033-0.199-0.066-0.422-0.066h-0.86c-0.57,0-0.961-0.099-1.203-0.346
		c-0.265-0.281-0.359-0.704-0.275-1.138c0.126-0.648,0.584-1.224,1.173-1.413c0.254-0.087,0.526-0.107,1.069-0.107h2.466
		l-0.217,1.122h-2.217c-0.217,0.002-0.335,0.004-0.416,0.009c-0.076,0.004-0.114,0.013-0.184,0.028
		c-0.126,0.031-0.242,0.147-0.281,0.348c-0.034,0.165,0.02,0.267,0.11,0.312c0.097,0.049,0.176,0.063,0.512,0.063h0.75
		c0.693,0,1.099,0.104,1.356,0.434c0.202,0.249,0.258,0.708,0.176,1.13c-0.104,0.543-0.451,1.05-0.908,1.302
		c-0.301,0.169-0.642,0.209-1.331,0.209h-2.502l0.219-1.121H63.653z"/>
	<path class="st8" d="M71.169,24.336c-0.311,1.595-1.292,2.45-2.843,2.45c-0.921,0-1.632-0.302-1.925-0.887
		c-0.216-0.421-0.246-0.967-0.121-1.613c0.178-0.91,0.568-1.637,1.152-2.037c0.457-0.318,1.099-0.484,1.795-0.484
		c0.83,0,1.513,0.273,1.8,0.785C71.267,22.961,71.308,23.62,71.169,24.336 M67.665,24.281c-0.204,1.053,0.066,1.431,0.782,1.431
		c0.727,0,1.15-0.402,1.356-1.463c0.202-1.035-0.068-1.405-0.787-1.405c-0.406,0-0.745,0.154-0.954,0.408
		C67.896,23.451,67.76,23.79,67.665,24.281"/>
	<path class="st8" d="M72.812,25.254c0.079,0.247,0.295,0.427,0.734,0.427l-0.218,1.07l-0.194-0.008
		c-0.825-0.064-1.317-0.309-1.594-0.846c-0.208-0.418-0.246-0.97-0.122-1.611c0.178-0.91,0.568-1.636,1.152-2.036
		c0.451-0.321,1.097-0.485,1.775-0.485c0.848,0,1.534,0.266,1.827,0.785c0.221,0.381,0.274,1.089,0.157,1.703
		c-0.104,0.534-0.313,0.984-0.649,1.383h0.652l-0.217,1.122h-1.882l-0.548-0.001l0.203-1.054l0.096-0.015
		c0.611-0.19,0.796-0.61,0.964-1.473c0.083-0.424,0.057-0.776-0.052-1.008c-0.113-0.239-0.338-0.369-0.736-0.369
		c-0.71,0-1.148,0.408-1.341,1.394C72.734,24.668,72.735,25.02,72.812,25.254"/>
	<path class="st8" d="M77.897,25.496c0.121,0.128,0.369,0.226,0.657,0.226c0.429,0,0.75-0.158,0.889-0.371
		c0.063-0.107,0.126-0.285,0.191-0.618l0.572-2.932h1.281l-0.564,2.907c-0.149,0.765-0.405,1.268-0.863,1.6
		c-0.465,0.333-1.018,0.485-1.712,0.485c-0.767,0-1.308-0.172-1.615-0.552c-0.292-0.373-0.325-0.757-0.183-1.487l0.574-2.953h1.282
		l-0.574,2.956C77.748,25.201,77.784,25.367,77.897,25.496"/>
	<polygon class="st8" points="83.226,21.801 82.264,26.758 80.981,26.758 81.944,21.801 	"/>
	<polygon class="st8" points="82.704,26.757 83.669,21.8 85.162,21.8 86.203,24.857 86.797,21.8 88.033,21.8 87.068,26.757 
		85.626,26.757 84.527,23.737 83.94,26.757 	"/>
	<path class="st8" d="M91.445,21.758l1.087,4.955h-1.466l-0.237-1.084h-1.585l-0.659,1.084h-1.49l3.014-4.955H91.445z
		 M90.706,24.509l-0.236-1.103l-0.666,1.103H90.706z"/>
	<path class="st9" d="M58.7,24.225c0.186-3.44,8.897-5.461,18.931-5.461c8.804,0,18.295,2.77,18.295,6.041
		c0,1.37-2.64,3.55-5.362,4.596c5.141-1.102,8.263-2.924,8.263-4.909c0-2.23-3.265-4.11-8.29-5.385
		c-3.285-0.835-7.35-1.341-11.813-1.466c-4.36-0.121-8.318,0.263-11.575,0.898c-5.203,1.005-8.536,2.893-8.614,4.792
		C58.522,23.629,58.579,23.928,58.7,24.225"/>
	<path class="st8" d="M92.735,26.236c0-0.226,0.171-0.396,0.389-0.396c0.216,0,0.385,0.169,0.385,0.396
		c0,0.229-0.169,0.399-0.385,0.399C92.906,26.635,92.735,26.465,92.735,26.236 M93.124,26.713c0.26,0,0.481-0.201,0.481-0.477
		c0-0.273-0.221-0.475-0.481-0.475c-0.261,0-0.484,0.202-0.484,0.475C92.64,26.512,92.863,26.713,93.124,26.713"/>
	<path class="st8" d="M93.024,26.203v-0.17h0.113c0.058,0,0.118,0.014,0.118,0.081c0,0.084-0.062,0.089-0.133,0.089H93.024z
		 M93.024,26.274h0.095l0.144,0.238h0.093L93.2,26.271c0.081-0.011,0.143-0.053,0.143-0.152c0-0.109-0.064-0.157-0.193-0.157h-0.208
		v0.55h0.083V26.274z"/>
</g>
<g>
	<rect x="121.788" y="9.431" class="st10" width="31.138" height="31.137"/>
	<polygon class="st11" points="131.999,38.111 129.875,40.235 132.413,40.235 134.537,38.111 	"/>
	<polygon class="st11" points="137.094,38.111 134.969,40.235 137.507,40.235 139.631,38.111 	"/>
	<polygon class="st11" points="142.188,38.111 140.064,40.235 142.601,40.235 144.725,38.111 	"/>
	<path class="st11" d="M139.574,33.073l4.665-4.665c-1.01,0.314-2.106,0.559-3.264,0.727l-3.938,3.938H139.574z"/>
	<path class="st11" d="M134.48,33.073l3.696-3.696c-0.258,0.008-0.517,0.012-0.779,0.012c-0.581,0-1.151-0.021-1.712-0.059
		l-3.742,3.742H134.48z"/>
	<polygon class="st11" points="126.905,38.111 124.781,40.235 127.319,40.235 129.442,38.111 	"/>
	<polygon class="st11" points="152.592,40.235 152.592,37.895 150.253,40.235 	"/>
	<path class="st11" d="M150.754,21.893l1.838-1.838v-2.537l-2.557,2.557C150.422,20.651,150.668,21.261,150.754,21.893"/>
	<polygon class="st11" points="147.282,38.111 145.158,40.235 147.696,40.235 149.819,38.111 	"/>
	<polygon class="st11" points="144.669,33.073 152.592,25.15 152.592,22.613 142.131,33.073 	"/>
	<path class="st11" d="M147.32,17.696c0.558,0.321,1.059,0.67,1.496,1.041l3.776-3.776v-2.537L147.32,17.696z"/>
	<polygon class="st11" points="150.049,37.881 152.592,35.338 152.592,32.801 150.049,35.344 	"/>
	<polygon class="st11" points="149.763,33.073 152.592,30.244 152.592,27.707 147.226,33.073 	"/>
	<path class="st10" d="M124.003,22.394c0-3.862,5.997-6.995,13.395-6.995c7.397,0,13.395,3.133,13.395,6.995
		c0,3.866-5.997,6.995-13.395,6.995C130,29.389,124.003,26.26,124.003,22.394"/>
	<path class="st11" d="M133.256,24.518c0,0.48-0.378,0.785-1.133,0.915c-0.143,0.028-0.334,0.048-0.572,0.062
		c-0.238,0.014-0.452,0.02-0.799,0.02c-0.748,0-1.183-0.02-1.462-0.062C128.43,25.33,128,25.042,128,24.59V23.5h1.778v0.916
		c0,0.199,0.264,0.299,0.952,0.299c0.295,0,0.419-0.017,0.533-0.051c0.143-0.035,0.215-0.12,0.215-0.257V22.69
		c0-0.37-2.252-0.644-2.719-0.887C128.292,21.56,128,21.046,128,20.518v-1.686c0-0.492,0.958-1.04,1.447-1.04
		c0.348,0,0.762-0.02,1.216-0.02c1.691,0,2.458,0.26,2.458,0.781v1.08h-1.778v-0.608c0-0.137-0.011-0.222-0.034-0.257
		c-0.106-0.137-0.313-0.206-0.781-0.206c-0.476,0-0.684,0.068-0.748,0.193v1.541c0,0.368,2.326,0.793,2.991,1.119
		c0.299,0.147,0.487,0.494,0.487,0.843V24.518z"/>
	<path class="st11" d="M135.663,19.749h-1.693v-1.504h1.693V19.749z M135.663,25.428h-1.682v-4.99h1.682V25.428z"/>
	<path class="st11" d="M141.545,24.572c0,0.447-0.36,0.733-1.082,0.856c-0.3,0.059-0.831,0.087-1.438,0.087
		c-0.379,0-0.633-0.01-0.918-0.029v1.799h-1.682v-5.953c0-0.564,0.786-0.846,2.515-0.846c1.685,0,2.606,0.259,2.606,0.778V24.572z
		 M139.863,21.66c0-0.136-0.011-0.224-0.032-0.262v0.009c-0.1-0.103-0.438-0.155-0.859-0.155c-0.508,0-0.733,0.045-0.833,0.136
		c-0.022,0.019-0.032,0.114-0.032,0.282v2.798c0,0.188,0.247,0.282,0.897,0.282c0.279,0,0.549-0.016,0.657-0.049
		c0.135-0.032,0.203-0.113,0.203-0.243V21.66z"/>
	<path class="st11" d="M147.199,25.193c0,0-0.274,0.104-0.697,0.189c-0.301,0.061-0.928,0.134-1.828,0.134
		c-1.672,0-2.429-0.24-2.429-0.72v-1.644c0-0.474,0.676-0.71,2.183-0.71h1.079v-0.937c0-0.182-0.248-0.272-0.897-0.272
		c-0.272,0-0.39,0.016-0.512,0.049c-0.128,0.039-0.193,0.117-0.193,0.234v0.402h-1.682V21.43c0-0.447,0.357-0.733,1.072-0.856
		c0.3-0.059,0.676-0.087,1.283-0.087c0.707,0,1.118,0.019,1.391,0.058c0.814,0.117,1.231,0.389,1.231,0.818V25.193z M145.506,23.197
		h-0.876c-0.401,0-0.572,0.045-0.673,0.136v-0.01c-0.021,0.033-0.032,0.101-0.032,0.204v0.902c0,0.111,0.011,0.178,0.032,0.204
		v-0.01c0.114,0.091,0.287,0.137,0.673,0.137c0.499,0,0.729-0.045,0.843-0.137c0.022-0.026,0.032-0.12,0.032-0.282V23.197z"/>
	<path class="st12" d="M124.665,33.073h4.619l4.018-4.018c-5.394-0.903-9.3-3.542-9.3-6.661c0-3.862,5.998-6.995,13.395-6.995
		c3.056,0,5.871,0.535,8.125,1.435l7.07-7.07h-30.47v30.47l2.543-2.543V33.073z"/>
	<rect x="124.665" y="33.073" class="st0" width="25.383" height="5.038"/>
	<path class="st13" d="M127.728,34.566c-0.164-0.096-0.407-0.145-0.722-0.145h-0.86v2.323h0.553v-1.004h0.307
		c0.316,0,0.559-0.047,0.723-0.141c0.144-0.087,0.217-0.202,0.217-0.342v-0.352C127.945,34.764,127.872,34.65,127.728,34.566
		 M126.698,34.731h0.305c0.082,0,0.154,0.018,0.214,0.055c0.055,0.033,0.081,0.071,0.081,0.116v0.355
		c0,0.048-0.026,0.087-0.08,0.118c-0.06,0.035-0.132,0.053-0.214,0.053h-0.305V34.731z"/>
	<path class="st13" d="M129.331,34.421v1.858c0,0.044-0.027,0.081-0.082,0.112c-0.061,0.035-0.134,0.053-0.216,0.053
		c-0.081,0-0.151-0.017-0.207-0.052c-0.051-0.032-0.076-0.068-0.076-0.113v-1.858h-0.647v1.858c0,0.14,0.073,0.255,0.217,0.339
		c0.16,0.096,0.402,0.145,0.718,0.145c0.316,0,0.558-0.049,0.722-0.145c0.144-0.084,0.218-0.199,0.218-0.339v-1.858H129.331z"/>
	<path class="st13" d="M132.047,35.256v-0.352c0-0.14-0.074-0.255-0.218-0.339c-0.164-0.096-0.407-0.145-0.722-0.145h-0.861v2.323
		h0.554v-1.004h0.309c0.083,0.003,0.154,0.022,0.212,0.057c0.053,0.031,0.078,0.068,0.078,0.113v0.835h0.648v-0.835
		c0-0.135-0.066-0.244-0.197-0.325C131.981,35.5,132.047,35.391,132.047,35.256 M130.8,34.731h0.305
		c0.082,0,0.154,0.018,0.214,0.055c0.055,0.033,0.081,0.071,0.081,0.116v0.355c0,0.045-0.026,0.084-0.078,0.117
		c-0.059,0.036-0.13,0.055-0.211,0.055h-0.31V34.731z"/>
	<path class="st13" d="M133.972,34.566c-0.164-0.096-0.407-0.145-0.722-0.145c-0.316,0-0.558,0.049-0.718,0.145
		c-0.144,0.084-0.217,0.199-0.217,0.339v1.858h0.647V35.77h0.58v0.993h0.648v-1.858C134.19,34.764,134.117,34.65,133.972,34.566
		 M132.963,34.902c0-0.048,0.025-0.087,0.076-0.118c0.057-0.035,0.126-0.053,0.209-0.053c0.082,0,0.154,0.018,0.214,0.055
		c0.055,0.033,0.081,0.07,0.081,0.116v0.497h-0.58V34.902z"/>
	<path class="st13" d="M136.808,34.566c-0.164-0.096-0.407-0.145-0.722-0.145h-0.86v2.323h0.553v-1.004h0.307
		c0.316,0,0.559-0.047,0.723-0.141c0.144-0.087,0.217-0.202,0.217-0.342v-0.352C137.025,34.764,136.952,34.65,136.808,34.566
		 M135.778,34.731h0.305c0.082,0,0.154,0.018,0.214,0.055c0.055,0.033,0.081,0.071,0.081,0.116v0.355
		c0,0.048-0.026,0.087-0.08,0.118c-0.06,0.035-0.132,0.053-0.214,0.053h-0.305V34.731z"/>
	<rect x="137.184" y="34.421" class="st13" width="0.553" height="2.323"/>
	<polygon class="st13" points="139.436,34.421 139.436,35.812 138.563,34.439 138.552,34.421 138.015,34.421 138.015,36.743 
		138.569,36.743 138.569,35.36 139.437,36.725 139.448,36.743 139.989,36.743 139.989,34.421 	"/>
	<polygon class="st13" points="140.193,34.421 140.193,34.793 140.989,34.793 140.989,36.743 141.543,36.743 141.543,34.793 
		142.34,34.793 142.34,34.421 	"/>
	<path class="st13" d="M143.711,34.421v1.858c0,0.044-0.027,0.081-0.082,0.112c-0.061,0.035-0.134,0.053-0.216,0.053
		c-0.081,0-0.151-0.017-0.207-0.052c-0.051-0.032-0.076-0.068-0.076-0.113v-1.858h-0.647v1.858c0,0.14,0.073,0.255,0.217,0.339
		c0.16,0.096,0.402,0.145,0.718,0.145c0.316,0,0.558-0.049,0.722-0.145c0.144-0.084,0.218-0.199,0.218-0.339v-1.858H143.711z"/>
	<path class="st13" d="M146.427,35.256v-0.352c0-0.14-0.074-0.255-0.218-0.339c-0.164-0.096-0.407-0.145-0.722-0.145h-0.861v2.323
		h0.554v-1.004h0.309c0.083,0.003,0.154,0.022,0.212,0.057c0.053,0.031,0.078,0.068,0.078,0.113v0.835h0.648v-0.835
		c0-0.135-0.066-0.244-0.197-0.325C146.361,35.5,146.427,35.391,146.427,35.256 M145.18,34.731h0.305
		c0.082,0,0.154,0.018,0.214,0.055c0.055,0.033,0.081,0.071,0.081,0.116v0.355c0,0.045-0.026,0.084-0.078,0.117
		c-0.059,0.036-0.13,0.055-0.211,0.055h-0.31V34.731z"/>
	<path class="st13" d="M148.352,34.566c-0.164-0.096-0.407-0.145-0.722-0.145c-0.316,0-0.558,0.049-0.718,0.145
		c-0.144,0.084-0.217,0.199-0.217,0.339v1.858h0.647V35.77h0.58v0.993h0.648v-1.858C148.57,34.764,148.496,34.65,148.352,34.566
		 M147.342,34.902c0-0.048,0.025-0.087,0.076-0.118c0.057-0.035,0.126-0.053,0.209-0.053c0.082,0,0.154,0.018,0.214,0.055
		c0.055,0.033,0.081,0.07,0.081,0.116v0.497h-0.58V34.902z"/>
</g>
<g>
	<g>
		<defs>
			<rect id="SVGID_1_" x="225.699" y="81.513" width="252.604" height="354.964"/>
		</defs>
		<clipPath id="SVGID_2_">
			<use xlink:href="#SVGID_1_"  style="overflow:visible;"/>
		</clipPath>
		<g transform="matrix(1 0 0 1 0 0)" style="clip-path:url(#SVGID_2_);">
			
				<image style="overflow:visible;" width="2337" height="3284" xlink:href="770222832CE6981E.jpg"  transform="matrix(0.1081 0 0 0.1081 225.6994 81.5128)">
			</image>
		</g>
	</g>
</g>
<g>
	
		<image style="overflow:visible;" width="2337" height="3284" xlink:href="770222832CE69822.png"  transform="matrix(0.1081 0 0 0.1081 0 84.8328)">
	</image>
</g>
<g>
	
		<image style="overflow:visible;" width="2337" height="3284" xlink:href="770222832CE69825.png"  transform="matrix(0.1081 0 0 0.1081 447.3961 81.5128)">
	</image>
</g>
<polygon class="st1" points="0,451.376 15,451.376 7.5,460.376 "/>
<g>
	<rect x="0.03" y="20.369" class="st0" width="9.246" height="9.258"/>
	<polygon class="st14" points="5.293,29.631 4.399,29.631 2.585,29.631 0.024,29.627 0.017,21.349 0.087,21.408 0.087,23.501 
		0.087,23.969 0.101,24.451 0.142,24.917 0.17,25.143 0.212,25.369 0.297,25.701 0.352,26.002 0.436,26.289 0.519,26.559 
		0.687,27.071 0.798,27.295 0.897,27.523 1.092,27.928 1.273,28.245 1.356,28.381 1.455,28.487 1.538,28.578 1.622,28.668 
		1.693,28.712 1.775,28.742 1.831,28.742 1.902,28.758 2.041,28.758 2.193,28.758 2.334,28.712 2.487,28.668 2.627,28.607 
		2.766,28.515 2.921,28.396 3.06,28.26 3.213,28.124 3.521,27.838 3.771,27.614 3.884,27.523 3.981,27.461 4.148,27.341 
		4.163,27.432 4.204,27.567 4.357,27.869 4.664,28.515 4.986,29.104 5.153,29.436 5.237,29.57 5.251,29.616 	"/>
	<polygon class="st14" points="8.05,21.302 8.079,21.302 8.134,21.229 8.134,21.212 8.134,21.229 8.079,21.393 7.953,21.619 
		7.883,21.724 7.91,21.754 8.037,21.529 8.092,21.408 8.176,21.302 8.19,21.229 8.218,21.183 8.231,21.183 8.231,21.212 
		8.19,21.274 8.176,21.318 8.037,21.544 7.994,21.663 7.953,21.754 7.883,21.905 7.966,21.845 8.037,21.769 8.05,21.754 
		8.079,21.769 8.079,21.8 8.079,21.816 8.05,21.845 8.134,21.754 8.19,21.679 8.231,21.634 8.134,21.769 8.301,21.544 8.19,21.709 
		8.121,21.845 8.05,21.981 8.176,21.8 8.273,21.679 8.301,21.663 8.316,21.679 8.301,21.724 8.259,21.816 8.386,21.634 
		8.399,21.619 8.399,21.634 8.344,21.754 8.231,21.891 8.259,21.905 8.273,21.951 8.259,21.996 8.259,22.04 8.344,21.935 
		8.427,21.845 8.344,21.951 8.19,22.13 8.134,22.221 8.079,22.283 8.121,22.312 8.148,22.283 8.19,22.267 8.259,22.238 
		8.316,22.176 8.386,22.102 8.273,22.283 8.19,22.448 8.399,22.176 8.442,22.13 8.427,22.147 8.176,22.537 8.134,22.644 
		8.092,22.719 8.079,22.78 8.007,22.96 8.007,22.944 8.05,22.9 8.148,22.765 8.079,22.9 8.037,22.989 8.007,23.05 7.924,23.23 
		7.868,23.398 7.742,23.727 7.617,24.043 7.464,24.36 7.38,24.495 7.324,24.616 7.38,24.495 7.464,24.36 7.617,24.134 7.673,24.043 
		7.742,23.983 7.757,23.953 7.757,23.938 7.785,23.938 7.799,23.953 7.868,23.847 7.842,23.908 7.785,24.028 7.953,23.802 
		7.883,23.908 7.742,24.164 7.617,24.36 7.632,24.36 7.632,24.39 7.632,24.406 7.91,23.998 8.079,23.727 8.037,23.818 7.994,23.908 
		7.868,24.088 7.91,24.028 7.953,23.983 8.037,23.908 8.05,23.908 8.05,23.938 8.037,23.983 8.007,24.074 8.134,23.893 
		8.176,23.818 8.19,23.802 8.176,23.818 8.148,23.864 8.121,23.938 7.91,24.271 7.799,24.45 7.715,24.616 7.757,24.572 7.842,24.45 
		8.037,24.179 8.19,23.908 8.231,23.893 8.19,23.953 8.231,23.953 8.231,23.983 8.231,24.043 8.218,24.119 8.273,24.028 
		8.386,23.864 8.609,23.593 8.636,23.593 8.567,23.728 8.609,23.667 8.679,23.593 8.721,23.577 8.735,23.577 8.762,23.577 
		8.762,23.593 8.762,23.637 8.679,23.802 8.803,23.637 8.942,23.411 9.154,23.14 8.735,23.818 8.636,23.998 8.609,24.043 
		8.567,24.088 8.595,24.088 8.692,24.028 8.735,23.998 8.775,23.953 8.929,23.773 9.223,23.216 9.154,23.398 9.111,23.457 
		9.055,23.577 8.942,23.758 8.846,23.908 8.803,23.953 8.846,23.908 8.971,23.728 9.055,23.577 9.139,23.457 9.181,23.411 
		9.195,23.411 9.195,23.442 9.223,23.367 9.236,23.367 9.236,23.398 9.264,23.487 9.278,23.532 9.278,20.37 8.609,20.37 	"/>
	<polygon class="st14" points="9.278,23.49 9.282,29.627 5.343,29.627 5.608,29.498 5.845,29.363 6.054,29.227 6.236,29.047 
		6.432,28.881 6.516,28.791 6.599,28.7 6.752,28.504 6.919,28.293 7.073,28.098 7.213,27.917 7.506,27.54 7.631,27.329 7.742,27.15 
		7.841,26.999 7.924,26.819 8.148,26.395 8.386,25.944 8.595,25.507 8.692,25.282 8.775,25.071 8.929,24.634 8.929,24.589 
		8.929,24.483 8.943,24.438 8.971,24.363 9.014,24.303 9.055,24.258 9.069,24.212 9.096,24.183 9.264,23.716 9.236,23.686 
		9.223,23.64 9.223,23.58 9.223,23.565 9.236,23.534 	"/>
	<path class="st15" d="M0.332,21.92l-0.014-0.045l-0.056-0.151l0.07,0.257l0.027,0.121l0.028,0.09l0.015,0.046l-0.056-0.046
		l-0.029-0.044l-0.042-0.121l-0.042-0.075l-0.056-0.272v0.045l-0.042-0.09v0.045l0.042,0.196l-0.028-0.06l-0.042-0.091
		c0.008-0.061-0.031-0.14-0.067-0.23l-0.015-0.143l0.004-0.982l0.036,0.001h0.266h0.056h0.056h0.181H0.75h0.056h0.126h0.041h0.098
		h3.294h0.042h0.055h0.042h0.056h0.265h0.041h0.182h0.125h3.142H8.44h0.112h0.057l-0.057,0.226L8.44,20.957l-0.124,0.376
		l-0.014,0.046l-0.084,0.166l-0.376,0.647L7.66,22.523L7.464,22.84l-0.209,0.315l-0.209,0.317l-0.223,0.315l-0.223,0.318
		l-0.196,0.211l-0.167,0.18l-0.14,0.181l-0.153,0.166l-0.14,0.105l-0.125,0.091l-0.126,0.09l-0.112,0.045l-0.041-0.181l-0.027-0.18
		l-0.043-0.331l-0.042-0.361l-0.069-0.332v-0.045l-0.015-0.045v-0.075v-0.045l-0.028,0.045l-0.014,0.136l-0.028-0.045L5.12,23.802
		v-0.239v-0.091l-0.028,0.105l-0.042,0.031l0.042-0.271v-0.166v-0.046L5.077,22.93l-0.028,0.045V22.93v-0.047v-0.06l-0.014,0.151
		l-0.042,0.03l0.013-0.091L4.966,22.96v0.091l-0.015-0.045L4.924,22.96v-0.12v-0.045v-0.106l-0.041,0.015v-0.226l-0.015,0.12v0.061
		l-0.041,0.03l-0.039-0.105l-0.031-0.061v0.045l-0.016,0.09L4.714,22.75v-0.057L4.7,22.734v0.047l-0.028,0.044V22.78l-0.013,0.044
		V22.75l-0.029-0.061L4.617,22.84v-0.06v-0.047l-0.043,0.136l-0.013,0.045l0.013-0.045l0.015-0.226l-0.015,0.06v0.121l-0.027,0.045
		v-0.181l-0.014,0.135L4.505,22.96v-0.076l-0.042-0.015v-0.045l0.028-0.044l-0.042,0.015v0.075l-0.028,0.136V22.84L4.408,22.93
		L4.38,22.975L4.366,23.05v-0.045L4.38,22.96l0.013-0.045l0.015-0.045v-0.045L4.366,22.93l0.014-0.136l-0.014,0.12l-0.028,0.091
		V22.93v-0.047L4.295,23.05L4.24,23.216l-0.07,0.182l-0.084,0.21l-0.195,0.421l-0.238,0.513l-0.181,0.316l-0.153,0.271l-0.168,0.241
		l-0.139,0.209l-0.153,0.151l-0.057,0.077L2.733,25.85l-0.126,0.091l-0.057,0.014l-0.056,0.029l-0.209-0.481l-0.209-0.482
		l-0.168-0.527l-0.167-0.512l-0.153-0.557L1.448,22.84l-0.112-0.588L1.24,21.649l-0.014-0.105l-0.028-0.119l-0.042-0.107
		l-0.014-0.045v0.152l-0.028-0.092l-0.041-0.091l-0.042-0.105l-0.014-0.074l-0.027-0.047v0.089l0.042,0.182l-0.014,0.076
		l-0.027-0.046l-0.042-0.045v0.045l-0.056-0.135l0.015,0.09l0.028,0.091l-0.043-0.091l-0.027-0.075l-0.014,0.075l-0.028-0.12v0.076
		l0.028,0.089v0.107l0.014,0.089L0.82,21.498l-0.056-0.12l0.043,0.18L0.75,21.438l-0.027-0.059l0.027,0.09l0.056,0.136v0.045v0.091
		v0.045l-0.043-0.061l0.015,0.061l0.028,0.091l0.013,0.15v0.181l0.028,0.165l0.014,0.181L0.82,22.418l-0.013-0.091l-0.043-0.029
		v0.044l-0.041-0.134l0.014,0.076l0.013,0.043l0.056,0.196L0.75,22.418l-0.027-0.121L0.68,22.161v0.045l0.015,0.045l0.028,0.089
		l-0.028-0.044L0.68,22.252l-0.026,0.049l0.026,0.133l0.043,0.18L0.68,22.523l-0.042-0.151l-0.014-0.046l-0.028-0.119l-0.028,0.045
		l-0.015,0.045l-0.042-0.135l-0.069-0.15l-0.041-0.015l-0.015,0.105L0.332,21.92z M0.066,21.74l0.028,0.076L0.066,21.74z
		 M0.443,22.147L0.43,22.071L0.443,22.147z M0.443,22.191l0.028,0.046L0.443,22.191z M4.393,23.05v-0.045l0.015-0.045v0.091H4.393z
		 M0.332,21.981l0.027,0.121L0.332,21.981z M0.268,22.012l-0.076-0.423l0.028,0.181l0.014,0.182L0.268,22.012z M0.625,21.965
		l-0.014,0.06l0.028,0.046l0.015,0.045l0.026-0.06l-0.026-0.06L0.639,21.92l0.015,0.091l-0.015-0.046H0.625z M0.625,21.891
		l-0.028-0.106L0.625,21.891z M0.625,22.102l-0.028-0.09l0.014,0.06L0.625,22.102z M0.75,21.168l0.028,0.074L0.75,21.168z
		 M0.639,22.147l0.015,0.06L0.639,22.147z M0.764,21.724L0.75,21.649l-0.013-0.045l0.013,0.059L0.764,21.724z M1.113,21.242v-0.089
		l-0.041-0.107v0.06L1.113,21.242z M1.015,21.288l-0.027-0.135l-0.015-0.107l-0.028-0.045v0.045l0.042,0.136L1.015,21.288z
		 M4.788,22.584l0.011-0.166l-0.015,0.15L4.788,22.584z M4.714,22.693l0.028-0.079l-0.028,0.075V22.693z M4.826,22.643l0.014-0.226
		l-0.014,0.046v0.044V22.643z M5.203,23.697l0.015-0.121l-0.015,0.091V23.697z M5.133,23.713v-0.046v-0.06L5.12,23.802L5.133,23.713
		z"/>
	<polygon class="st15" points="18.28,26.018 20.025,22.867 21.425,22.867 18.494,28.173 18.079,28.173 16.108,24.535 14.15,28.173 
		13.735,28.173 10.768,22.867 12.168,22.867 13.925,26.018 15.61,22.867 16.594,22.867 	"/>
	<path class="st15" d="M27.309,27.558c-0.008,0.009-0.014,0.016-0.018,0.024c-0.004,0.007-0.014,0.015-0.03,0.022
		c-0.007,0.008-0.019,0.016-0.035,0.024c-0.016,0.008-0.028,0.014-0.036,0.017c-0.007,0.005-0.015,0.006-0.024,0.006
		c-0.007,0.008-0.016,0.013-0.023,0.017c-0.009,0.005-0.016,0.006-0.024,0.006c-0.008,0.008-0.016,0.014-0.024,0.018
		c-0.009,0.004-0.016,0.006-0.024,0.006c-0.008,0.007-0.016,0.013-0.024,0.018c-0.007,0.003-0.016,0.006-0.024,0.006
		c-0.007,0-0.02,0.004-0.035,0.012c-0.009,0.007-0.017,0.013-0.025,0.017c-0.007,0.004-0.015,0.006-0.023,0.006
		c-0.047,0.023-0.092,0.043-0.136,0.058c-0.044,0.016-0.085,0.035-0.125,0.058c-0.039,0.016-0.081,0.029-0.124,0.04
		c-0.043,0.012-0.088,0.026-0.136,0.041c-0.048,0.016-0.093,0.028-0.137,0.04c-0.043,0.012-0.085,0.022-0.124,0.029
		c-0.04,0.008-0.081,0.016-0.124,0.025c-0.044,0.007-0.09,0.014-0.136,0.023c-0.088,0.007-0.178,0.019-0.273,0.035
		c-0.095,0.015-0.194,0.027-0.296,0.035c-0.103,0.007-0.212,0.013-0.327,0.016c-0.115,0.006-0.231,0.007-0.349,0.007
		c-0.254,0-0.495-0.016-0.726-0.046c-0.229-0.031-0.446-0.077-0.652-0.139c-0.198-0.07-0.382-0.157-0.552-0.261
		c-0.17-0.104-0.326-0.226-0.468-0.364c-0.143-0.139-0.264-0.285-0.368-0.436c-0.103-0.15-0.19-0.306-0.261-0.468
		c-0.072-0.163-0.123-0.328-0.154-0.499c-0.032-0.169-0.048-0.343-0.048-0.521c0-0.201,0.016-0.389,0.048-0.562
		c0.031-0.174,0.082-0.342,0.154-0.504c0.079-0.162,0.17-0.313,0.273-0.452c0.102-0.139,0.229-0.271,0.38-0.394
		c0.142-0.123,0.297-0.231,0.463-0.325c0.166-0.091,0.343-0.165,0.533-0.22c0.198-0.062,0.402-0.107,0.612-0.138
		c0.21-0.031,0.425-0.047,0.647-0.047c0.221,0,0.429,0.015,0.622,0.046c0.193,0.032,0.378,0.077,0.552,0.139
		c0.182,0.054,0.35,0.126,0.504,0.215c0.154,0.089,0.298,0.192,0.433,0.307c0.126,0.124,0.237,0.261,0.332,0.411
		c0.094,0.151,0.177,0.315,0.249,0.493c0.063,0.177,0.113,0.37,0.148,0.579c0.036,0.209,0.054,0.432,0.054,0.672l-4.686-0.023
		c0.023,0.14,0.057,0.267,0.1,0.383c0.043,0.116,0.093,0.223,0.149,0.324c0.063,0.102,0.134,0.192,0.213,0.272
		c0.079,0.082,0.166,0.154,0.261,0.215c0.087,0.069,0.187,0.127,0.297,0.174c0.11,0.046,0.229,0.089,0.356,0.127
		c0.134,0.031,0.271,0.054,0.409,0.069c0.139,0.016,0.291,0.024,0.457,0.024h0.112h0.114c0.031,0,0.065-0.001,0.101-0.006
		c0.036-0.005,0.073-0.01,0.112-0.018c0.024,0,0.048-0.002,0.071-0.005c0.025-0.004,0.048-0.006,0.072-0.006
		c0.007,0,0.019-0.001,0.035-0.005c0.016-0.004,0.028-0.006,0.036-0.006c0.039-0.008,0.076-0.016,0.113-0.024
		c0.035-0.008,0.072-0.015,0.113-0.023c0.039-0.007,0.075-0.016,0.112-0.023c0.036-0.007,0.069-0.015,0.1-0.023
		c0.032-0.016,0.067-0.03,0.107-0.04c0.04-0.013,0.079-0.022,0.118-0.03c0.032-0.015,0.065-0.029,0.1-0.041
		c0.036-0.011,0.074-0.021,0.113-0.028c0.04-0.016,0.077-0.029,0.113-0.04c0.035-0.012,0.069-0.025,0.101-0.041h0.017
		c0.005,0,0.011-0.004,0.018-0.011c0.007-0.007,0.016-0.011,0.023-0.011c0.007,0,0.016-0.002,0.023-0.006
		c0.009-0.004,0.017-0.01,0.023-0.018c0.009,0,0.016-0.002,0.024-0.005c0.008-0.004,0.017-0.006,0.024-0.006
		c0.008-0.008,0.017-0.014,0.024-0.018c0.008-0.004,0.02-0.009,0.035-0.017c0.016-0.007,0.03-0.013,0.041-0.018
		c0.012-0.003,0.022-0.009,0.03-0.017c0.023-0.015,0.048-0.029,0.071-0.04c0.024-0.011,0.051-0.021,0.082-0.029
		c0.017-0.016,0.036-0.028,0.06-0.041c0.024-0.012,0.052-0.021,0.083-0.028v-0.023V27.558z M26.123,24.94
		c-0.008-0.093-0.022-0.182-0.042-0.267c-0.02-0.085-0.049-0.165-0.089-0.244c-0.031-0.077-0.074-0.149-0.129-0.22
		c-0.056-0.069-0.116-0.131-0.178-0.185c-0.08-0.062-0.161-0.112-0.244-0.151c-0.083-0.039-0.168-0.073-0.255-0.104
		c-0.096-0.031-0.194-0.054-0.297-0.069c-0.102-0.016-0.209-0.024-0.32-0.024c-0.127,0-0.246,0.008-0.355,0.024
		c-0.112,0.015-0.222,0.038-0.333,0.069c-0.103,0.031-0.197,0.065-0.285,0.104c-0.086,0.04-0.169,0.086-0.248,0.139
		c-0.072,0.054-0.139,0.117-0.203,0.186c-0.063,0.069-0.118,0.146-0.166,0.231c-0.04,0.079-0.08,0.162-0.119,0.25
		c-0.04,0.089-0.067,0.184-0.083,0.284V24.94H26.123z"/>
	<path class="st15" d="M32.416,24.21c-0.102-0.038-0.2-0.077-0.29-0.115c-0.091-0.039-0.181-0.074-0.267-0.104
		c-0.055-0.025-0.111-0.045-0.167-0.065c-0.055-0.019-0.111-0.04-0.166-0.064c-0.031-0.007-0.059-0.015-0.083-0.023
		c-0.024-0.008-0.053-0.015-0.083-0.023c-0.088-0.015-0.17-0.032-0.249-0.052c-0.079-0.019-0.154-0.032-0.225-0.04
		c-0.08-0.016-0.151-0.026-0.215-0.029c-0.063-0.004-0.126-0.006-0.189-0.006c-0.063,0-0.124,0.002-0.184,0.006
		c-0.059,0.004-0.117,0.014-0.172,0.029c-0.055,0.008-0.107,0.021-0.154,0.04c-0.048,0.02-0.091,0.04-0.131,0.064
		c-0.024,0.007-0.044,0.02-0.059,0.035c-0.016,0.016-0.032,0.027-0.048,0.035c-0.016,0.017-0.029,0.029-0.041,0.041
		c-0.012,0.011-0.023,0.026-0.031,0.04c-0.015,0.032-0.029,0.06-0.042,0.087c-0.011,0.027-0.017,0.06-0.017,0.098
		c0,0.032,0.007,0.06,0.024,0.088c0.015,0.027,0.039,0.059,0.071,0.098c0.015,0.016,0.032,0.032,0.048,0.052
		c0.015,0.02,0.036,0.036,0.059,0.052c0.024,0.023,0.052,0.044,0.083,0.064c0.032,0.02,0.064,0.037,0.095,0.052
		c0.064,0.04,0.135,0.082,0.214,0.128c0.08,0.047,0.17,0.097,0.273,0.151c0.102,0.054,0.217,0.113,0.343,0.174
		c0.128,0.062,0.265,0.124,0.417,0.185c0.07,0.039,0.14,0.078,0.207,0.116c0.067,0.039,0.129,0.077,0.183,0.116
		c0.064,0.031,0.123,0.064,0.179,0.097c0.054,0.035,0.11,0.069,0.165,0.099c0.056,0.031,0.105,0.062,0.148,0.093
		c0.044,0.031,0.085,0.062,0.126,0.092c0.039,0.031,0.075,0.062,0.106,0.093c0.032,0.031,0.064,0.062,0.096,0.093
		c0.023,0.031,0.047,0.06,0.071,0.087c0.024,0.027,0.04,0.051,0.047,0.075c0.008,0.015,0.016,0.032,0.023,0.047
		c0.009,0.015,0.017,0.027,0.026,0.034c0.006,0.017,0.015,0.03,0.023,0.041c0.008,0.012,0.015,0.026,0.024,0.04
		c0.006,0.032,0.013,0.061,0.017,0.087c0.005,0.027,0.01,0.053,0.018,0.076c0.016,0.031,0.027,0.06,0.03,0.087
		c0.004,0.027,0.006,0.055,0.006,0.086c0,0.115-0.013,0.226-0.041,0.331c-0.028,0.104-0.07,0.202-0.125,0.295
		c-0.055,0.093-0.118,0.178-0.19,0.255c-0.072,0.077-0.162,0.15-0.273,0.22c-0.102,0.068-0.213,0.129-0.332,0.179
		c-0.119,0.05-0.246,0.091-0.38,0.122c-0.126,0.031-0.261,0.054-0.403,0.07c-0.142,0.014-0.292,0.023-0.451,0.023h-0.071h-0.06
		c-0.024-0.009-0.047-0.011-0.071-0.011h-0.071h-0.042h-0.04h-0.024h-0.023c-0.024-0.008-0.046-0.012-0.066-0.012h-0.054
		c-0.024,0-0.044-0.002-0.065-0.006c-0.02-0.004-0.042-0.006-0.065-0.006c-0.024-0.008-0.046-0.012-0.066-0.012h-0.065
		c-0.048-0.007-0.089-0.014-0.125-0.017c-0.035-0.004-0.073-0.01-0.112-0.018c-0.055-0.008-0.109-0.012-0.16-0.018
		c-0.052-0.003-0.105-0.009-0.16-0.016c-0.048-0.017-0.097-0.03-0.149-0.041c-0.051-0.012-0.105-0.025-0.161-0.041
		c-0.015-0.006-0.033-0.012-0.053-0.017c-0.02-0.004-0.038-0.009-0.054-0.017c-0.032-0.016-0.064-0.03-0.1-0.041
		c-0.036-0.011-0.073-0.026-0.113-0.041c-0.032-0.007-0.062-0.017-0.089-0.029c-0.028-0.011-0.054-0.02-0.077-0.029
		c-0.033-0.015-0.061-0.029-0.09-0.04c-0.027-0.011-0.057-0.021-0.088-0.029v-1.136c0.048,0.032,0.096,0.062,0.148,0.093
		c0.052,0.032,0.105,0.062,0.16,0.093c0.056,0.023,0.11,0.046,0.161,0.07c0.052,0.023,0.101,0.046,0.148,0.07
		c0.11,0.046,0.214,0.087,0.308,0.122c0.096,0.033,0.191,0.067,0.286,0.098c0.086,0.03,0.175,0.055,0.267,0.075
		c0.09,0.019,0.176,0.036,0.254,0.051c0.087,0.009,0.167,0.016,0.238,0.024c0.071,0.008,0.142,0.011,0.213,0.011
		c0.064,0,0.127-0.005,0.19-0.017c0.064-0.012,0.122-0.021,0.178-0.029c0.023-0.008,0.049-0.016,0.077-0.023
		c0.028-0.009,0.054-0.016,0.077-0.023c0.023-0.016,0.05-0.028,0.077-0.041c0.028-0.011,0.053-0.021,0.077-0.028
		c0.047-0.023,0.088-0.05,0.125-0.082c0.035-0.03,0.069-0.062,0.1-0.092c0.025-0.039,0.042-0.08,0.054-0.122
		c0.012-0.043,0.018-0.087,0.018-0.134v-0.035c0-0.008-0.004-0.019-0.011-0.034c0-0.008-0.002-0.019-0.007-0.03
		c-0.003-0.01-0.005-0.021-0.005-0.029c-0.008-0.007-0.015-0.015-0.018-0.023c-0.004-0.007-0.011-0.016-0.018-0.023
		c-0.007-0.008-0.013-0.016-0.013-0.023c-0.007-0.007-0.015-0.016-0.023-0.028c-0.007-0.012-0.019-0.022-0.035-0.03
		c-0.024-0.015-0.047-0.032-0.07-0.052c-0.025-0.019-0.053-0.041-0.084-0.065c-0.016-0.007-0.032-0.017-0.048-0.029
		c-0.016-0.012-0.031-0.021-0.047-0.029c-0.017-0.015-0.032-0.029-0.048-0.04c-0.015-0.011-0.032-0.022-0.047-0.029
		c-0.032-0.016-0.067-0.033-0.107-0.052c-0.04-0.019-0.084-0.041-0.13-0.065c-0.023-0.007-0.045-0.015-0.066-0.023
		c-0.019-0.007-0.041-0.019-0.065-0.034c-0.023-0.007-0.046-0.018-0.065-0.029c-0.02-0.012-0.042-0.021-0.065-0.03
		c-0.055-0.015-0.108-0.034-0.16-0.057c-0.051-0.023-0.097-0.047-0.137-0.07c-0.016-0.008-0.031-0.016-0.048-0.024
		c-0.015-0.007-0.032-0.015-0.047-0.023c-0.032-0.015-0.064-0.03-0.095-0.045c-0.031-0.015-0.063-0.032-0.095-0.047
		c-0.096-0.039-0.188-0.081-0.28-0.128c-0.09-0.047-0.18-0.097-0.267-0.15c-0.087-0.054-0.174-0.11-0.261-0.168
		c-0.087-0.058-0.174-0.118-0.26-0.18c-0.08-0.062-0.151-0.124-0.214-0.186c-0.064-0.062-0.116-0.13-0.155-0.208
		c-0.047-0.077-0.08-0.157-0.095-0.238c-0.016-0.081-0.023-0.164-0.023-0.249c0-0.108,0.009-0.212,0.029-0.312
		c0.019-0.101,0.057-0.193,0.113-0.278c0.047-0.085,0.108-0.163,0.184-0.237c0.075-0.073,0.164-0.141,0.267-0.203
		c0.095-0.061,0.201-0.117,0.32-0.168c0.119-0.05,0.242-0.091,0.368-0.122c0.134-0.03,0.277-0.054,0.427-0.07
		c0.15-0.015,0.312-0.022,0.486-0.022c0.071,0,0.149,0.001,0.231,0.006c0.083,0.003,0.163,0.009,0.243,0.016
		c0.071,0.009,0.149,0.021,0.231,0.035c0.083,0.016,0.164,0.031,0.244,0.047c0.078,0.015,0.159,0.035,0.242,0.057
		c0.083,0.024,0.164,0.05,0.243,0.081c0.087,0.032,0.174,0.06,0.262,0.087c0.087,0.028,0.173,0.06,0.261,0.098V23.19V24.21z"/>
	<path class="st15" d="M37.709,24.21c-0.103-0.038-0.2-0.077-0.291-0.115c-0.092-0.039-0.18-0.074-0.268-0.104
		c-0.054-0.025-0.11-0.045-0.165-0.065c-0.056-0.019-0.111-0.04-0.167-0.064c-0.031-0.007-0.059-0.015-0.083-0.023
		c-0.023-0.008-0.052-0.015-0.083-0.023c-0.087-0.015-0.171-0.032-0.25-0.052c-0.079-0.019-0.154-0.032-0.225-0.04
		c-0.079-0.016-0.151-0.026-0.214-0.029c-0.063-0.004-0.126-0.006-0.189-0.006c-0.063,0-0.124,0.002-0.184,0.006
		c-0.059,0.004-0.116,0.014-0.172,0.029c-0.056,0.008-0.107,0.021-0.154,0.04c-0.047,0.02-0.091,0.04-0.131,0.064
		c-0.024,0.007-0.043,0.02-0.059,0.035c-0.016,0.016-0.032,0.027-0.047,0.035c-0.016,0.017-0.03,0.029-0.042,0.041
		c-0.012,0.011-0.022,0.026-0.029,0.04c-0.016,0.032-0.03,0.06-0.043,0.087c-0.011,0.027-0.016,0.06-0.016,0.098
		c0,0.032,0.007,0.06,0.023,0.088c0.015,0.027,0.039,0.059,0.071,0.098c0.016,0.016,0.032,0.032,0.048,0.052
		c0.015,0.02,0.035,0.036,0.059,0.052c0.024,0.023,0.051,0.044,0.083,0.064c0.031,0.02,0.063,0.037,0.095,0.052
		c0.063,0.04,0.134,0.082,0.214,0.128c0.08,0.047,0.17,0.097,0.273,0.151c0.103,0.054,0.217,0.113,0.344,0.174
		c0.127,0.062,0.265,0.124,0.415,0.185c0.071,0.039,0.141,0.078,0.208,0.116c0.068,0.039,0.129,0.077,0.184,0.116
		c0.063,0.031,0.123,0.064,0.178,0.097c0.055,0.035,0.11,0.069,0.166,0.099c0.055,0.031,0.105,0.062,0.148,0.093
		c0.044,0.031,0.085,0.062,0.125,0.092c0.04,0.031,0.075,0.062,0.106,0.093c0.032,0.031,0.064,0.062,0.096,0.093
		c0.022,0.031,0.047,0.06,0.071,0.087c0.023,0.027,0.039,0.051,0.048,0.075c0.008,0.015,0.016,0.032,0.023,0.047
		c0.008,0.015,0.015,0.027,0.024,0.034c0.007,0.017,0.016,0.03,0.024,0.041c0.008,0.012,0.016,0.026,0.023,0.04
		c0.007,0.032,0.014,0.061,0.017,0.087c0.004,0.027,0.011,0.053,0.018,0.076c0.016,0.031,0.026,0.06,0.03,0.087
		c0.004,0.027,0.006,0.055,0.006,0.086c0,0.115-0.014,0.226-0.042,0.331c-0.028,0.104-0.07,0.202-0.124,0.295
		c-0.056,0.093-0.118,0.178-0.19,0.255c-0.072,0.077-0.163,0.15-0.274,0.22c-0.102,0.068-0.212,0.129-0.332,0.179
		c-0.118,0.05-0.245,0.091-0.38,0.122c-0.127,0.031-0.261,0.054-0.403,0.07c-0.143,0.014-0.293,0.023-0.451,0.023h-0.071h-0.06
		c-0.024-0.009-0.047-0.011-0.071-0.011H35.55h-0.042h-0.042h-0.023h-0.023c-0.024-0.008-0.046-0.012-0.065-0.012H35.3
		c-0.023,0-0.045-0.002-0.066-0.006c-0.019-0.004-0.04-0.006-0.065-0.006c-0.024-0.008-0.045-0.012-0.066-0.012h-0.064
		c-0.048-0.007-0.09-0.014-0.126-0.017c-0.035-0.004-0.072-0.01-0.111-0.018c-0.056-0.008-0.11-0.012-0.161-0.018
		c-0.051-0.003-0.104-0.009-0.16-0.016c-0.047-0.017-0.097-0.03-0.148-0.041c-0.052-0.012-0.105-0.025-0.161-0.041
		c-0.015-0.006-0.033-0.012-0.053-0.017c-0.02-0.004-0.038-0.009-0.053-0.017c-0.032-0.016-0.065-0.03-0.101-0.041
		c-0.036-0.011-0.073-0.026-0.113-0.041c-0.032-0.007-0.062-0.017-0.089-0.029c-0.028-0.011-0.053-0.02-0.078-0.029
		c-0.031-0.015-0.061-0.029-0.089-0.04c-0.027-0.011-0.058-0.021-0.089-0.029v-1.136c0.047,0.032,0.096,0.062,0.148,0.093
		c0.051,0.032,0.104,0.062,0.16,0.093c0.056,0.023,0.108,0.046,0.161,0.07c0.051,0.023,0.1,0.046,0.148,0.07
		c0.111,0.046,0.214,0.087,0.309,0.122c0.094,0.033,0.189,0.067,0.284,0.098c0.087,0.03,0.177,0.055,0.268,0.075
		c0.091,0.019,0.175,0.036,0.254,0.051c0.088,0.009,0.167,0.016,0.238,0.024c0.072,0.008,0.143,0.011,0.214,0.011
		c0.063,0,0.126-0.005,0.19-0.017c0.063-0.012,0.122-0.021,0.178-0.029c0.024-0.008,0.05-0.016,0.077-0.023
		c0.028-0.009,0.054-0.016,0.077-0.023c0.025-0.016,0.049-0.028,0.077-0.041c0.028-0.011,0.053-0.021,0.078-0.028
		c0.048-0.023,0.089-0.05,0.124-0.082c0.036-0.03,0.069-0.062,0.101-0.092c0.024-0.039,0.042-0.08,0.053-0.122
		c0.013-0.043,0.018-0.087,0.018-0.134v-0.035c0-0.008-0.004-0.019-0.012-0.034c0-0.008-0.002-0.019-0.006-0.03
		c-0.004-0.01-0.006-0.021-0.006-0.029c-0.008-0.007-0.014-0.015-0.017-0.023c-0.005-0.007-0.011-0.016-0.019-0.023
		c-0.008-0.008-0.012-0.016-0.012-0.023c-0.008-0.007-0.015-0.016-0.024-0.028c-0.008-0.012-0.02-0.022-0.036-0.03
		c-0.023-0.015-0.047-0.032-0.07-0.052c-0.024-0.019-0.052-0.041-0.084-0.065c-0.016-0.007-0.032-0.017-0.047-0.029
		c-0.016-0.012-0.032-0.021-0.048-0.029c-0.015-0.015-0.032-0.029-0.047-0.04c-0.016-0.011-0.032-0.022-0.048-0.029
		c-0.032-0.016-0.068-0.033-0.107-0.052c-0.04-0.019-0.083-0.041-0.131-0.065c-0.024-0.007-0.046-0.015-0.065-0.023
		c-0.019-0.007-0.042-0.019-0.065-0.034c-0.024-0.007-0.046-0.018-0.065-0.029c-0.02-0.012-0.042-0.021-0.065-0.03
		c-0.056-0.015-0.109-0.034-0.16-0.057c-0.051-0.023-0.097-0.047-0.137-0.07c-0.016-0.008-0.032-0.016-0.048-0.024
		c-0.016-0.007-0.031-0.015-0.048-0.023c-0.032-0.015-0.063-0.03-0.095-0.045c-0.032-0.015-0.063-0.032-0.095-0.047
		c-0.095-0.039-0.187-0.081-0.28-0.128c-0.09-0.047-0.179-0.097-0.266-0.15c-0.088-0.054-0.175-0.11-0.262-0.168
		c-0.087-0.058-0.174-0.118-0.261-0.18c-0.08-0.062-0.15-0.124-0.214-0.186c-0.064-0.062-0.115-0.13-0.155-0.208
		c-0.047-0.077-0.079-0.157-0.094-0.238c-0.016-0.081-0.024-0.164-0.024-0.249c0-0.108,0.01-0.212,0.03-0.312
		c0.019-0.101,0.058-0.193,0.112-0.278c0.048-0.085,0.109-0.163,0.184-0.237c0.076-0.073,0.165-0.141,0.267-0.203
		c0.095-0.061,0.201-0.117,0.321-0.168c0.118-0.05,0.24-0.091,0.368-0.122c0.134-0.03,0.278-0.054,0.427-0.07
		c0.15-0.015,0.312-0.022,0.487-0.022c0.071,0,0.148,0.001,0.232,0.006c0.083,0.003,0.163,0.009,0.242,0.016
		c0.071,0.009,0.149,0.021,0.232,0.035c0.082,0.016,0.163,0.031,0.242,0.047c0.08,0.015,0.161,0.035,0.244,0.057
		c0.084,0.024,0.164,0.05,0.244,0.081c0.087,0.032,0.173,0.06,0.261,0.087c0.086,0.028,0.174,0.06,0.261,0.098V23.19V24.21z"/>
	<path class="st15" d="M44.515,27.558c-0.007,0.009-0.013,0.016-0.017,0.024c-0.005,0.007-0.014,0.015-0.03,0.022
		c-0.009,0.008-0.02,0.016-0.036,0.024c-0.016,0.008-0.027,0.014-0.034,0.017c-0.008,0.005-0.017,0.006-0.025,0.006
		c-0.008,0.008-0.016,0.013-0.024,0.017c-0.008,0.005-0.015,0.006-0.023,0.006c-0.009,0.008-0.017,0.014-0.025,0.018
		c-0.007,0.004-0.016,0.006-0.023,0.006c-0.009,0.007-0.016,0.013-0.023,0.018c-0.009,0.003-0.017,0.006-0.025,0.006
		c-0.007,0-0.019,0.004-0.035,0.012c-0.008,0.007-0.016,0.013-0.024,0.017c-0.008,0.004-0.016,0.006-0.023,0.006
		c-0.048,0.023-0.093,0.043-0.137,0.058c-0.043,0.016-0.085,0.035-0.125,0.058c-0.04,0.016-0.081,0.029-0.124,0.04
		c-0.043,0.012-0.089,0.026-0.136,0.041c-0.048,0.016-0.093,0.028-0.137,0.04c-0.043,0.012-0.085,0.022-0.125,0.029
		c-0.039,0.008-0.081,0.016-0.124,0.025c-0.043,0.007-0.09,0.014-0.137,0.023c-0.087,0.007-0.178,0.019-0.272,0.035
		c-0.095,0.015-0.194,0.027-0.298,0.035c-0.102,0.007-0.21,0.013-0.325,0.016c-0.115,0.006-0.231,0.007-0.35,0.007
		c-0.255,0-0.495-0.016-0.724-0.046c-0.23-0.031-0.448-0.077-0.654-0.139c-0.197-0.07-0.381-0.157-0.551-0.261
		c-0.171-0.104-0.326-0.226-0.469-0.364c-0.142-0.139-0.265-0.285-0.367-0.436c-0.103-0.15-0.19-0.306-0.262-0.468
		c-0.071-0.163-0.123-0.328-0.154-0.499c-0.032-0.169-0.048-0.343-0.048-0.521c0-0.201,0.015-0.389,0.048-0.562
		c0.031-0.174,0.083-0.343,0.154-0.504c0.08-0.162,0.171-0.313,0.273-0.452c0.102-0.139,0.229-0.271,0.38-0.394
		c0.143-0.123,0.297-0.232,0.463-0.325c0.167-0.091,0.344-0.165,0.534-0.22c0.198-0.062,0.402-0.107,0.612-0.139
		c0.21-0.031,0.425-0.046,0.647-0.046c0.222,0,0.429,0.015,0.623,0.046c0.194,0.032,0.378,0.077,0.552,0.139
		c0.182,0.054,0.35,0.126,0.504,0.215c0.155,0.089,0.299,0.192,0.434,0.307c0.126,0.124,0.237,0.261,0.332,0.411
		c0.095,0.151,0.178,0.315,0.249,0.493c0.064,0.177,0.114,0.37,0.149,0.579c0.035,0.209,0.053,0.432,0.053,0.672l-4.688-0.023
		c0.023,0.14,0.058,0.267,0.101,0.383c0.043,0.116,0.093,0.223,0.148,0.324c0.063,0.101,0.135,0.192,0.215,0.272
		c0.079,0.082,0.166,0.153,0.261,0.215c0.087,0.069,0.186,0.127,0.296,0.174c0.111,0.046,0.229,0.089,0.356,0.127
		c0.135,0.031,0.271,0.054,0.409,0.069c0.139,0.016,0.291,0.024,0.457,0.024h0.113h0.113c0.032,0,0.064-0.001,0.101-0.006
		c0.035-0.005,0.073-0.01,0.113-0.018c0.024,0,0.047-0.002,0.071-0.005c0.023-0.004,0.048-0.006,0.071-0.006
		c0.008,0,0.02-0.001,0.036-0.005c0.016-0.004,0.028-0.006,0.036-0.006c0.039-0.008,0.077-0.016,0.113-0.024
		c0.034-0.008,0.073-0.015,0.112-0.023c0.04-0.007,0.078-0.016,0.114-0.023c0.035-0.007,0.069-0.015,0.1-0.023
		c0.032-0.016,0.067-0.03,0.107-0.04c0.04-0.013,0.079-0.022,0.119-0.03c0.031-0.015,0.066-0.029,0.101-0.041
		c0.035-0.011,0.073-0.021,0.112-0.028c0.04-0.016,0.078-0.029,0.113-0.04c0.036-0.012,0.07-0.025,0.101-0.041h0.018
		c0.005,0,0.01-0.004,0.018-0.011c0.008-0.007,0.016-0.011,0.023-0.011c0.009,0,0.016-0.002,0.025-0.006
		c0.007-0.004,0.015-0.01,0.023-0.018c0.008,0,0.016-0.002,0.023-0.005c0.008-0.004,0.016-0.006,0.024-0.006
		c0.007-0.008,0.016-0.014,0.025-0.018c0.007-0.004,0.018-0.009,0.035-0.017c0.015-0.007,0.029-0.013,0.041-0.018
		c0.012-0.003,0.022-0.009,0.03-0.017c0.024-0.015,0.048-0.029,0.071-0.04c0.024-0.011,0.051-0.021,0.083-0.029
		c0.016-0.016,0.036-0.028,0.059-0.041c0.024-0.012,0.052-0.021,0.083-0.028v-0.023V27.558z M43.329,24.94
		c-0.008-0.093-0.022-0.182-0.043-0.267c-0.02-0.085-0.049-0.165-0.088-0.244c-0.032-0.077-0.075-0.149-0.131-0.22
		c-0.055-0.069-0.115-0.131-0.178-0.185c-0.079-0.062-0.16-0.112-0.243-0.151c-0.083-0.039-0.168-0.073-0.255-0.104
		c-0.096-0.031-0.194-0.054-0.297-0.069c-0.102-0.016-0.21-0.024-0.32-0.024c-0.127,0-0.245,0.008-0.355,0.024
		c-0.111,0.015-0.222,0.038-0.333,0.069c-0.102,0.031-0.198,0.065-0.284,0.104c-0.088,0.04-0.171,0.086-0.25,0.139
		c-0.071,0.054-0.138,0.117-0.202,0.185c-0.063,0.069-0.118,0.147-0.165,0.231c-0.04,0.079-0.079,0.161-0.12,0.25
		c-0.039,0.089-0.067,0.184-0.082,0.284V24.94H43.329z"/>
	<path class="st15" d="M49.74,23.107c-0.287-0.185-0.488-0.231-0.633-0.268s-0.347-0.054-0.347-0.054
		c-0.11-0.007-0.191-0.001-0.242,0.005c-0.04,0.001-0.076,0.006-0.113,0.009c-0.038,0.001-0.079,0.005-0.122,0.009
		c-1.014,0.095-1.515,0.619-1.617,0.74v-0.683h-1.334v5.202h1.334V25.41c0-0.336,0.065-0.51,0.065-0.51
		c0.056-0.291,0.336-0.596,0.432-0.694c0.095-0.098,0.286-0.22,0.286-0.22c0.367-0.216,0.839-0.228,0.839-0.228
		c0.197-0.019,0.439,0.065,0.566,0.116c0.128,0.05,0.453,0.288,0.453,0.288l0.677-0.895C49.934,23.23,49.74,23.107,49.74,23.107"/>
</g>
</svg>
