<?xml version="1.0" encoding="utf-8"?>
<!-- Generator: Adobe Illustrator 24.0.3, SVG Export Plug-In . SVG Version: 6.00 Build 0)  -->
<svg version="1.1" id="Capa_1" xmlns="http://www.w3.org/2000/svg" xmlns:xlink="http://www.w3.org/1999/xlink" x="0px" y="0px"
	 width="100px" height="37.25px" viewBox="0 0 100 37.25" style="enable-background:new 0 0 100 37.25;" xml:space="preserve">
<style type="text/css">
	.st0{fill:#FFB406;}
	.st1{fill:#FFFFFF;}
	.st2{fill:#DC2015;}
	.st3{fill:none;stroke:#FFFFFF;stroke-width:0.5644;stroke-miterlimit:3.864;}
</style>
<g>
	<g>
		<path class="st0" d="M26.394-45.306v9.674H0v-40.485h25.905v9.641H11.104v5.961h13.297v9.148H11.104v6.06H26.394z"/>
		<path class="st0" d="M64.28-76.117v40.485h-9.224l-16.083-21.97v21.97H28.164v-40.485h9.762l15.546,21.24v-21.24H64.28z"/>
	</g>
	<g>
		<path class="st0" d="M21.369-183.689v9.581h19.343v14.514H21.369v21.094H4.639v-60.195h38.309v15.005H21.369z"/>
		<path class="st0" d="M83.803-152.883v14.384H44.559v-60.195h38.517v14.335H61.069v8.863H80.84v13.603H61.069v9.011H83.803z"/>
		<path class="st0" d="M124.66-153.686v15.186H86.435v-60.195h16.803v45.008H124.66z"/>
		<path class="st0" d="M126.185-198.694h16.803v60.195h-16.803V-198.694z"/>
		<path class="st0" d="M191.588-153.941v15.442H143.93v-3.45l22.302-41.303h-20.841v-15.442h45.164v3.748l-22.187,41.006H191.588z"
			/>
	</g>
	<g>
		<path class="st0" d="M242.085-138.454l-3.254-24.015l-11.059,24.083h-3.394l-11.054-24.074l-3.208,24.005h-11.641l6.307-41.7
			h11.472l9.82,22.69l9.884-22.69h11.472l6.248,41.7H242.085z"/>
		<path class="st0" d="M281.766-148.419v9.965H254.58v-41.7h26.683v9.93h-15.245v6.14h13.696v9.423h-13.696v6.242H281.766z"/>
	</g>
	<g>
		<path class="st0" d="M65.955-73.087l-6.327-7.789c-3.265,1.023-6.831,1.569-10.628,1.569c-18.056,0-30.94-12.338-30.94-29.504
			S30.944-138.313,49-138.313c18.01,0,30.848,12.291,30.848,29.503c0,8.83-3.379,16.365-9.101,21.609l11.657,14.113H65.955z
			 M49-93.706c8.549,0,14.738-6.314,14.738-15.104c0-8.789-6.188-15.104-14.738-15.104c-8.548,0-14.829,6.36-14.829,15.104
			S40.451-93.706,49-93.706z"/>
		<path class="st0" d="M80.818-102.454v-34.439h15.814v34.15c0,5.49,3.538,9.037,8.705,9.037c5.166,0,8.704-3.547,8.704-9.037
			v-34.15h15.814v34.439c0,13.818-10.2,23.148-24.518,23.148C91.018-79.307,80.818-88.636,80.818-102.454z"/>
		<path class="st0" d="M170.346-94.148v13.422h-36.618v-56.166h35.939v13.375h-20.534v8.269h18.448v12.692h-18.448v8.408H170.346z"
			/>
		<path class="st0" d="M224.528-108.856c0,16.39-12.036,28.129-28.995,28.129h-22.732v-56.166h22.732
			C212.539-136.893,224.528-125.269,224.528-108.856z M208.665-108.856c0-8.333-5.544-13.867-13.861-13.867h-6.461v27.825h6.461
			C203.122-94.897,208.665-100.57,208.665-108.856z"/>
		<path class="st0" d="M254.161-79.306c-18.056,0-30.94-12.338-30.94-29.504s12.885-29.504,30.94-29.504
			c18.009,0,30.847,12.291,30.847,29.504C285.009-91.598,272.171-79.307,254.161-79.306L254.161-79.306z M254.161-93.704
			c8.549,0,14.737-6.315,14.737-15.104c0-8.79-6.188-15.105-14.737-15.105c-8.549,0-14.829,6.36-14.829,15.104
			s6.28,15.104,14.829,15.104V-93.704z"/>
	</g>
	<g>
		<path class="st0" d="M102.29-12.772c-19.369,0-33.834-14.339-33.834-33.374c0-19.14,14.465-33.48,33.834-33.48
			c16.677,0,29.594,11.008,32.18,27.143h-17.762c-2.185-6.526-7.683-10.763-14.38-10.763c-9.011,0-15.62,7.245-15.62,17.099
			c0,9.815,6.609,16.956,15.62,16.956c7.061,0,12.612-4.601,14.395-11.673h17.931C132.234-24.131,119.24-12.773,102.29-12.772
			L102.29-12.772z"/>
		<path class="st0" d="M171.919-24.717h-22.556l-3.525,10.335h-18.787l24.997-63.635h17.137l25.545,63.635h-19.305L171.919-24.717z
			 M160.606-58.155l-6.973,19.719h14.008L160.606-58.155z"/>
		<path class="st0" d="M187.853-34.93h18.085c0,4.545,3.507,6.758,7.505,6.758c3.672,0,7.179-1.954,7.179-5.43
			c0-3.992-4.954-5.149-11.011-6.617c-9.198-2.286-20.94-5.105-20.94-19.592c0-12.532,9.207-19.71,24.212-19.71
			c15.257,0,24.005,7.832,24.005,20.778h-17.581c0-4.025-3-5.912-6.633-5.912c-3.124,0-6.124,1.353-6.124,4.323
			c0,3.615,4.796,4.81,10.788,6.316c9.366,2.417,21.613,5.545,21.613,20.077c0,13.898-10.68,21.112-25.457,21.112
			C197.919-12.826,187.853-21.059,187.853-34.93z"/>
		<path class="st0" d="M277.189-24.717h-22.556l-3.525,10.335h-18.787l24.997-63.635h17.137L300-14.382h-19.305L277.189-24.717z
			 M265.875-58.155l-6.973,19.719h14.008L265.875-58.155z"/>
	</g>
</g>
<g>
	<g>
		<g>
			<g>
				<rect class="st1" width="100" height="37.25"/>
				<rect x="1.453" y="1.453" class="st2" width="97.191" height="24.908"/>
				<polygon class="st1" points="25.89,4.199 21.665,23.226 31.142,23.226 32.551,12.766 36.713,23.226 42.413,23.226 
					46.702,12.702 48.112,23.226 57.46,23.226 52.913,4.199 43.308,4.199 39.528,14.11 35.945,4.199 				"/>
				<polygon class="st1" points="55.202,4.199 75.492,4.199 75.492,10.473 70.208,10.473 70.208,23.226 60.484,23.226 
					60.484,10.473 55.202,10.473 				"/>
				<polygon class="st1" points="10.146,16.09 3.598,16.09 3.598,11.361 4.371,11.361 4.371,15.224 6.377,15.224 6.377,11.605 
					7.145,11.605 7.145,15.224 9.373,15.224 9.373,11.208 10.146,11.208 				"/>
				<g>
					<path class="st1" d="M97.433,24.236c0,0.176-0.112,0.257-0.272,0.257h-0.47v-0.516h0.47
						C97.323,23.977,97.433,24.069,97.433,24.236 M97.677,24.23c0-0.331-0.236-0.48-0.516-0.48h-0.707v1.609h0.238v-0.637h0.363
						l0.319,0.637h0.277l-0.328-0.657C97.542,24.646,97.677,24.487,97.677,24.23"/>
					<circle class="st3" cx="96.937" cy="24.544" r="1.204"/>
					<path class="st1" d="M75.357,21.67c2.356,0.729,5.63,1.298,5.63,1.298c1.976,0.325,2.434,0.403,5.602,0.35
						c3.167-0.054,6.059-1.324,6.059-1.324c3.084-1.268,3.763-3.403,3.763-3.403c1.301-2.46-0.27-4.596-0.27-4.596
						c-1.109-1.647-4.059-2.405-4.059-2.405c-0.782-0.432-5.198-0.89-5.198-0.89c-1.407-0.108-0.999-0.919-0.999-0.919
						c0.054-0.974,2.787-0.783,2.974-0.783c1.379,0,4.438,1.432,4.438,1.432l2.68-4.997c-2.542-1.379-7.062-1.595-7.062-1.595
						c-3.844-0.403-7.468,0.998-7.468,0.998c-5.438,1.756-5.168,5.918-5.168,5.918c-0.065,1.222,0.642,2.803,2.083,3.675
						c2.189,1.321,5.471,1.647,5.601,1.647c1.65,0,2.463,0.379,2.463,0.379c1.245,0.379,0.325,1.324,0.325,1.324
						c-0.674,0.378-1.92,0.432-1.92,0.432c-3.191,0.218-6.684-2.026-6.684-2.026L75.357,21.67z"/>
					<path class="st1" d="M6.488,22.173v-1.86c0-0.395-0.042-0.704-0.121-0.928c-0.084-0.224-0.215-0.393-0.393-0.509
						c-0.182-0.115-0.378-0.173-0.588-0.173c-0.31,0-0.565,0.112-0.765,0.338c-0.199,0.224-0.298,0.578-0.298,1.063v2.07H6.488z
						 M10.146,23.04H3.598v-2.9c0-0.583,0.06-1.026,0.18-1.331c0.115-0.303,0.323-0.546,0.619-0.728
						c0.298-0.182,0.627-0.271,0.989-0.271c0.463,0,0.856,0.15,1.173,0.45c0.32,0.3,0.523,0.765,0.609,1.392
						c0.11-0.229,0.219-0.402,0.326-0.522c0.231-0.252,0.521-0.491,0.871-0.718l1.781-1.137v1.088l-1.362,0.866
						C8.39,19.482,8.09,19.69,7.882,19.854c-0.21,0.164-0.355,0.309-0.438,0.44c-0.085,0.128-0.142,0.259-0.174,0.393
						c-0.022,0.099-0.031,0.259-0.031,0.483v1.003h2.907V23.04z"/>
					<path class="st1" d="M9.373,8.801V7.404c0-0.431-0.041-0.769-0.121-1.012c-0.08-0.247-0.193-0.444-0.339-0.588
						C8.707,5.597,8.433,5.438,8.087,5.326C7.739,5.209,7.318,5.151,6.824,5.151c-0.685,0-1.211,0.114-1.578,0.339
						C4.877,5.714,4.63,5.985,4.505,6.307C4.416,6.539,4.371,6.912,4.371,7.426v1.375H9.373z M10.146,9.667H3.598V7.414
						c0-0.509,0.031-0.898,0.094-1.166C3.779,5.874,3.935,5.554,4.162,5.29c0.292-0.345,0.666-0.602,1.12-0.772
						c0.453-0.173,0.97-0.258,1.554-0.259c0.498,0,0.938,0.058,1.322,0.175c0.385,0.115,0.704,0.265,0.955,0.445
						C9.364,5.06,9.562,5.26,9.708,5.476c0.143,0.215,0.253,0.475,0.325,0.782c0.076,0.303,0.112,0.653,0.112,1.048V9.667z"/>
					<polygon points="3.598,28.225 7.814,28.225 7.814,29.504 5.163,29.504 5.163,31.08 7.64,31.08 7.64,32.348 5.163,32.348 
						5.163,35.122 3.598,35.122 					"/>
					<path d="M9.87,33.116c0.051,0.646,0.685,0.952,1.412,0.952c0.532,0,0.962-0.072,1.382-0.205l0.205,1.054
						c-0.511,0.205-1.136,0.307-1.811,0.307c-1.699,0-2.671-0.982-2.671-2.548c0-1.269,0.787-2.671,2.526-2.671
						c1.617,0,2.231,1.258,2.231,2.497c0,0.266-0.03,0.501-0.051,0.613H9.87z M11.702,32.052c0-0.378-0.164-1.013-0.88-1.013
						c-0.655,0-0.921,0.594-0.962,1.013H11.702z"/>
					<path d="M14.076,31.765c0-0.737-0.021-1.218-0.042-1.648h1.34l0.052,0.921h0.041c0.256-0.726,0.87-1.033,1.35-1.033
						c0.143,0,0.216,0,0.328,0.021v1.463c-0.112-0.02-0.245-0.04-0.42-0.04c-0.573,0-0.961,0.307-1.064,0.787
						c-0.02,0.102-0.03,0.225-0.03,0.348v2.537h-1.555V31.765z"/>
					<path d="M17.964,31.765c0-0.737-0.021-1.218-0.041-1.648h1.34l0.052,0.921h0.04c0.257-0.726,0.87-1.033,1.351-1.033
						c0.143,0,0.215,0,0.328,0.021v1.463c-0.112-0.02-0.246-0.04-0.419-0.04c-0.573,0-0.962,0.307-1.064,0.787
						c-0.021,0.102-0.03,0.225-0.03,0.348v2.537h-1.556V31.765z"/>
					<path d="M22.968,33.116c0.051,0.646,0.685,0.952,1.412,0.952c0.532,0,0.961-0.072,1.381-0.205l0.205,1.054
						c-0.512,0.205-1.137,0.307-1.811,0.307c-1.698,0-2.67-0.982-2.67-2.548c0-1.269,0.787-2.671,2.526-2.671
						c1.617,0,2.23,1.258,2.23,2.497c0,0.266-0.031,0.501-0.051,0.613H22.968z M24.799,32.052c0-0.378-0.164-1.013-0.88-1.013
						c-0.655,0-0.921,0.594-0.962,1.013H24.799z"/>
					<path d="M28.913,28.685v1.432h1.115v1.147h-1.115v1.811c0,0.604,0.143,0.88,0.613,0.88c0.194,0,0.348-0.021,0.461-0.041
						l0.01,1.177c-0.204,0.082-0.572,0.134-1.012,0.134c-0.501,0-0.921-0.174-1.166-0.43c-0.287-0.296-0.431-0.778-0.431-1.483
						v-2.046h-0.665v-1.147h0.665v-1.084L28.913,28.685z"/>
					<path d="M32.074,33.116c0.051,0.646,0.685,0.952,1.412,0.952c0.532,0,0.962-0.072,1.382-0.205l0.205,1.054
						c-0.512,0.205-1.136,0.307-1.811,0.307c-1.699,0-2.671-0.982-2.671-2.548c0-1.269,0.788-2.671,2.528-2.671
						c1.617,0,2.23,1.258,2.23,2.497c0,0.266-0.031,0.501-0.052,0.613H32.074z M33.906,32.052c0-0.378-0.164-1.013-0.88-1.013
						c-0.655,0-0.921,0.594-0.962,1.013H33.906z"/>
					<path d="M36.28,31.765c0-0.737-0.021-1.218-0.041-1.648h1.34l0.051,0.921h0.041c0.256-0.726,0.87-1.033,1.35-1.033
						c0.143,0,0.215,0,0.328,0.021v1.463c-0.113-0.02-0.245-0.04-0.419-0.04c-0.573,0-0.961,0.307-1.064,0.787
						c-0.021,0.102-0.03,0.225-0.03,0.348v2.537H36.28V31.765z"/>
					<path d="M45.028,32.564c0,1.831-1.299,2.671-2.639,2.671c-1.463,0-2.589-0.962-2.589-2.579c0-1.617,1.064-2.65,2.671-2.65
						C44.005,30.006,45.028,31.059,45.028,32.564 M41.406,32.615c0,0.86,0.359,1.504,1.024,1.504c0.603,0,0.993-0.604,0.993-1.504
						c0-0.747-0.287-1.504-0.993-1.504C41.682,31.11,41.406,31.878,41.406,32.615"/>
					<path d="M45.98,33.762c0.287,0.173,0.881,0.377,1.341,0.377c0.47,0,0.666-0.163,0.666-0.419c0-0.255-0.153-0.378-0.737-0.573
						c-1.034-0.348-1.432-0.911-1.423-1.504c0-0.931,0.799-1.637,2.037-1.637c0.583,0,1.105,0.133,1.412,0.286l-0.276,1.074
						c-0.225-0.122-0.655-0.285-1.085-0.285c-0.378,0-0.593,0.153-0.593,0.408c0,0.236,0.195,0.359,0.808,0.574
						c0.952,0.327,1.351,0.808,1.36,1.544c0,0.931-0.737,1.617-2.169,1.617c-0.655,0-1.238-0.143-1.617-0.348L45.98,33.762z"/>
					<path d="M57.348,27.857v5.77c0,0.563,0.021,1.157,0.042,1.494h-1.382l-0.072-0.736h-0.021c-0.317,0.563-0.92,0.849-1.566,0.849
						c-1.186,0-2.138-1.013-2.138-2.568c-0.011-1.689,1.044-2.661,2.24-2.661c0.614,0,1.095,0.215,1.32,0.563h0.021v-2.711H57.348z
						 M55.793,32.236c0-0.082-0.01-0.194-0.021-0.276c-0.091-0.42-0.43-0.768-0.91-0.768c-0.706,0-1.075,0.635-1.075,1.423
						c0,0.849,0.419,1.381,1.064,1.381c0.45,0,0.808-0.307,0.9-0.747c0.031-0.113,0.041-0.226,0.041-0.359V32.236z"/>
					<path d="M59.793,33.116c0.052,0.646,0.686,0.952,1.412,0.952c0.532,0,0.962-0.072,1.382-0.205l0.204,1.054
						c-0.511,0.205-1.136,0.307-1.811,0.307c-1.699,0-2.671-0.982-2.671-2.548c0-1.269,0.787-2.671,2.527-2.671
						c1.617,0,2.23,1.258,2.23,2.497c0,0.266-0.03,0.501-0.051,0.613H59.793z M61.624,32.052c0-0.378-0.163-1.013-0.879-1.013
						c-0.655,0-0.921,0.594-0.962,1.013H61.624z"/>
					<path d="M67.222,30.118l0.676,2.324c0.122,0.419,0.214,0.818,0.286,1.217h0.031c0.082-0.409,0.164-0.787,0.276-1.217
						l0.645-2.324h1.637l-1.863,5.004h-1.555l-1.822-5.004H67.222z"/>
					<path d="M72.532,33.116c0.051,0.646,0.686,0.952,1.412,0.952c0.533,0,0.962-0.072,1.381-0.205l0.205,1.054
						c-0.511,0.205-1.136,0.307-1.811,0.307c-1.698,0-2.67-0.982-2.67-2.548c0-1.269,0.787-2.671,2.527-2.671
						c1.617,0,2.231,1.258,2.231,2.497c0,0.266-0.031,0.501-0.052,0.613H72.532z M74.364,32.052c0-0.378-0.164-1.013-0.88-1.013
						c-0.654,0-0.921,0.594-0.961,1.013H74.364z"/>
					<path d="M76.738,31.765c0-0.737-0.02-1.218-0.041-1.648h1.34l0.052,0.921h0.041c0.256-0.726,0.87-1.033,1.351-1.033
						c0.143,0,0.215,0,0.328,0.021v1.463c-0.112-0.02-0.246-0.04-0.42-0.04c-0.573,0-0.962,0.307-1.064,0.787
						c-0.02,0.102-0.03,0.225-0.03,0.348v2.537h-1.556V31.765z"/>
					<path d="M85.395,27.857v5.77c0,0.563,0.02,1.157,0.041,1.494h-1.382l-0.072-0.736h-0.021c-0.317,0.563-0.92,0.849-1.565,0.849
						c-1.187,0-2.138-1.013-2.138-2.568c-0.01-1.689,1.044-2.661,2.241-2.661c0.614,0,1.094,0.215,1.319,0.563h0.021v-2.711H85.395z
						 M83.839,32.236c0-0.082-0.01-0.194-0.021-0.276c-0.092-0.42-0.429-0.768-0.911-0.768c-0.705,0-1.074,0.635-1.074,1.423
						c0,0.849,0.419,1.381,1.064,1.381c0.45,0,0.808-0.307,0.9-0.747c0.031-0.113,0.041-0.226,0.041-0.359V32.236z"/>
					<path d="M89.487,35.122l-0.091-0.501h-0.031c-0.327,0.4-0.839,0.614-1.433,0.614c-1.012,0-1.616-0.736-1.616-1.534
						c0-1.3,1.166-1.923,2.936-1.913v-0.072c0-0.266-0.143-0.645-0.911-0.645c-0.511,0-1.054,0.174-1.381,0.379l-0.287-1.003
						c0.348-0.195,1.033-0.441,1.944-0.441c1.668,0,2.2,0.982,2.2,2.16v1.739c0,0.481,0.02,0.941,0.072,1.218H89.487z
						 M89.303,32.758c-0.819-0.01-1.452,0.184-1.452,0.788c0,0.399,0.266,0.593,0.614,0.593c0.389,0,0.706-0.255,0.808-0.572
						c0.021-0.082,0.03-0.175,0.03-0.266V32.758z"/>
					<path d="M96.896,27.857v5.77c0,0.563,0.019,1.157,0.041,1.494h-1.381l-0.073-0.736h-0.02c-0.317,0.563-0.92,0.849-1.565,0.849
						c-1.187,0-2.138-1.013-2.138-2.568c-0.01-1.689,1.044-2.661,2.24-2.661c0.614,0,1.095,0.215,1.319,0.563h0.021v-2.711H96.896z
						 M95.34,32.236c0-0.082-0.01-0.194-0.021-0.276c-0.092-0.42-0.429-0.768-0.91-0.768c-0.706,0-1.075,0.635-1.075,1.423
						c0,0.849,0.419,1.381,1.064,1.381c0.45,0,0.808-0.307,0.901-0.747c0.03-0.113,0.04-0.226,0.04-0.359V32.236z"/>
				</g>
			</g>
		</g>
	</g>
</g>
</svg>
